<?xml version="1.0" encoding="utf-8"?>
<!-- Generator: Adobe Illustrator 17.0.0, SVG Export Plug-In . SVG Version: 6.00 Build 0)  -->
<!DOCTYPE svg PUBLIC "-//W3C//DTD SVG 1.1//EN" "http://www.w3.org/Graphics/SVG/1.1/DTD/svg11.dtd">
<svg version="1.1" id="Layer_1" xmlns="http://www.w3.org/2000/svg" xmlns:xlink="http://www.w3.org/1999/xlink" x="0px" y="0px"
	 width="36.425px" height="26px" viewBox="0 0 36.425 26" enable-background="new 0 0 36.425 26" xml:space="preserve">
<g>
	<linearGradient id="SVGID_1_" gradientUnits="userSpaceOnUse" x1="12.3554" y1="13" x2="24.07" y2="13">
		<stop  offset="0.0112" style="stop-color:#E42227"/>
		<stop  offset="0.2571" style="stop-color:#E41D2F"/>
		<stop  offset="0.289" style="stop-color:#E4272E"/>
		<stop  offset="0.4963" style="stop-color:#E84F2A"/>
		<stop  offset="0.6088" style="stop-color:#E95B28"/>
		<stop  offset="0.6279" style="stop-color:#E95A28"/>
		<stop  offset="0.8356" style="stop-color:#E84B2A"/>
		<stop  offset="1" style="stop-color:#E7452B"/>
	</linearGradient>
	<rect x="12.355" y="7.142" fill="url(#SVGID_1_)" width="11.715" height="11.717"/>
	<path fill="#FFFFFF" d="M22.746,10.188c-0.334,0.148-0.692,0.248-1.068,0.293c0.384-0.23,0.679-0.595,0.818-1.029
		c-0.359,0.213-0.757,0.368-1.181,0.451c-0.339-0.361-0.823-0.587-1.358-0.587c-1.027,0-1.86,0.833-1.86,1.86
		c0,0.146,0.016,0.288,0.048,0.424c-1.546-0.078-2.916-0.818-3.834-1.943c-0.16,0.275-0.252,0.594-0.252,0.935
		c0,0.645,0.328,1.215,0.827,1.548c-0.305-0.01-0.592-0.093-0.842-0.233c0,0.008,0,0.016,0,0.023c0,0.901,0.641,1.653,1.492,1.824
		c-0.156,0.042-0.32,0.065-0.49,0.065c-0.12,0-0.236-0.012-0.35-0.033c0.237,0.739,0.924,1.277,1.737,1.292
		c-0.637,0.499-1.439,0.796-2.31,0.796c-0.15,0-0.298-0.009-0.444-0.026c0.823,0.528,1.801,0.836,2.851,0.836
		c3.421,0,5.292-2.834,5.292-5.292c0-0.081-0.002-0.161-0.005-0.241C22.181,10.889,22.496,10.561,22.746,10.188z"/>
</g>
</svg>
