<?xml version="1.0" encoding="utf-8"?>
<!-- Generator: Adobe Illustrator 17.0.0, SVG Export Plug-In . SVG Version: 6.00 Build 0)  -->
<!DOCTYPE svg PUBLIC "-//W3C//DTD SVG 1.1//EN" "http://www.w3.org/Graphics/SVG/1.1/DTD/svg11.dtd">
<svg version="1.1" id="Layer_1" xmlns="http://www.w3.org/2000/svg" xmlns:xlink="http://www.w3.org/1999/xlink" x="0px" y="0px"
	 width="36.425px" height="26px" viewBox="0 0 36.425 26" enable-background="new 0 0 36.425 26" xml:space="preserve">
<g>
	<linearGradient id="SVGID_1_" gradientUnits="userSpaceOnUse" x1="12.3554" y1="13" x2="24.07" y2="13">
		<stop  offset="0.0112" style="stop-color:#E42227"/>
		<stop  offset="0.2571" style="stop-color:#E41D2F"/>
		<stop  offset="0.289" style="stop-color:#E4272E"/>
		<stop  offset="0.4963" style="stop-color:#E84F2A"/>
		<stop  offset="0.6088" style="stop-color:#E95B28"/>
		<stop  offset="0.6279" style="stop-color:#E95A28"/>
		<stop  offset="0.8356" style="stop-color:#E84B2A"/>
		<stop  offset="1" style="stop-color:#E7452B"/>
	</linearGradient>
	<rect x="12.355" y="7.142" fill="url(#SVGID_1_)" width="11.715" height="11.717"/>
	<polygon fill="#FFFFFF" points="17.084,15.084 13.393,15.085 15.953,9.085 19.645,9.084 	"/>
	<polygon fill="#FFFFFF" points="20.472,17.044 16.781,17.045 19.341,11.045 23.033,11.044 	"/>
	<g>
		<defs>
			<polygon id="SVGID_2_" points="20.472,17.044 16.781,17.045 19.341,11.045 23.033,11.044 			"/>
		</defs>
		<clipPath id="SVGID_3_">
			<use xlink:href="#SVGID_2_"  overflow="visible"/>
		</clipPath>
		<g clip-path="url(#SVGID_3_)">
			<linearGradient id="SVGID_4_" gradientUnits="userSpaceOnUse" x1="20.11" y1="14.1012" x2="20.2533" y2="14.1012">
				<stop  offset="0.0112" style="stop-color:#E42227"/>
				<stop  offset="0.2571" style="stop-color:#E41D2F"/>
				<stop  offset="0.289" style="stop-color:#E4272E"/>
				<stop  offset="0.4963" style="stop-color:#E84F2A"/>
				<stop  offset="0.6088" style="stop-color:#E95B28"/>
				<stop  offset="0.6279" style="stop-color:#E95A28"/>
				<stop  offset="0.8356" style="stop-color:#E84B2A"/>
				<stop  offset="1" style="stop-color:#E7452B"/>
			</linearGradient>
			<path opacity="0.8" fill="url(#SVGID_4_)" d="M20.253,14.274l0-0.338c-0.053,0-0.1-0.003-0.143-0.009l0.094,0.349
				C20.22,14.275,20.236,14.274,20.253,14.274z"/>
			<linearGradient id="SVGID_5_" gradientUnits="userSpaceOnUse" x1="19.4954" y1="12.1851" x2="19.8217" y2="12.1851">
				<stop  offset="0.0112" style="stop-color:#E42227"/>
				<stop  offset="0.2571" style="stop-color:#E41D2F"/>
				<stop  offset="0.289" style="stop-color:#E4272E"/>
				<stop  offset="0.4963" style="stop-color:#E84F2A"/>
				<stop  offset="0.6088" style="stop-color:#E95B28"/>
				<stop  offset="0.6279" style="stop-color:#E95A28"/>
				<stop  offset="0.8356" style="stop-color:#E84B2A"/>
				<stop  offset="1" style="stop-color:#E7452B"/>
			</linearGradient>
			<path opacity="0.8" fill="url(#SVGID_5_)" d="M19.822,12.338c0-0.335-0.123-0.564-0.326-0.703l0.295,1.099
				C19.808,12.603,19.822,12.472,19.822,12.338z"/>
			<linearGradient id="SVGID_6_" gradientUnits="userSpaceOnUse" x1="18.7206" y1="11.6844" x2="19.4359" y2="11.6844">
				<stop  offset="0.0112" style="stop-color:#E42227"/>
				<stop  offset="0.2571" style="stop-color:#E41D2F"/>
				<stop  offset="0.289" style="stop-color:#E4272E"/>
				<stop  offset="0.4963" style="stop-color:#E84F2A"/>
				<stop  offset="0.6088" style="stop-color:#E95B28"/>
				<stop  offset="0.6279" style="stop-color:#E95A28"/>
				<stop  offset="0.8356" style="stop-color:#E84B2A"/>
				<stop  offset="1" style="stop-color:#E7452B"/>
			</linearGradient>
			<path opacity="0.8" fill="url(#SVGID_6_)" d="M18.84,11.834c0.122,0.002,0.219,0.024,0.295,0.065l0.3-0.301
				c-0.159-0.088-0.358-0.129-0.583-0.129l-0.133,0l0,0.365L18.84,11.834z"/>
			<linearGradient id="SVGID_7_" gradientUnits="userSpaceOnUse" x1="19.6822" y1="14.9914" x2="19.7416" y2="14.9914">
				<stop  offset="0.0112" style="stop-color:#E42227"/>
				<stop  offset="0.2571" style="stop-color:#E41D2F"/>
				<stop  offset="0.289" style="stop-color:#E4272E"/>
				<stop  offset="0.4963" style="stop-color:#E84F2A"/>
				<stop  offset="0.6088" style="stop-color:#E95B28"/>
				<stop  offset="0.6279" style="stop-color:#E95A28"/>
				<stop  offset="0.8356" style="stop-color:#E84B2A"/>
				<stop  offset="1" style="stop-color:#E7452B"/>
			</linearGradient>
			<path opacity="0.8" fill="url(#SVGID_7_)" d="M19.742,15.102c-0.009-0.07-0.017-0.141-0.021-0.211l-0.038-0.01L19.742,15.102z"/>
			<linearGradient id="SVGID_8_" gradientUnits="userSpaceOnUse" x1="19.1354" y1="13.2448" x2="20.2036" y2="13.2448">
				<stop  offset="0.0112" style="stop-color:#E42227"/>
				<stop  offset="0.2571" style="stop-color:#E41D2F"/>
				<stop  offset="0.289" style="stop-color:#E4272E"/>
				<stop  offset="0.4963" style="stop-color:#E84F2A"/>
				<stop  offset="0.6088" style="stop-color:#E95B28"/>
				<stop  offset="0.6279" style="stop-color:#E95A28"/>
				<stop  offset="0.8356" style="stop-color:#E84B2A"/>
				<stop  offset="1" style="stop-color:#E7452B"/>
			</linearGradient>
			<path opacity="0.8" fill="url(#SVGID_8_)" d="M19.364,12.404c0,0.153-0.026,0.312-0.046,0.471
				c-0.024,0.15-0.048,0.295-0.052,0.453l0.152,0.568c0.081,0.098,0.192,0.162,0.324,0.198l0,0.013
				c-0.09,0.023-0.17,0.06-0.237,0.113l0.177,0.659l0.038,0.01c-0.003-0.042-0.004-0.084-0.004-0.126c0-0.198,0.062-0.47,0.487-0.49
				l-0.094-0.349c-0.341-0.048-0.394-0.275-0.394-0.481c0-0.186,0.026-0.371,0.053-0.557c0.007-0.052,0.015-0.103,0.021-0.154
				l-0.295-1.099c-0.019-0.013-0.039-0.025-0.06-0.037l-0.3,0.301C19.299,11.987,19.364,12.16,19.364,12.404z"/>
			<linearGradient id="SVGID_9_" gradientUnits="userSpaceOnUse" x1="19.1354" y1="13.2448" x2="20.2036" y2="13.2448">
				<stop  offset="0.0112" style="stop-color:#E42227"/>
				<stop  offset="0.2571" style="stop-color:#E41D2F"/>
				<stop  offset="0.289" style="stop-color:#E4272E"/>
				<stop  offset="0.4963" style="stop-color:#E84F2A"/>
				<stop  offset="0.6088" style="stop-color:#E95B28"/>
				<stop  offset="0.6279" style="stop-color:#E95A28"/>
				<stop  offset="0.8356" style="stop-color:#E84B2A"/>
				<stop  offset="1" style="stop-color:#E7452B"/>
			</linearGradient>
			<path opacity="0.8" fill="url(#SVGID_9_)" d="M19.364,12.404c0,0.153-0.026,0.312-0.046,0.471
				c-0.024,0.15-0.048,0.295-0.052,0.453l0.152,0.568c0.081,0.098,0.192,0.162,0.324,0.198l0,0.013
				c-0.09,0.023-0.17,0.06-0.237,0.113l0.177,0.659l0.038,0.01c-0.003-0.042-0.004-0.084-0.004-0.126c0-0.198,0.062-0.47,0.487-0.49
				l-0.094-0.349c-0.341-0.048-0.394-0.275-0.394-0.481c0-0.186,0.026-0.371,0.053-0.557c0.007-0.052,0.015-0.103,0.021-0.154
				l-0.295-1.099c-0.019-0.013-0.039-0.025-0.06-0.037l-0.3,0.301C19.299,11.987,19.364,12.16,19.364,12.404z"/>
			<linearGradient id="SVGID_10_" gradientUnits="userSpaceOnUse" x1="18.722" y1="16.3457" x2="19.8069" y2="16.3457">
				<stop  offset="0.0112" style="stop-color:#E42227"/>
				<stop  offset="0.2571" style="stop-color:#E41D2F"/>
				<stop  offset="0.289" style="stop-color:#E4272E"/>
				<stop  offset="0.4963" style="stop-color:#E84F2A"/>
				<stop  offset="0.6088" style="stop-color:#E95B28"/>
				<stop  offset="0.6279" style="stop-color:#E95A28"/>
				<stop  offset="0.8356" style="stop-color:#E84B2A"/>
				<stop  offset="1" style="stop-color:#E7452B"/>
			</linearGradient>
			<path opacity="0.8" fill="url(#SVGID_10_)" d="M18.835,16.39l-0.113,0l0,0.365l0.139,0c0.482,0,0.865-0.188,0.946-0.699
				l-0.449-0.12C19.325,16.228,19.163,16.384,18.835,16.39z"/>
			<linearGradient id="SVGID_11_" gradientUnits="userSpaceOnUse" x1="19.2653" y1="15.413" x2="19.8227" y2="15.413">
				<stop  offset="0.0112" style="stop-color:#E42227"/>
				<stop  offset="0.2571" style="stop-color:#E41D2F"/>
				<stop  offset="0.289" style="stop-color:#E4272E"/>
				<stop  offset="0.4963" style="stop-color:#E84F2A"/>
				<stop  offset="0.6088" style="stop-color:#E95B28"/>
				<stop  offset="0.6279" style="stop-color:#E95A28"/>
				<stop  offset="0.8356" style="stop-color:#E84B2A"/>
				<stop  offset="1" style="stop-color:#E7452B"/>
			</linearGradient>
			<path opacity="0.8" fill="url(#SVGID_11_)" d="M19.267,14.77c-0.001,0.02-0.002,0.041-0.002,0.062
				c0,0.179,0.027,0.345,0.053,0.504c0.02,0.166,0.047,0.318,0.047,0.477c0,0.043-0.002,0.084-0.007,0.123l0.449,0.12
				c0.01-0.065,0.016-0.135,0.016-0.21c0-0.179-0.027-0.365-0.053-0.544c-0.01-0.067-0.019-0.133-0.028-0.2l-0.059-0.222
				L19.267,14.77z"/>
			<linearGradient id="SVGID_12_" gradientUnits="userSpaceOnUse" x1="19.2653" y1="15.413" x2="19.8227" y2="15.413">
				<stop  offset="0.0112" style="stop-color:#E42227"/>
				<stop  offset="0.2571" style="stop-color:#E41D2F"/>
				<stop  offset="0.289" style="stop-color:#E4272E"/>
				<stop  offset="0.4963" style="stop-color:#E84F2A"/>
				<stop  offset="0.6088" style="stop-color:#E95B28"/>
				<stop  offset="0.6279" style="stop-color:#E95A28"/>
				<stop  offset="0.8356" style="stop-color:#E84B2A"/>
				<stop  offset="1" style="stop-color:#E7452B"/>
			</linearGradient>
			<path opacity="0.8" fill="url(#SVGID_12_)" d="M19.267,14.77c-0.001,0.02-0.002,0.041-0.002,0.062
				c0,0.179,0.027,0.345,0.053,0.504c0.02,0.166,0.047,0.318,0.047,0.477c0,0.043-0.002,0.084-0.007,0.123l0.449,0.12
				c0.01-0.065,0.016-0.135,0.016-0.21c0-0.179-0.027-0.365-0.053-0.544c-0.01-0.067-0.019-0.133-0.028-0.2l-0.059-0.222
				L19.267,14.77z"/>
			<linearGradient id="SVGID_13_" gradientUnits="userSpaceOnUse" x1="19.265" y1="13.6128" x2="19.4183" y2="13.6128">
				<stop  offset="0.0112" style="stop-color:#E42227"/>
				<stop  offset="0.2571" style="stop-color:#E41D2F"/>
				<stop  offset="0.289" style="stop-color:#E4272E"/>
				<stop  offset="0.4963" style="stop-color:#E84F2A"/>
				<stop  offset="0.6088" style="stop-color:#E95B28"/>
				<stop  offset="0.6279" style="stop-color:#E95A28"/>
				<stop  offset="0.8356" style="stop-color:#E84B2A"/>
				<stop  offset="1" style="stop-color:#E7452B"/>
			</linearGradient>
			<path opacity="0.8" fill="url(#SVGID_13_)" d="M19.265,13.379c0,0.232,0.056,0.4,0.153,0.518l-0.152-0.568
				C19.265,13.345,19.265,13.362,19.265,13.379z"/>
			<linearGradient id="SVGID_14_" gradientUnits="userSpaceOnUse" x1="19.265" y1="13.6128" x2="19.4183" y2="13.6128">
				<stop  offset="0.0112" style="stop-color:#E42227"/>
				<stop  offset="0.2571" style="stop-color:#E41D2F"/>
				<stop  offset="0.289" style="stop-color:#E4272E"/>
				<stop  offset="0.4963" style="stop-color:#E84F2A"/>
				<stop  offset="0.6088" style="stop-color:#E95B28"/>
				<stop  offset="0.6279" style="stop-color:#E95A28"/>
				<stop  offset="0.8356" style="stop-color:#E84B2A"/>
				<stop  offset="1" style="stop-color:#E7452B"/>
			</linearGradient>
			<path opacity="0.8" fill="url(#SVGID_14_)" d="M19.265,13.379c0,0.232,0.056,0.4,0.153,0.518l-0.152-0.568
				C19.265,13.345,19.265,13.362,19.265,13.379z"/>
			<linearGradient id="SVGID_15_" gradientUnits="userSpaceOnUse" x1="19.265" y1="13.6128" x2="19.4183" y2="13.6128">
				<stop  offset="0.0112" style="stop-color:#E42227"/>
				<stop  offset="0.2571" style="stop-color:#E41D2F"/>
				<stop  offset="0.289" style="stop-color:#E4272E"/>
				<stop  offset="0.4963" style="stop-color:#E84F2A"/>
				<stop  offset="0.6088" style="stop-color:#E95B28"/>
				<stop  offset="0.6279" style="stop-color:#E95A28"/>
				<stop  offset="0.8356" style="stop-color:#E84B2A"/>
				<stop  offset="1" style="stop-color:#E7452B"/>
			</linearGradient>
			<path opacity="0.8" fill="url(#SVGID_15_)" d="M19.265,13.379c0,0.232,0.056,0.4,0.153,0.518l-0.152-0.568
				C19.265,13.345,19.265,13.362,19.265,13.379z"/>
			<linearGradient id="SVGID_16_" gradientUnits="userSpaceOnUse" x1="19.2671" y1="14.551" x2="19.6822" y2="14.551">
				<stop  offset="0.0112" style="stop-color:#E42227"/>
				<stop  offset="0.2571" style="stop-color:#E41D2F"/>
				<stop  offset="0.289" style="stop-color:#E4272E"/>
				<stop  offset="0.4963" style="stop-color:#E84F2A"/>
				<stop  offset="0.6088" style="stop-color:#E95B28"/>
				<stop  offset="0.6279" style="stop-color:#E95A28"/>
				<stop  offset="0.8356" style="stop-color:#E84B2A"/>
				<stop  offset="1" style="stop-color:#E7452B"/>
			</linearGradient>
			<path opacity="0.8" fill="url(#SVGID_16_)" d="M19.505,14.221c-0.14,0.11-0.226,0.289-0.238,0.548l0.415,0.111L19.505,14.221z"/>
			<linearGradient id="SVGID_17_" gradientUnits="userSpaceOnUse" x1="19.2671" y1="14.551" x2="19.6822" y2="14.551">
				<stop  offset="0.0112" style="stop-color:#E42227"/>
				<stop  offset="0.2571" style="stop-color:#E41D2F"/>
				<stop  offset="0.289" style="stop-color:#E4272E"/>
				<stop  offset="0.4963" style="stop-color:#E84F2A"/>
				<stop  offset="0.6088" style="stop-color:#E95B28"/>
				<stop  offset="0.6279" style="stop-color:#E95A28"/>
				<stop  offset="0.8356" style="stop-color:#E84B2A"/>
				<stop  offset="1" style="stop-color:#E7452B"/>
			</linearGradient>
			<path opacity="0.8" fill="url(#SVGID_17_)" d="M19.505,14.221c-0.14,0.11-0.226,0.289-0.238,0.548l0.415,0.111L19.505,14.221z"/>
			<linearGradient id="SVGID_18_" gradientUnits="userSpaceOnUse" x1="19.2671" y1="14.551" x2="19.6822" y2="14.551">
				<stop  offset="0.0112" style="stop-color:#E42227"/>
				<stop  offset="0.2571" style="stop-color:#E41D2F"/>
				<stop  offset="0.289" style="stop-color:#E4272E"/>
				<stop  offset="0.4963" style="stop-color:#E84F2A"/>
				<stop  offset="0.6088" style="stop-color:#E95B28"/>
				<stop  offset="0.6279" style="stop-color:#E95A28"/>
				<stop  offset="0.8356" style="stop-color:#E84B2A"/>
				<stop  offset="1" style="stop-color:#E7452B"/>
			</linearGradient>
			<path opacity="0.8" fill="url(#SVGID_18_)" d="M19.505,14.221c-0.14,0.11-0.226,0.289-0.238,0.548l0.415,0.111L19.505,14.221z"/>
		</g>
	</g>
	<g opacity="0.8">
		<defs>
			<polygon id="SVGID_19_" opacity="0.8" points="17.084,15.084 13.393,15.085 15.953,9.085 19.645,9.084 			"/>
		</defs>
		<use xlink:href="#SVGID_19_"  overflow="visible" fill="#FFFFFF"/>
		<clipPath id="SVGID_20_">
			<use xlink:href="#SVGID_19_"  overflow="visible"/>
		</clipPath>
		<g clip-path="url(#SVGID_20_)">
			<linearGradient id="SVGID_21_" gradientUnits="userSpaceOnUse" x1="16.1753" y1="12.1479" x2="16.3185" y2="12.1479">
				<stop  offset="0.0112" style="stop-color:#E42227"/>
				<stop  offset="0.2571" style="stop-color:#E41D2F"/>
				<stop  offset="0.289" style="stop-color:#E4272E"/>
				<stop  offset="0.4963" style="stop-color:#E84F2A"/>
				<stop  offset="0.6088" style="stop-color:#E95B28"/>
				<stop  offset="0.6279" style="stop-color:#E95A28"/>
				<stop  offset="0.8356" style="stop-color:#E84B2A"/>
				<stop  offset="1" style="stop-color:#E7452B"/>
			</linearGradient>
			<path opacity="0.8" fill="url(#SVGID_21_)" d="M16.175,12.321l0-0.338c0.053,0,0.1-0.003,0.143-0.01l-0.093,0.349
				C16.209,12.322,16.193,12.321,16.175,12.321z"/>
			<linearGradient id="SVGID_22_" gradientUnits="userSpaceOnUse" x1="16.606" y1="10.2315" x2="16.9319" y2="10.2315">
				<stop  offset="0.0112" style="stop-color:#E42227"/>
				<stop  offset="0.2571" style="stop-color:#E41D2F"/>
				<stop  offset="0.289" style="stop-color:#E4272E"/>
				<stop  offset="0.4963" style="stop-color:#E84F2A"/>
				<stop  offset="0.6088" style="stop-color:#E95B28"/>
				<stop  offset="0.6279" style="stop-color:#E95A28"/>
				<stop  offset="0.8356" style="stop-color:#E84B2A"/>
				<stop  offset="1" style="stop-color:#E7452B"/>
			</linearGradient>
			<path opacity="0.8" fill="url(#SVGID_22_)" d="M16.606,10.385c0-0.335,0.122-0.564,0.326-0.703l-0.294,1.1
				C16.62,10.649,16.606,10.519,16.606,10.385z"/>
			<linearGradient id="SVGID_23_" gradientUnits="userSpaceOnUse" x1="16.9914" y1="9.7305" x2="17.7067" y2="9.7305">
				<stop  offset="0.0112" style="stop-color:#E42227"/>
				<stop  offset="0.2571" style="stop-color:#E41D2F"/>
				<stop  offset="0.289" style="stop-color:#E4272E"/>
				<stop  offset="0.4963" style="stop-color:#E84F2A"/>
				<stop  offset="0.6088" style="stop-color:#E95B28"/>
				<stop  offset="0.6279" style="stop-color:#E95A28"/>
				<stop  offset="0.8356" style="stop-color:#E84B2A"/>
				<stop  offset="1" style="stop-color:#E7452B"/>
			</linearGradient>
			<path opacity="0.8" fill="url(#SVGID_23_)" d="M17.587,9.88c-0.122,0.002-0.219,0.024-0.295,0.065l-0.301-0.3
				c0.159-0.088,0.358-0.129,0.583-0.129l0.133,0l0,0.365L17.587,9.88z"/>
			<linearGradient id="SVGID_24_" gradientUnits="userSpaceOnUse" x1="16.6876" y1="13.0379" x2="16.7469" y2="13.0379">
				<stop  offset="0.0112" style="stop-color:#E42227"/>
				<stop  offset="0.2571" style="stop-color:#E41D2F"/>
				<stop  offset="0.289" style="stop-color:#E4272E"/>
				<stop  offset="0.4963" style="stop-color:#E84F2A"/>
				<stop  offset="0.6088" style="stop-color:#E95B28"/>
				<stop  offset="0.6279" style="stop-color:#E95A28"/>
				<stop  offset="0.8356" style="stop-color:#E84B2A"/>
				<stop  offset="1" style="stop-color:#E7452B"/>
			</linearGradient>
			<path opacity="0.8" fill="url(#SVGID_24_)" d="M16.688,13.149c0.009-0.07,0.017-0.141,0.021-0.211l0.038-0.01L16.688,13.149z"/>
			<linearGradient id="SVGID_25_" gradientUnits="userSpaceOnUse" x1="16.2251" y1="11.2912" x2="17.292" y2="11.2912">
				<stop  offset="0.0112" style="stop-color:#E42227"/>
				<stop  offset="0.2571" style="stop-color:#E41D2F"/>
				<stop  offset="0.289" style="stop-color:#E4272E"/>
				<stop  offset="0.4963" style="stop-color:#E84F2A"/>
				<stop  offset="0.6088" style="stop-color:#E95B28"/>
				<stop  offset="0.6279" style="stop-color:#E95A28"/>
				<stop  offset="0.8356" style="stop-color:#E84B2A"/>
				<stop  offset="1" style="stop-color:#E7452B"/>
			</linearGradient>
			<path opacity="0.8" fill="url(#SVGID_25_)" d="M17.064,10.451c0,0.153,0.027,0.312,0.047,0.471
				c0.024,0.15,0.048,0.295,0.052,0.453l-0.152,0.569c-0.081,0.098-0.192,0.162-0.324,0.199l0,0.013
				c0.09,0.022,0.17,0.06,0.237,0.112l-0.177,0.659l-0.038,0.01c0.003-0.042,0.004-0.084,0.004-0.126
				c0-0.198-0.062-0.47-0.488-0.489l0.093-0.349c0.341-0.048,0.394-0.275,0.394-0.481c0-0.186-0.027-0.371-0.053-0.557
				c-0.007-0.052-0.015-0.103-0.022-0.154l0.294-1.1c0.019-0.013,0.039-0.025,0.06-0.037l0.301,0.3
				C17.129,10.033,17.063,10.206,17.064,10.451z"/>
			<linearGradient id="SVGID_26_" gradientUnits="userSpaceOnUse" x1="16.2251" y1="11.2912" x2="17.292" y2="11.2912">
				<stop  offset="0.0112" style="stop-color:#E42227"/>
				<stop  offset="0.2571" style="stop-color:#E41D2F"/>
				<stop  offset="0.289" style="stop-color:#E4272E"/>
				<stop  offset="0.4963" style="stop-color:#E84F2A"/>
				<stop  offset="0.6088" style="stop-color:#E95B28"/>
				<stop  offset="0.6279" style="stop-color:#E95A28"/>
				<stop  offset="0.8356" style="stop-color:#E84B2A"/>
				<stop  offset="1" style="stop-color:#E7452B"/>
			</linearGradient>
			<path opacity="0.8" fill="url(#SVGID_26_)" d="M17.064,10.451c0,0.153,0.027,0.312,0.047,0.471
				c0.024,0.15,0.048,0.295,0.052,0.453l-0.152,0.569c-0.081,0.098-0.192,0.162-0.324,0.199l0,0.013
				c0.09,0.022,0.17,0.06,0.237,0.112l-0.177,0.659l-0.038,0.01c0.003-0.042,0.004-0.084,0.004-0.126
				c0-0.198-0.062-0.47-0.488-0.489l0.093-0.349c0.341-0.048,0.394-0.275,0.394-0.481c0-0.186-0.027-0.371-0.053-0.557
				c-0.007-0.052-0.015-0.103-0.022-0.154l0.294-1.1c0.019-0.013,0.039-0.025,0.06-0.037l0.301,0.3
				C17.129,10.033,17.063,10.206,17.064,10.451z"/>
			<linearGradient id="SVGID_27_" gradientUnits="userSpaceOnUse" x1="16.6227" y1="14.3918" x2="17.708" y2="14.3918">
				<stop  offset="0.0112" style="stop-color:#E42227"/>
				<stop  offset="0.2571" style="stop-color:#E41D2F"/>
				<stop  offset="0.289" style="stop-color:#E4272E"/>
				<stop  offset="0.4963" style="stop-color:#E84F2A"/>
				<stop  offset="0.6088" style="stop-color:#E95B28"/>
				<stop  offset="0.6279" style="stop-color:#E95A28"/>
				<stop  offset="0.8356" style="stop-color:#E84B2A"/>
				<stop  offset="1" style="stop-color:#E7452B"/>
			</linearGradient>
			<path opacity="0.8" fill="url(#SVGID_27_)" d="M17.595,14.436l0.113,0l0,0.365l-0.139,0c-0.482,0-0.866-0.188-0.946-0.698
				l0.449-0.12C17.105,14.275,17.267,14.431,17.595,14.436z"/>
			<linearGradient id="SVGID_28_" gradientUnits="userSpaceOnUse" x1="16.6069" y1="13.4594" x2="17.1637" y2="13.4594">
				<stop  offset="0.0112" style="stop-color:#E42227"/>
				<stop  offset="0.2571" style="stop-color:#E41D2F"/>
				<stop  offset="0.289" style="stop-color:#E4272E"/>
				<stop  offset="0.4963" style="stop-color:#E84F2A"/>
				<stop  offset="0.6088" style="stop-color:#E95B28"/>
				<stop  offset="0.6279" style="stop-color:#E95A28"/>
				<stop  offset="0.8356" style="stop-color:#E84B2A"/>
				<stop  offset="1" style="stop-color:#E7452B"/>
			</linearGradient>
			<path opacity="0.8" fill="url(#SVGID_28_)" d="M17.162,12.816c0.001,0.02,0.002,0.041,0.002,0.062
				c0,0.179-0.026,0.345-0.053,0.504c-0.02,0.166-0.046,0.318-0.046,0.477c0,0.043,0.002,0.084,0.007,0.123l-0.449,0.12
				c-0.01-0.065-0.016-0.135-0.016-0.21c0-0.179,0.026-0.365,0.053-0.544c0.01-0.067,0.019-0.133,0.028-0.2l0.059-0.222
				L17.162,12.816z"/>
			<linearGradient id="SVGID_29_" gradientUnits="userSpaceOnUse" x1="16.6069" y1="13.4594" x2="17.1637" y2="13.4594">
				<stop  offset="0.0112" style="stop-color:#E42227"/>
				<stop  offset="0.2571" style="stop-color:#E41D2F"/>
				<stop  offset="0.289" style="stop-color:#E4272E"/>
				<stop  offset="0.4963" style="stop-color:#E84F2A"/>
				<stop  offset="0.6088" style="stop-color:#E95B28"/>
				<stop  offset="0.6279" style="stop-color:#E95A28"/>
				<stop  offset="0.8356" style="stop-color:#E84B2A"/>
				<stop  offset="1" style="stop-color:#E7452B"/>
			</linearGradient>
			<path opacity="0.8" fill="url(#SVGID_29_)" d="M17.162,12.816c0.001,0.02,0.002,0.041,0.002,0.062
				c0,0.179-0.026,0.345-0.053,0.504c-0.02,0.166-0.046,0.318-0.046,0.477c0,0.043,0.002,0.084,0.007,0.123l-0.449,0.12
				c-0.01-0.065-0.016-0.135-0.016-0.21c0-0.179,0.026-0.365,0.053-0.544c0.01-0.067,0.019-0.133,0.028-0.2l0.059-0.222
				L17.162,12.816z"/>
			<linearGradient id="SVGID_30_" gradientUnits="userSpaceOnUse" x1="17.0102" y1="11.6591" x2="17.1633" y2="11.6591">
				<stop  offset="0.0112" style="stop-color:#E42227"/>
				<stop  offset="0.2571" style="stop-color:#E41D2F"/>
				<stop  offset="0.289" style="stop-color:#E4272E"/>
				<stop  offset="0.4963" style="stop-color:#E84F2A"/>
				<stop  offset="0.6088" style="stop-color:#E95B28"/>
				<stop  offset="0.6279" style="stop-color:#E95A28"/>
				<stop  offset="0.8356" style="stop-color:#E84B2A"/>
				<stop  offset="1" style="stop-color:#E7452B"/>
			</linearGradient>
			<path opacity="0.8" fill="url(#SVGID_30_)" d="M17.163,11.426c0,0.232-0.056,0.4-0.153,0.518l0.152-0.569
				C17.163,11.392,17.163,11.408,17.163,11.426z"/>
			<linearGradient id="SVGID_31_" gradientUnits="userSpaceOnUse" x1="17.0102" y1="11.6591" x2="17.1633" y2="11.6591">
				<stop  offset="0.0112" style="stop-color:#E42227"/>
				<stop  offset="0.2571" style="stop-color:#E41D2F"/>
				<stop  offset="0.289" style="stop-color:#E4272E"/>
				<stop  offset="0.4963" style="stop-color:#E84F2A"/>
				<stop  offset="0.6088" style="stop-color:#E95B28"/>
				<stop  offset="0.6279" style="stop-color:#E95A28"/>
				<stop  offset="0.8356" style="stop-color:#E84B2A"/>
				<stop  offset="1" style="stop-color:#E7452B"/>
			</linearGradient>
			<path opacity="0.8" fill="url(#SVGID_31_)" d="M17.163,11.426c0,0.232-0.056,0.4-0.153,0.518l0.152-0.569
				C17.163,11.392,17.163,11.408,17.163,11.426z"/>
			<linearGradient id="SVGID_32_" gradientUnits="userSpaceOnUse" x1="17.0102" y1="11.6591" x2="17.1633" y2="11.6591">
				<stop  offset="0.0112" style="stop-color:#E42227"/>
				<stop  offset="0.2571" style="stop-color:#E41D2F"/>
				<stop  offset="0.289" style="stop-color:#E4272E"/>
				<stop  offset="0.4963" style="stop-color:#E84F2A"/>
				<stop  offset="0.6088" style="stop-color:#E95B28"/>
				<stop  offset="0.6279" style="stop-color:#E95A28"/>
				<stop  offset="0.8356" style="stop-color:#E84B2A"/>
				<stop  offset="1" style="stop-color:#E7452B"/>
			</linearGradient>
			<path opacity="0.8" fill="url(#SVGID_32_)" d="M17.163,11.426c0,0.232-0.056,0.4-0.153,0.518l0.152-0.569
				C17.163,11.392,17.163,11.408,17.163,11.426z"/>
			<linearGradient id="SVGID_33_" gradientUnits="userSpaceOnUse" x1="16.7469" y1="12.5974" x2="17.1619" y2="12.5974">
				<stop  offset="0.0112" style="stop-color:#E42227"/>
				<stop  offset="0.2571" style="stop-color:#E41D2F"/>
				<stop  offset="0.289" style="stop-color:#E4272E"/>
				<stop  offset="0.4963" style="stop-color:#E84F2A"/>
				<stop  offset="0.6088" style="stop-color:#E95B28"/>
				<stop  offset="0.6279" style="stop-color:#E95A28"/>
				<stop  offset="0.8356" style="stop-color:#E84B2A"/>
				<stop  offset="1" style="stop-color:#E7452B"/>
			</linearGradient>
			<path opacity="0.8" fill="url(#SVGID_33_)" d="M16.923,12.268c0.14,0.11,0.227,0.289,0.239,0.548l-0.415,0.111L16.923,12.268z"/>
			<linearGradient id="SVGID_34_" gradientUnits="userSpaceOnUse" x1="16.7469" y1="12.5974" x2="17.1619" y2="12.5974">
				<stop  offset="0.0112" style="stop-color:#E42227"/>
				<stop  offset="0.2571" style="stop-color:#E41D2F"/>
				<stop  offset="0.289" style="stop-color:#E4272E"/>
				<stop  offset="0.4963" style="stop-color:#E84F2A"/>
				<stop  offset="0.6088" style="stop-color:#E95B28"/>
				<stop  offset="0.6279" style="stop-color:#E95A28"/>
				<stop  offset="0.8356" style="stop-color:#E84B2A"/>
				<stop  offset="1" style="stop-color:#E7452B"/>
			</linearGradient>
			<path opacity="0.8" fill="url(#SVGID_34_)" d="M16.923,12.268c0.14,0.11,0.227,0.289,0.239,0.548l-0.415,0.111L16.923,12.268z"/>
			<linearGradient id="SVGID_35_" gradientUnits="userSpaceOnUse" x1="16.7469" y1="12.5974" x2="17.1619" y2="12.5974">
				<stop  offset="0.0112" style="stop-color:#E42227"/>
				<stop  offset="0.2571" style="stop-color:#E41D2F"/>
				<stop  offset="0.289" style="stop-color:#E4272E"/>
				<stop  offset="0.4963" style="stop-color:#E84F2A"/>
				<stop  offset="0.6088" style="stop-color:#E95B28"/>
				<stop  offset="0.6279" style="stop-color:#E95A28"/>
				<stop  offset="0.8356" style="stop-color:#E84B2A"/>
				<stop  offset="1" style="stop-color:#E7452B"/>
			</linearGradient>
			<path opacity="0.8" fill="url(#SVGID_35_)" d="M16.923,12.268c0.14,0.11,0.227,0.289,0.239,0.548l-0.415,0.111L16.923,12.268z"/>
		</g>
	</g>
</g>
</svg>
