<?xml version="1.0" encoding="utf-8"?>
<!-- Generator: Adobe Illustrator 17.0.0, SVG Export Plug-In . SVG Version: 6.00 Build 0)  -->
<!DOCTYPE svg PUBLIC "-//W3C//DTD SVG 1.1//EN" "http://www.w3.org/Graphics/SVG/1.1/DTD/svg11.dtd">
<svg version="1.1" id="Layer_1" xmlns="http://www.w3.org/2000/svg" xmlns:xlink="http://www.w3.org/1999/xlink" x="0px" y="0px"
	 width="140px" height="112px" viewBox="0 0 140 112" enable-background="new 0 0 140 112" xml:space="preserve">
<g>
	
		<linearGradient id="SVGID_1_" gradientUnits="userSpaceOnUse" x1="13.9288" y1="76.3942" x2="89.0755" y2="13.3386" gradientTransform="matrix(1 -2.669043e-04 2.669043e-04 1 -0.7322 0.0317)">
		<stop  offset="0.0112" style="stop-color:#E42227"/>
		<stop  offset="0.2571" style="stop-color:#E41D2F"/>
		<stop  offset="0.289" style="stop-color:#E4272E"/>
		<stop  offset="0.4963" style="stop-color:#E84F2A"/>
		<stop  offset="0.6088" style="stop-color:#E95B28"/>
		<stop  offset="0.6279" style="stop-color:#E95A28"/>
		<stop  offset="0.8356" style="stop-color:#E84B2A"/>
		<stop  offset="1" style="stop-color:#E7452B"/>
	</linearGradient>
	<polygon fill="url(#SVGID_1_)" points="57.196,78.912 15.317,78.923 44.368,10.856 86.247,10.845 	"/>
	
		<linearGradient id="SVGID_2_" gradientUnits="userSpaceOnUse" x1="52.3591" y1="98.6358" x2="127.5058" y2="35.5802" gradientTransform="matrix(1 -2.669043e-04 2.669043e-04 1 -0.7322 0.0317)">
		<stop  offset="0.0112" style="stop-color:#E42227"/>
		<stop  offset="0.2571" style="stop-color:#E41D2F"/>
		<stop  offset="0.289" style="stop-color:#E4272E"/>
		<stop  offset="0.4963" style="stop-color:#E84F2A"/>
		<stop  offset="0.6088" style="stop-color:#E95B28"/>
		<stop  offset="0.6279" style="stop-color:#E95A28"/>
		<stop  offset="0.8356" style="stop-color:#E84B2A"/>
		<stop  offset="1" style="stop-color:#E7452B"/>
	</linearGradient>
	<polygon fill="url(#SVGID_2_)" points="95.632,101.144 53.753,101.155 82.804,33.088 124.683,33.077 	"/>
	<g>
		<defs>
			<polygon id="SVGID_3_" points="95.632,101.144 53.753,101.155 82.804,33.088 124.683,33.077 			"/>
		</defs>
		<clipPath id="SVGID_4_">
			<use xlink:href="#SVGID_3_"  overflow="visible"/>
		</clipPath>
		<g clip-path="url(#SVGID_4_)">
			<path opacity="0.8" fill="#FFFFFF" d="M93.15,69.724l-0.001-3.837c-0.598,0-1.136-0.038-1.625-0.107l1.062,3.958
				C92.769,69.729,92.956,69.724,93.15,69.724z"/>
			<path opacity="0.8" fill="#FFFFFF" d="M88.254,47.756c-0.001-3.805-1.391-6.402-3.702-7.972l3.346,12.473
				C88.097,50.758,88.254,49.277,88.254,47.756z"/>
			<path opacity="0.8" fill="#FFFFFF" d="M77.118,42.041c1.385,0.024,2.487,0.276,3.35,0.738l3.408-3.41
				c-1.799-0.999-4.06-1.466-6.609-1.465l-1.505,0l0.001,4.138L77.118,42.041z"/>
			<path opacity="0.8" fill="#FFFFFF" d="M87.345,79.116c-0.102-0.799-0.189-1.598-0.238-2.397l-0.436-0.117L87.345,79.116z"/>
			<path opacity="0.8" fill="#FFFFFF" d="M83.063,48.51c0,1.73-0.3,3.536-0.525,5.342c-0.272,1.701-0.541,3.342-0.59,5.142
				l1.73,6.449c0.923,1.116,2.175,1.841,3.679,2.251l0,0.15c-1.021,0.256-1.927,0.677-2.692,1.278l2.006,7.48l0.436,0.117
				c-0.029-0.475-0.049-0.95-0.049-1.426c-0.001-2.247,0.699-5.332,5.529-5.555l-1.062-3.958c-3.873-0.547-4.47-3.12-4.471-5.458
				c-0.001-2.107,0.3-4.213,0.6-6.32c0.084-0.586,0.166-1.166,0.243-1.744l-3.346-12.473c-0.217-0.147-0.442-0.287-0.675-0.416
				l-3.408,3.41C82.323,43.771,83.062,45.737,83.063,48.51z"/>
			<path opacity="0.8" fill="#FFFFFF" d="M83.063,48.51c0,1.73-0.3,3.536-0.525,5.342c-0.272,1.701-0.541,3.342-0.59,5.142
				l1.73,6.449c0.923,1.116,2.175,1.841,3.679,2.251l0,0.15c-1.021,0.256-1.927,0.677-2.692,1.278l2.006,7.48l0.436,0.117
				c-0.029-0.475-0.049-0.95-0.049-1.426c-0.001-2.247,0.699-5.332,5.529-5.555l-1.062-3.958c-3.873-0.547-4.47-3.12-4.471-5.458
				c-0.001-2.107,0.3-4.213,0.6-6.32c0.084-0.586,0.166-1.166,0.243-1.744l-3.346-12.473c-0.217-0.147-0.442-0.287-0.675-0.416
				l-3.408,3.41C82.323,43.771,83.062,45.737,83.063,48.51z"/>
			<path opacity="0.8" fill="#FFFFFF" d="M77.056,93.728l-1.279,0l0.001,4.138l1.58,0c5.474-0.001,9.818-2.138,10.728-7.926
				l-5.09-1.362C82.616,91.891,80.776,93.661,77.056,93.728z"/>
			<path opacity="0.8" fill="#FFFFFF" d="M81.961,75.341c-0.01,0.231-0.02,0.463-0.019,0.705c0.001,2.031,0.302,3.912,0.603,5.718
				c0.226,1.881,0.528,3.611,0.528,5.417c0,0.493-0.027,0.957-0.077,1.397l5.09,1.362c0.116-0.736,0.179-1.527,0.179-2.384
				c-0.001-2.031-0.302-4.138-0.603-6.169c-0.112-0.757-0.219-1.514-0.316-2.271l-0.674-2.514L81.961,75.341z"/>
			<path opacity="0.8" fill="#FFFFFF" d="M81.961,75.341c-0.01,0.231-0.02,0.463-0.019,0.705c0.001,2.031,0.302,3.912,0.603,5.718
				c0.226,1.881,0.528,3.611,0.528,5.417c0,0.493-0.027,0.957-0.077,1.397l5.09,1.362c0.116-0.736,0.179-1.527,0.179-2.384
				c-0.001-2.031-0.302-4.138-0.603-6.169c-0.112-0.757-0.219-1.514-0.316-2.271l-0.674-2.514L81.961,75.341z"/>
			<path opacity="0.8" fill="#FFFFFF" d="M81.937,59.57c0.001,2.627,0.632,4.533,1.74,5.873l-1.73-6.449
				C81.942,59.185,81.937,59.375,81.937,59.57z"/>
			<path opacity="0.8" fill="#FFFFFF" d="M81.937,59.57c0.001,2.627,0.632,4.533,1.74,5.873l-1.73-6.449
				C81.942,59.185,81.937,59.375,81.937,59.57z"/>
			<path opacity="0.8" fill="#FFFFFF" d="M81.937,59.57c0.001,2.627,0.632,4.533,1.74,5.873l-1.73-6.449
				C81.942,59.185,81.937,59.375,81.937,59.57z"/>
			<path opacity="0.8" fill="#FFFFFF" d="M84.664,69.122c-1.591,1.248-2.569,3.277-2.703,6.219l4.709,1.26L84.664,69.122z"/>
			<path opacity="0.8" fill="#FFFFFF" d="M84.664,69.122c-1.591,1.248-2.569,3.277-2.703,6.219l4.709,1.26L84.664,69.122z"/>
			<path opacity="0.8" fill="#FFFFFF" d="M84.664,69.122c-1.591,1.248-2.569,3.277-2.703,6.219l4.709,1.26L84.664,69.122z"/>
		</g>
	</g>
	<g>
		<defs>
			<polygon id="SVGID_5_" points="57.196,78.912 15.317,78.923 44.368,10.856 86.247,10.845 			"/>
		</defs>
		<clipPath id="SVGID_6_">
			<use xlink:href="#SVGID_5_"  overflow="visible"/>
		</clipPath>
		<g clip-path="url(#SVGID_6_)">
			<path opacity="0.8" fill="#FFFFFF" d="M46.887,47.565l-0.001-3.837c0.598,0,1.136-0.039,1.625-0.108l-1.06,3.959
				C47.268,47.57,47.082,47.565,46.887,47.565z"/>
			<path opacity="0.8" fill="#FFFFFF" d="M51.771,25.595c-0.001-3.805,1.387-6.403,3.698-7.974l-3.339,12.475
				C51.93,28.597,51.772,27.115,51.771,25.595z"/>
			<path opacity="0.8" fill="#FFFFFF" d="M62.905,19.874c-1.385,0.024-2.487,0.277-3.35,0.739l-3.41-3.408
				c1.799-1,4.059-1.468,6.608-1.469l1.505,0l0.001,4.138L62.905,19.874z"/>
			<path opacity="0.8" fill="#FFFFFF" d="M52.697,56.954c0.102-0.799,0.189-1.598,0.237-2.397l0.436-0.117L52.697,56.954z"/>
			<path opacity="0.8" fill="#FFFFFF" d="M56.963,26.346c0,1.73,0.302,3.536,0.528,5.342c0.273,1.701,0.543,3.342,0.593,5.142
				l-1.726,6.45c-0.922,1.117-2.174,1.842-3.678,2.253l0,0.15c1.021,0.255,1.927,0.676,2.693,1.276l-2.002,7.481l-0.436,0.117
				c0.029-0.475,0.048-0.95,0.048-1.426c-0.001-2.247-0.702-5.331-5.532-5.552l1.06-3.959c3.873-0.549,4.469-3.123,4.468-5.461
				c-0.001-2.107-0.302-4.213-0.604-6.32c-0.084-0.586-0.167-1.166-0.244-1.743l3.339-12.475c0.217-0.148,0.442-0.287,0.675-0.416
				l3.41,3.408C57.7,21.607,56.962,23.572,56.963,26.346z"/>
			<path opacity="0.8" fill="#FFFFFF" d="M56.963,26.346c0,1.73,0.302,3.536,0.528,5.342c0.273,1.701,0.543,3.342,0.593,5.142
				l-1.726,6.45c-0.922,1.117-2.174,1.842-3.678,2.253l0,0.15c1.021,0.255,1.927,0.676,2.693,1.276l-2.002,7.481l-0.436,0.117
				c0.029-0.475,0.048-0.95,0.048-1.426c-0.001-2.247-0.702-5.331-5.532-5.552l1.06-3.959c3.873-0.549,4.469-3.123,4.468-5.461
				c-0.001-2.107-0.302-4.213-0.604-6.32c-0.084-0.586-0.167-1.166-0.244-1.743l3.339-12.475c0.217-0.148,0.442-0.287,0.675-0.416
				l3.41,3.408C57.7,21.607,56.962,23.572,56.963,26.346z"/>
			<path opacity="0.8" fill="#FFFFFF" d="M62.994,71.561l1.279,0l0.001,4.138l-1.58,0c-5.474,0.001-9.819-2.133-10.732-7.92
				l5.089-1.365C57.433,69.726,59.274,71.495,62.994,71.561z"/>
			<path opacity="0.8" fill="#FFFFFF" d="M58.079,53.176c0.011,0.231,0.02,0.463,0.02,0.705c0.001,2.031-0.3,3.912-0.6,5.718
				c-0.225,1.881-0.526,3.611-0.525,5.417c0,0.493,0.027,0.957,0.078,1.397l-5.089,1.365c-0.116-0.736-0.18-1.527-0.18-2.384
				c-0.001-2.031,0.3-4.138,0.6-6.169c0.112-0.757,0.219-1.514,0.315-2.271l0.673-2.514L58.079,53.176z"/>
			<path opacity="0.8" fill="#FFFFFF" d="M58.079,53.176c0.011,0.231,0.02,0.463,0.02,0.705c0.001,2.031-0.3,3.912-0.6,5.718
				c-0.225,1.881-0.526,3.611-0.525,5.417c0,0.493,0.027,0.957,0.078,1.397l-5.089,1.365c-0.116-0.736-0.18-1.527-0.18-2.384
				c-0.001-2.031,0.3-4.138,0.6-6.169c0.112-0.757,0.219-1.514,0.315-2.271l0.673-2.514L58.079,53.176z"/>
			<path opacity="0.8" fill="#FFFFFF" d="M58.094,37.405c0.001,2.627-0.63,4.533-1.737,5.874l1.726-6.45
				C58.089,37.02,58.094,37.21,58.094,37.405z"/>
			<path opacity="0.8" fill="#FFFFFF" d="M58.094,37.405c0.001,2.627-0.63,4.533-1.737,5.874l1.726-6.45
				C58.089,37.02,58.094,37.21,58.094,37.405z"/>
			<path opacity="0.8" fill="#FFFFFF" d="M58.094,37.405c0.001,2.627-0.63,4.533-1.737,5.874l1.726-6.45
				C58.089,37.02,58.094,37.21,58.094,37.405z"/>
			<path opacity="0.8" fill="#FFFFFF" d="M55.373,46.958c1.592,1.247,2.571,3.275,2.706,6.218l-4.709,1.263L55.373,46.958z"/>
			<path opacity="0.8" fill="#FFFFFF" d="M55.373,46.958c1.592,1.247,2.571,3.275,2.706,6.218l-4.709,1.263L55.373,46.958z"/>
			<path opacity="0.8" fill="#FFFFFF" d="M55.373,46.958c1.592,1.247,2.571,3.275,2.706,6.218l-4.709,1.263L55.373,46.958z"/>
		</g>
	</g>
</g>
</svg>
