<?xml version="1.0" encoding="utf-8"?>
<!-- Generator: Adobe Illustrator 17.0.0, SVG Export Plug-In . SVG Version: 6.00 Build 0)  -->
<!DOCTYPE svg PUBLIC "-//W3C//DTD SVG 1.1//EN" "http://www.w3.org/Graphics/SVG/1.1/DTD/svg11.dtd">
<svg version="1.1" id="Layer_1" xmlns="http://www.w3.org/2000/svg" xmlns:xlink="http://www.w3.org/1999/xlink" x="0px" y="0px"
	 width="97px" height="64.667px" viewBox="0 0 97 64.667" enable-background="new 0 0 97 64.667" xml:space="preserve">
<g>
	<polygon opacity="0.7" fill="#676767" points="14.472,48.804 14.461,6.925 82.528,15.862 82.539,57.742 	"/>
	<g>
		<path fill="#FFFFFF" d="M21.322,35.957l-0.979,0l-0.002-7.231l0.979,0L21.322,35.957z"/>
		<path fill="#FFFFFF" d="M26.94,33.596c0.035,0.09,0.07,0.18,0.104,0.27c0.034-0.094,0.069-0.184,0.106-0.27
			c0.037-0.085,0.079-0.172,0.126-0.26l2.446-4.446c0.044-0.077,0.089-0.124,0.135-0.141c0.048-0.016,0.115-0.025,0.202-0.026
			l0.722,0l0.002,7.231l-0.858,0l-0.001-5.313c0-0.071,0.002-0.146,0.005-0.227c0.003-0.081,0.009-0.163,0.016-0.247l-2.476,4.522
			c-0.084,0.151-0.202,0.227-0.353,0.227l-0.141,0c-0.151,0-0.269-0.075-0.353-0.227l-2.534-4.536
			c0.01,0.088,0.017,0.173,0.022,0.257c0.005,0.085,0.008,0.162,0.008,0.232l0.001,5.313l-0.858,0l-0.002-7.231l0.722,0
			c0.087,0,0.154,0.009,0.201,0.025c0.048,0.017,0.093,0.064,0.136,0.141l2.499,4.45C26.863,33.422,26.904,33.507,26.94,33.596z"/>
		<path fill="#FFFFFF" d="M33.618,33.249l0.001,2.704l-0.974,0l-0.002-7.231l2.134-0.001c0.457,0,0.855,0.053,1.193,0.159
			c0.338,0.106,0.618,0.256,0.84,0.451c0.222,0.195,0.388,0.43,0.497,0.706s0.164,0.584,0.164,0.923
			c0,0.337-0.059,0.645-0.176,0.924c-0.118,0.279-0.291,0.52-0.517,0.721c-0.227,0.202-0.509,0.36-0.845,0.472
			c-0.337,0.113-0.722,0.169-1.155,0.169L33.618,33.249z M33.618,32.472l1.16,0c0.279,0,0.526-0.037,0.739-0.111
			c0.214-0.074,0.393-0.177,0.537-0.311c0.145-0.132,0.254-0.292,0.328-0.476c0.074-0.185,0.111-0.388,0.111-0.611
			c0-0.461-0.142-0.82-0.427-1.079c-0.285-0.259-0.715-0.389-1.289-0.389l-1.16,0L33.618,32.472z"/>
		<path fill="#FFFFFF" d="M39.784,32.935l0.001,3.017l-0.974,0l-0.002-7.231l2.043-0.001c0.457,0,0.853,0.047,1.186,0.138
			c0.333,0.093,0.608,0.227,0.825,0.401c0.217,0.175,0.377,0.386,0.481,0.633c0.104,0.247,0.157,0.524,0.157,0.83
			c0,0.255-0.04,0.494-0.121,0.716c-0.08,0.222-0.197,0.421-0.351,0.598c-0.153,0.177-0.339,0.327-0.56,0.452
			c-0.22,0.125-0.47,0.219-0.749,0.283c0.121,0.071,0.229,0.173,0.323,0.308l2.11,2.871l-0.867,0c-0.178,0-0.31-0.069-0.394-0.207
			l-1.877-2.583c-0.058-0.08-0.12-0.139-0.186-0.174c-0.067-0.035-0.168-0.053-0.303-0.052L39.784,32.935z M39.784,32.223l1.024,0
			c0.286,0,0.537-0.035,0.754-0.104c0.218-0.069,0.399-0.166,0.545-0.293c0.146-0.127,0.256-0.277,0.33-0.452
			c0.075-0.175,0.112-0.368,0.112-0.58c0-0.431-0.142-0.756-0.427-0.974c-0.284-0.218-0.707-0.328-1.269-0.328l-1.069,0
			L39.784,32.223z"/>
		<path fill="#FFFFFF" d="M49.662,28.719l0,0.797l-3.471,0.001l0.001,2.402l2.81-0.001l0,0.767l-2.81,0.001l0.001,2.467l3.471-0.001
			l0,0.797l-4.455,0.001l-0.002-7.231L49.662,28.719z"/>
		<path fill="#FFFFFF" d="M54.774,29.848c-0.03,0.05-0.062,0.088-0.096,0.113c-0.034,0.025-0.077,0.038-0.131,0.038
			c-0.057,0-0.123-0.029-0.199-0.085c-0.076-0.057-0.172-0.121-0.288-0.19c-0.116-0.069-0.255-0.132-0.419-0.189
			c-0.163-0.057-0.361-0.086-0.592-0.086c-0.219,0-0.412,0.03-0.581,0.089s-0.309,0.139-0.421,0.24
			c-0.112,0.101-0.198,0.219-0.254,0.356c-0.057,0.136-0.086,0.283-0.086,0.441c0,0.202,0.05,0.37,0.149,0.503
			c0.099,0.133,0.231,0.246,0.394,0.34c0.163,0.094,0.348,0.176,0.555,0.245c0.206,0.069,0.418,0.14,0.636,0.215
			c0.217,0.074,0.429,0.157,0.636,0.249c0.207,0.092,0.392,0.209,0.555,0.351c0.163,0.141,0.294,0.314,0.394,0.52
			c0.099,0.204,0.149,0.457,0.149,0.756c0,0.316-0.053,0.613-0.161,0.891c-0.108,0.277-0.265,0.518-0.472,0.724
			c-0.207,0.205-0.461,0.367-0.762,0.485c-0.301,0.118-0.643,0.177-1.027,0.177c-0.467,0-0.894-0.084-1.279-0.254
			c-0.386-0.17-0.715-0.4-0.987-0.689l0.282-0.464c0.027-0.037,0.06-0.068,0.099-0.094c0.039-0.025,0.081-0.038,0.129-0.038
			c0.071,0,0.151,0.038,0.242,0.113c0.09,0.076,0.205,0.159,0.341,0.25c0.136,0.09,0.301,0.173,0.494,0.25
			c0.193,0.076,0.43,0.113,0.709,0.113c0.232,0,0.439-0.032,0.621-0.096c0.181-0.064,0.335-0.154,0.461-0.27
			c0.126-0.116,0.222-0.255,0.29-0.416c0.067-0.162,0.101-0.342,0.101-0.54c0-0.218-0.05-0.397-0.149-0.537
			c-0.099-0.14-0.23-0.256-0.391-0.351c-0.162-0.094-0.346-0.174-0.553-0.24s-0.419-0.133-0.636-0.202
			c-0.218-0.069-0.43-0.149-0.637-0.24c-0.206-0.09-0.391-0.208-0.552-0.353c-0.162-0.144-0.292-0.325-0.391-0.542
			c-0.099-0.217-0.15-0.485-0.15-0.805c0-0.255,0.05-0.503,0.149-0.742c0.098-0.239,0.242-0.451,0.431-0.636
			c0.188-0.186,0.421-0.334,0.699-0.444c0.278-0.111,0.596-0.167,0.956-0.167c0.404,0,0.772,0.064,1.105,0.192
			c0.333,0.127,0.623,0.312,0.873,0.554L54.774,29.848z"/>
		<path fill="#FFFFFF" d="M60.122,29.847c-0.03,0.05-0.062,0.088-0.096,0.113c-0.034,0.025-0.077,0.038-0.131,0.038
			c-0.057,0-0.123-0.029-0.199-0.085c-0.076-0.057-0.172-0.121-0.288-0.19c-0.116-0.069-0.255-0.132-0.419-0.189
			c-0.163-0.057-0.361-0.086-0.592-0.086c-0.219,0-0.412,0.03-0.581,0.089c-0.168,0.059-0.309,0.139-0.421,0.24
			c-0.112,0.101-0.198,0.219-0.254,0.356c-0.057,0.136-0.086,0.283-0.086,0.441c0,0.202,0.05,0.37,0.149,0.503
			c0.099,0.133,0.231,0.246,0.394,0.34c0.163,0.094,0.348,0.176,0.555,0.245c0.206,0.069,0.418,0.14,0.636,0.215
			c0.217,0.074,0.429,0.157,0.636,0.249c0.207,0.092,0.392,0.209,0.555,0.351c0.163,0.141,0.294,0.314,0.394,0.52
			c0.099,0.204,0.149,0.457,0.149,0.756c0,0.316-0.053,0.613-0.161,0.891c-0.108,0.277-0.265,0.518-0.472,0.724
			c-0.207,0.205-0.461,0.367-0.762,0.485c-0.301,0.118-0.643,0.177-1.027,0.177c-0.467,0-0.894-0.084-1.279-0.254
			c-0.386-0.17-0.715-0.4-0.987-0.689l0.282-0.464c0.027-0.037,0.06-0.068,0.099-0.094c0.039-0.025,0.081-0.038,0.129-0.038
			c0.071,0,0.151,0.038,0.242,0.113c0.09,0.076,0.205,0.159,0.341,0.25c0.136,0.09,0.301,0.173,0.494,0.25
			c0.193,0.076,0.43,0.113,0.709,0.113c0.232,0,0.439-0.032,0.621-0.096c0.181-0.064,0.335-0.154,0.461-0.27
			c0.126-0.116,0.222-0.255,0.29-0.416c0.067-0.162,0.101-0.342,0.101-0.54c0-0.218-0.05-0.397-0.149-0.537
			c-0.099-0.14-0.23-0.256-0.391-0.351c-0.162-0.094-0.346-0.174-0.553-0.24s-0.419-0.133-0.636-0.202
			c-0.218-0.069-0.43-0.149-0.637-0.24c-0.206-0.09-0.391-0.208-0.552-0.353c-0.162-0.144-0.292-0.325-0.391-0.542
			c-0.099-0.217-0.15-0.485-0.15-0.805c0-0.255,0.05-0.503,0.149-0.742c0.098-0.239,0.242-0.451,0.431-0.636
			c0.188-0.186,0.421-0.334,0.699-0.444c0.278-0.111,0.596-0.167,0.956-0.167c0.404,0,0.772,0.064,1.105,0.192
			c0.333,0.127,0.623,0.312,0.873,0.554L60.122,29.847z"/>
		<path fill="#FFFFFF" d="M64.579,35.169c0.3,0,0.567-0.051,0.802-0.152s0.435-0.242,0.598-0.424
			c0.163-0.182,0.287-0.398,0.374-0.651c0.085-0.253,0.129-0.531,0.129-0.833l-0.001-4.395l0.973,0l0.001,4.395
			c0,0.417-0.066,0.804-0.198,1.16c-0.133,0.356-0.323,0.665-0.571,0.926c-0.247,0.261-0.548,0.466-0.905,0.614
			c-0.357,0.148-0.757,0.222-1.201,0.222c-0.443,0-0.844-0.074-1.201-0.221c-0.356-0.148-0.66-0.352-0.908-0.613
			c-0.249-0.26-0.44-0.569-0.573-0.925c-0.133-0.356-0.2-0.743-0.2-1.16l-0.001-4.395l0.974,0l0.001,4.39
			c0,0.302,0.043,0.58,0.129,0.832c0.085,0.253,0.21,0.47,0.373,0.651c0.163,0.181,0.364,0.323,0.6,0.426
			C64.011,35.117,64.28,35.169,64.579,35.169z"/>
		<path fill="#FFFFFF" d="M72.815,33.584c0.035,0.09,0.07,0.18,0.104,0.27c0.034-0.094,0.069-0.184,0.106-0.27
			c0.037-0.085,0.079-0.172,0.126-0.26l2.446-4.446c0.044-0.077,0.089-0.124,0.135-0.141c0.048-0.016,0.115-0.025,0.202-0.026
			l0.722,0l0.002,7.231l-0.858,0l-0.001-5.313c0-0.071,0.002-0.146,0.005-0.227c0.003-0.081,0.009-0.163,0.016-0.247l-2.476,4.522
			c-0.084,0.151-0.202,0.227-0.353,0.227l-0.141,0c-0.151,0-0.269-0.075-0.353-0.227l-2.534-4.536
			c0.01,0.088,0.017,0.173,0.022,0.257c0.005,0.085,0.008,0.162,0.008,0.232l0.001,5.313l-0.858,0l-0.002-7.231l0.722,0
			c0.087,0,0.154,0.009,0.201,0.025c0.048,0.017,0.093,0.064,0.136,0.141l2.499,4.45C72.739,33.41,72.78,33.495,72.815,33.584z"/>
	</g>
</g>
</svg>
