<?xml version="1.0" encoding="utf-8"?>
<!-- Generator: Adobe Illustrator 17.0.0, SVG Export Plug-In . SVG Version: 6.00 Build 0)  -->
<!DOCTYPE svg PUBLIC "-//W3C//DTD SVG 1.1//EN" "http://www.w3.org/Graphics/SVG/1.1/DTD/svg11.dtd">
<svg version="1.1" id="Layer_1" xmlns="http://www.w3.org/2000/svg" xmlns:xlink="http://www.w3.org/1999/xlink" x="0px" y="0px"
	 width="397px" height="112px" viewBox="0 0 397 112" enable-background="new 0 0 397 112" xml:space="preserve">
<g>
	<g>
		<g>
			<path fill="#EE2D2F" d="M74.822,7.877l17.408,21.4v-21.4h1.959v25.872h-0.776L75.968,12.386v21.363h-1.995V7.877H74.822z"/>
			<path fill="#EE2D2F" d="M97.777,33.749V7.877h1.959v25.872H97.777z"/>
			<path fill="#EE2D2F" d="M124.573,30.164c-2.587,2.587-6.025,3.881-9.425,3.881c-8.722,0-13.268-6.098-13.305-13.084
				c-0.074-6.911,4.435-13.38,13.305-13.38c3.4,0,6.838,1.294,9.425,3.881l-1.367,1.183c-2.218-2.218-5.138-3.29-8.057-3.29
				c-7.54,0-11.42,5.322-11.383,11.532c0.074,6.061,3.918,11.31,11.383,11.31c2.92,0,5.877-1.109,8.094-3.289L124.573,30.164z"/>
			<path fill="#EE2D2F" d="M151.999,20.85c-0.037,6.801-4.361,13.343-13.046,13.343c-8.686,0-13.047-6.579-13.047-13.416
				c0-6.949,4.324-13.306,13.047-13.306C147.675,7.471,152.036,13.864,151.999,20.85z M127.864,20.813
				c0.038,5.84,3.733,11.532,11.089,11.532c7.392,0,11.125-5.692,11.125-11.532c0-5.988-3.696-11.495-11.125-11.495
				C131.523,9.318,127.827,14.715,127.864,20.813z"/>
			<path fill="#EE2D2F" d="M156.511,7.877v23.987h14.563v1.885h-16.558V7.877H156.511z"/>
			<path fill="#EE2D2F" d="M174.586,19.815h15.153v1.811h-15.153v10.201h16.336v1.922h-18.295V7.877h17.852v1.885h-15.892V19.815z"
				/>
			<path fill="#EE2D2F" d="M221.713,33.749h-2.624l-8.944-9.794h-7.059v9.794h-1.996V7.877c3.807,0,7.577,0,11.384,0
				c5.618,0,8.464,4.028,8.501,8.057c0.037,4.213-2.735,7.909-8.39,7.909L221.713,33.749z M203.085,22.07h9.166
				c4.509,0,6.505-2.55,6.542-6.173c0.037-3.03-2.033-6.172-6.32-6.172h-9.388V22.07z"/>
			<path fill="#EE2D2F" d="M243.411,33.749l-2.846-6.357h-15.449l-2.809,6.357h-2.144l11.605-25.872h2.181l11.605,25.872H243.411z
				 M239.789,25.544L232.84,9.799l-6.948,15.745H239.789z"/>
			<path fill="#EE2D2F" d="M264.517,7.877v16.077c0,13.527-19.81,13.564-19.81,0V7.877h1.959v16.077
				c0,11.125,15.893,11.088,15.893,0V7.877H264.517z"/>
			<path fill="#EE2D2F" d="M289.098,30.164c-2.587,2.587-6.025,3.881-9.425,3.881c-8.722,0-13.268-6.098-13.305-13.084
				c-0.074-6.911,4.435-13.38,13.305-13.38c3.4,0,6.838,1.294,9.425,3.881l-1.367,1.183c-2.218-2.218-5.138-3.29-8.057-3.29
				c-7.54,0-11.42,5.322-11.383,11.532c0.074,6.061,3.918,11.31,11.383,11.31c2.92,0,5.877-1.109,8.094-3.289L289.098,30.164z"/>
			<path fill="#EE2D2F" d="M310.057,33.749V21.996h-16.484v11.753h-1.996V7.877h1.996v12.307h16.484V7.877h1.995v25.872H310.057z"/>
		</g>
		<g>
			<g>
				<path fill="#010101" d="M81.428,56.604c0-4.41-7.171-2.02-7.171-6.715c0-1.707,1.252-3.699,4.211-3.699
					c1.679,0,3.472,0.654,3.472,1.195c0,0.199-0.228,0.57-0.484,0.57c-0.369,0-1.252-0.769-2.959-0.769
					c-2.419,0-3.243,1.565-3.243,2.675c0,3.785,7.17,1.422,7.17,6.687c0,2.106-1.594,3.415-4.297,3.415
					c-2.561,0-4.154-1.167-4.154-1.85c0-0.256,0.198-0.484,0.398-0.484c0.512,0,1.053,1.338,3.728,1.338
					C80.488,58.966,81.428,57.884,81.428,56.604z"/>
				<path fill="#010101" d="M95.028,51.311v3.472c0,2.704-2.362,5.179-5.065,5.179c-2.704,0-5.036-2.447-5.036-5.179v-3.472
					c0-2.731,2.276-5.122,5.036-5.122C92.666,46.189,95.028,48.494,95.028,51.311z M94.031,51.311c0-2.077-1.793-4.126-4.069-4.126
					s-4.041,2.049-4.041,4.126v3.472c0,2.134,1.793,4.184,4.041,4.184c2.249,0,4.069-2.049,4.069-4.184V51.311z"/>
				<path fill="#010101" d="M99.407,46.36h4.354c0.284,0,0.512,0.228,0.512,0.484c0,0.284-0.228,0.512-0.512,0.512h-4.354v11.952
					c0,0.284-0.256,0.484-0.54,0.484c-0.256,0-0.456-0.199-0.456-0.484V43.002c0-2.732,2.334-5.065,5.066-5.065h0.284
					c0.284,0,0.512,0.228,0.512,0.512s-0.228,0.484-0.512,0.484h-0.284c-2.305,0-4.041,1.963-4.07,4.069V46.36z"/>
				<path fill="#010101" d="M106.547,40.27c0-0.284,0.256-0.484,0.484-0.484c0.255,0,0.512,0.199,0.512,0.484v6.09h3.841
					c0.257,0,0.484,0.228,0.484,0.512c0,0.256-0.228,0.484-0.484,0.484h-3.841v8.48c0,2.163,0.825,2.959,3.158,2.959h0.655
					c0.256,0,0.484,0.2,0.484,0.484s-0.228,0.512-0.484,0.512h-0.655c-2.703,0-4.154-1.195-4.154-3.955V40.27z"/>
				<path fill="#010101" d="M130.478,46.843c0,0.114-0.085,0.341-0.114,0.398l-4.468,12.379c-0.085,0.256-0.228,0.341-0.427,0.341
					c-0.228,0-0.284-0.085-0.398-0.313l-3.329-10.671l-3.272,10.501c-0.114,0.341-0.257,0.484-0.484,0.484
					c-0.256,0-0.341-0.085-0.484-0.484l-4.44-12.236c-0.028-0.057-0.114-0.284-0.114-0.37c0-0.284,0.228-0.512,0.512-0.512
					c0.2,0,0.399,0.114,0.484,0.313l4.012,11.126l3.273-10.301c0.085-0.228,0.256-0.37,0.512-0.37c0.257,0,0.427,0.142,0.512,0.37
					l3.159,10.444l4.098-11.269c0.057-0.199,0.255-0.313,0.455-0.313C130.25,46.36,130.478,46.53,130.478,46.843z"/>
				<path fill="#010101" d="M141.23,51.653v7.626c0,0.284-0.199,0.512-0.484,0.512c-0.285,0-0.513-0.228-0.513-0.512v-1.48
					c-0.967,1.11-2.39,2.163-4.268,2.163c-2.219,0-3.955-1.195-3.955-3.756c0-3.017,2.675-3.756,6.631-3.756h1.593v-0.796
					c0-2.135-1.052-4.468-3.756-4.468c-1.764,0-2.618,0.769-2.959,0.769c-0.313,0-0.513-0.37-0.513-0.57
					c0-0.54,1.793-1.195,3.529-1.195C140.036,46.189,141.23,48.835,141.23,51.653z M140.234,53.445h-1.565
					c-2.931,0-5.663,0.284-5.663,2.76c0,1.907,1.281,2.761,2.931,2.761c2.135,0,4.297-1.907,4.297-3.13V53.445z"/>
				<path fill="#010101" d="M149.936,47.185c-1.993,0-3.956,1.537-3.956,4.126v7.968c0,0.256-0.228,0.512-0.512,0.512
					c-0.284,0-0.484-0.256-0.484-0.512V46.843c0-0.284,0.2-0.484,0.484-0.484c0.284,0,0.512,0.199,0.512,0.484v1.508
					c0.655-1.11,1.963-2.163,3.956-2.163h1.053c0.256,0,0.484,0.228,0.484,0.512c0,0.256-0.228,0.484-0.484,0.484H149.936z"/>
				<path fill="#010101" d="M162.626,51.311c0,2.077-1.139,2.135-2.362,2.135h-6.744v1.337c0,2.59,2.02,4.184,4.809,4.184
					c2.39,0,2.817-1.167,3.358-1.167c0.255,0,0.512,0.284,0.512,0.512c0,0.54-1.48,1.651-3.927,1.651
					c-3.358,0-5.749-2.077-5.749-5.179v-3.557c0-2.731,2.305-5.036,5.065-5.036C160.264,46.189,162.626,48.352,162.626,51.311z
					 M159.923,52.449c1.395,0,1.708-0.171,1.708-1.053c0-2.049-1.594-4.211-4.041-4.211c-2.305,0-4.069,1.907-4.069,4.041v1.224
					H159.923z"/>
				<path fill="#010101" d="M175.287,51.311c0,2.077-1.138,2.135-2.362,2.135h-6.744v1.337c0,2.59,2.02,4.184,4.809,4.184
					c2.39,0,2.817-1.167,3.358-1.167c0.255,0,0.512,0.284,0.512,0.512c0,0.54-1.48,1.651-3.927,1.651
					c-3.358,0-5.749-2.077-5.749-5.179v-3.557c0-2.731,2.305-5.036,5.065-5.036C172.924,46.189,175.287,48.352,175.287,51.311z
					 M172.583,52.449c1.395,0,1.708-0.171,1.708-1.053c0-2.049-1.594-4.211-4.041-4.211c-2.305,0-4.069,1.907-4.069,4.041v1.224
					H172.583z"/>
				<path fill="#010101" d="M179.325,59.279c0,0.256-0.228,0.512-0.512,0.512c-0.285,0-0.484-0.256-0.484-0.512V46.843
					c0-0.284,0.199-0.484,0.484-0.484c0.284,0,0.512,0.199,0.512,0.484v1.508c0.626-1.11,1.907-2.163,3.813-2.163
					c2.788,0,5.122,2.305,5.122,5.122v7.968c0,0.341-0.255,0.512-0.512,0.512c-0.228,0-0.484-0.171-0.484-0.512v-7.968
					c0-2.077-1.821-4.126-4.041-4.126c-1.935,0-3.898,1.537-3.898,4.126V59.279z"/>
				<path fill="#010101" d="M191.957,40.27c0-0.284,0.256-0.484,0.484-0.484c0.255,0,0.512,0.199,0.512,0.484v6.09h3.841
					c0.257,0,0.484,0.228,0.484,0.512c0,0.256-0.228,0.484-0.484,0.484h-3.841v8.48c0,2.163,0.825,2.959,3.158,2.959h0.655
					c0.256,0,0.484,0.2,0.484,0.484s-0.228,0.512-0.484,0.512h-0.655c-2.703,0-4.154-1.195-4.154-3.955V40.27z"/>
				<path fill="#010101" d="M215.887,46.843c0,0.114-0.085,0.341-0.114,0.398l-4.468,12.379c-0.085,0.256-0.228,0.341-0.427,0.341
					c-0.228,0-0.284-0.085-0.398-0.313l-3.329-10.671l-3.272,10.501c-0.114,0.341-0.257,0.484-0.484,0.484
					c-0.256,0-0.341-0.085-0.484-0.484l-4.44-12.236c-0.028-0.057-0.114-0.284-0.114-0.37c0-0.284,0.228-0.512,0.512-0.512
					c0.2,0,0.399,0.114,0.484,0.313l4.012,11.126l3.273-10.301c0.085-0.228,0.256-0.37,0.512-0.37c0.257,0,0.427,0.142,0.512,0.37
					l3.159,10.444l4.098-11.269c0.057-0.199,0.255-0.313,0.455-0.313C215.659,46.36,215.887,46.53,215.887,46.843z"/>
				<path fill="#010101" d="M219.725,41.01c0,0.484-0.399,0.91-0.882,0.91c-0.512,0-0.91-0.427-0.91-0.91
					c0-0.484,0.398-0.882,0.91-0.882C219.326,40.127,219.725,40.526,219.725,41.01z M219.355,46.843v12.436
					c0,0.256-0.228,0.512-0.512,0.512c-0.257,0-0.484-0.256-0.484-0.512V46.843c0-0.284,0.228-0.484,0.484-0.484
					C219.127,46.36,219.355,46.559,219.355,46.843z"/>
				<path fill="#010101" d="M222.768,54.782v-3.415c0-2.902,1.651-5.178,5.208-5.178c2.277,0,3.728,1.081,3.728,1.678
					c0,0.257-0.256,0.484-0.512,0.484c-0.484,0-0.968-1.167-3.216-1.167c-2.732,0-4.211,1.594-4.211,4.183v3.415
					c0,2.59,1.451,4.184,4.24,4.184c2.39,0,2.874-1.167,3.386-1.167c0.256,0,0.484,0.228,0.484,0.484
					c0,0.598-1.481,1.679-3.899,1.679C224.447,59.962,222.768,57.742,222.768,54.782z"/>
				<path fill="#010101" d="M235.685,38.42v14.74l7.683-6.687c0.086-0.057,0.171-0.114,0.284-0.114c0.257,0,0.541,0.114,0.541,0.455
					c0,0.142-0.028,0.313-0.171,0.427l-4.582,3.984l5.264,7.769c0.057,0.085,0.085,0.199,0.085,0.284
					c0,0.256-0.199,0.512-0.484,0.512c-0.142,0-0.284-0.085-0.398-0.256l-5.236-7.655l-2.988,2.618v4.781
					c0,0.256-0.228,0.512-0.512,0.512c-0.284,0-0.484-0.256-0.484-0.512V38.42c0-0.284,0.2-0.484,0.484-0.484
					C235.458,37.936,235.685,38.136,235.685,38.42z"/>
				<path fill="#010101" d="M248.346,38.42v20.859c0,0.256-0.228,0.512-0.513,0.512c-0.284,0-0.484-0.256-0.484-0.512V38.42
					c0-0.284,0.199-0.484,0.484-0.484C248.118,37.936,248.346,38.136,248.346,38.42z"/>
				<path fill="#010101" d="M252.357,54.839v-7.968c0-0.256,0.228-0.512,0.512-0.512c0.257,0,0.484,0.256,0.484,0.512v7.968
					c0,2.106,1.793,4.127,4.069,4.127c2.248,0,4.041-1.993,4.041-4.127v-7.996c0-0.256,0.228-0.484,0.513-0.484
					c0.284,0,0.483,0.228,0.483,0.484v7.996c0,2.732-2.305,5.122-5.036,5.122C254.634,59.962,252.357,57.543,252.357,54.839z"/>
				<path fill="#010101" d="M267.209,59.279c0,0.256-0.228,0.512-0.512,0.512s-0.484-0.256-0.484-0.512V46.843
					c0-0.284,0.2-0.484,0.484-0.484s0.512,0.199,0.512,0.484v1.508c0.626-1.11,1.907-2.163,3.813-2.163
					c2.789,0,5.122,2.305,5.122,5.122v7.968c0,0.341-0.256,0.512-0.513,0.512c-0.228,0-0.483-0.171-0.483-0.512v-7.968
					c0-2.077-1.822-4.126-4.041-4.126c-1.935,0-3.898,1.537-3.898,4.126V59.279z"/>
				<path fill="#010101" d="M288.121,48.238c0.484,0.683,0.712,1.651,0.712,2.618v1.281c0,2.703-1.907,4.723-4.639,4.723
					c-0.853,0-1.65-0.199-2.333-0.597c-0.569,0.256-1.138,0.626-1.138,1.366c0,2.874,8.993-0.057,8.993,5.065
					c0,2.447-2.049,3.842-5.321,3.842c-3.301,0-5.521-1.423-5.521-3.671c0-1.736,1.309-2.704,2.59-3.159
					c-1.025-0.284-1.736-0.796-1.736-2.02c0-1.053,0.54-1.565,1.394-1.963c-0.939-0.826-1.479-2.106-1.479-3.586v-1.281
					c0-2.731,1.821-4.666,4.582-4.666c1.394,0,2.561,0.512,3.386,1.365c0.512-0.967,1.423-1.736,2.134-1.736
					c0.427,0,0.598,0.284,0.598,0.57c0,0.341-0.257,0.54-0.512,0.54C289.345,46.929,288.662,47.185,288.121,48.238z M282.857,59.99
					c-1.508,0.427-2.987,1.195-2.987,2.789c0,1.679,1.651,2.845,4.525,2.845c2.817,0,4.325-1.138,4.325-2.902
					C288.719,60.018,284.679,60.246,282.857,59.99z M287.837,50.856c0-2.077-1.338-3.671-3.613-3.671
					c-2.277,0-3.586,1.594-3.586,3.671v1.252c0,2.134,1.337,3.756,3.613,3.756c2.22,0,3.586-1.594,3.586-3.728V50.856z"/>
				<path fill="#010101" d="M308.037,40.982c0,0.284-0.171,0.455-0.484,0.455c-0.54,0-0.854-2.02-3.614-2.02
					c-2.305,0-3.671,1.565-3.671,3.87c0,2.106,1.138,3.557,2.533,5.094l6.345,7.029c0.883-2.021,1.081-4.383,1.11-5.834
					c0-0.455,0.142-0.597,0.484-0.597c0.284,0,0.427,0.171,0.427,0.654c0,1.025-0.114,4.041-1.338,6.545l2.761,3.017
					c0.085,0.114,0.142,0.228,0.142,0.313c0,0.256-0.228,0.455-0.455,0.455c-0.114,0-0.228-0.057-0.341-0.171l-2.561-2.761
					c-1.11,1.736-2.874,3.045-5.634,3.045c-4.012,0-6.232-2.76-6.232-5.947c0-3.045,2.049-4.809,4.013-5.634
					c-1.167-1.395-2.448-2.988-2.448-5.293c0-3.017,2.191-4.696,4.752-4.696C306.786,38.505,308.037,40.412,308.037,40.982z
					 M308.692,56.319l-6.574-7.086c-1.423,0.769-3.557,1.963-3.557,4.781c0,2.646,1.907,5.065,5.35,5.065
					C306.331,59.08,307.782,57.913,308.692,56.319z"/>
			</g>
			<g>
				<path fill="#010101" d="M84.074,79.762c0,2.077-1.138,2.135-2.362,2.135h-6.744v1.337c0,2.59,2.02,4.184,4.809,4.184
					c2.391,0,2.817-1.167,3.358-1.167c0.257,0,0.512,0.284,0.512,0.512c0,0.54-1.479,1.651-3.927,1.651
					c-3.358,0-5.747-2.077-5.747-5.179v-3.557c0-2.731,2.305-5.036,5.065-5.036C81.712,74.64,84.074,76.803,84.074,79.762z
					 M81.371,80.9c1.394,0,1.707-0.171,1.707-1.053c0-2.049-1.593-4.211-4.041-4.211c-2.305,0-4.069,1.907-4.069,4.041V80.9H81.371z
					"/>
				<path fill="#010101" d="M88.112,87.73c0,0.256-0.228,0.512-0.512,0.512c-0.284,0-0.484-0.256-0.484-0.512V75.295
					c0-0.284,0.2-0.484,0.484-0.484c0.284,0,0.512,0.199,0.512,0.484v1.508c0.626-1.11,1.907-2.163,3.813-2.163
					c2.789,0,5.122,2.305,5.122,5.122v7.968c0,0.341-0.256,0.512-0.513,0.512c-0.228,0-0.483-0.171-0.483-0.512v-7.968
					c0-2.077-1.822-4.126-4.041-4.126c-1.935,0-3.898,1.537-3.898,4.126V87.73z"/>
				<path fill="#010101" d="M100.744,68.721c0-0.284,0.256-0.484,0.484-0.484c0.257,0,0.512,0.199,0.512,0.484v6.09h3.842
					c0.256,0,0.484,0.228,0.484,0.512c0,0.256-0.228,0.484-0.484,0.484h-3.842v8.48c0,2.163,0.826,2.959,3.159,2.959h0.654
					c0.257,0,0.484,0.2,0.484,0.484c0,0.284-0.228,0.512-0.484,0.512h-0.654c-2.704,0-4.155-1.195-4.155-3.955V68.721z"/>
				<path fill="#010101" d="M124.673,75.295c0,0.114-0.085,0.341-0.114,0.398l-4.467,12.379c-0.085,0.256-0.228,0.341-0.427,0.341
					c-0.228,0-0.284-0.085-0.398-0.313l-3.33-10.671l-3.272,10.501c-0.114,0.341-0.257,0.484-0.484,0.484
					c-0.255,0-0.341-0.085-0.483-0.484l-4.44-12.236c-0.028-0.057-0.114-0.284-0.114-0.37c0-0.284,0.228-0.512,0.512-0.512
					c0.199,0,0.399,0.114,0.484,0.313l4.013,11.126l3.272-10.301c0.086-0.228,0.257-0.37,0.512-0.37c0.257,0,0.427,0.142,0.513,0.37
					l3.159,10.444l4.098-11.269c0.057-0.199,0.256-0.313,0.455-0.313C124.446,74.811,124.673,74.982,124.673,75.295z"/>
				<path fill="#010101" d="M128.512,69.461c0,0.484-0.398,0.91-0.882,0.91c-0.513,0-0.911-0.427-0.911-0.91
					c0-0.484,0.398-0.882,0.911-0.882C128.113,68.579,128.512,68.977,128.512,69.461z M128.142,75.295V87.73
					c0,0.256-0.228,0.512-0.512,0.512c-0.256,0-0.484-0.256-0.484-0.512V75.295c0-0.284,0.228-0.484,0.484-0.484
					C127.914,74.811,128.142,75.01,128.142,75.295z"/>
				<path fill="#010101" d="M131.556,83.234v-3.415c0-2.902,1.65-5.178,5.207-5.178c2.276,0,3.728,1.081,3.728,1.678
					c0,0.257-0.256,0.484-0.512,0.484c-0.484,0-0.967-1.167-3.216-1.167c-2.731,0-4.211,1.594-4.211,4.183v3.415
					c0,2.59,1.451,4.184,4.24,4.184c2.391,0,2.874-1.167,3.386-1.167c0.256,0,0.484,0.228,0.484,0.484
					c0,0.598-1.479,1.679-3.898,1.679C133.234,88.413,131.556,86.193,131.556,83.234z"/>
				<path fill="#010101" d="M144.473,66.871v14.74l7.684-6.687c0.085-0.057,0.171-0.114,0.284-0.114c0.255,0,0.54,0.114,0.54,0.455
					c0,0.142-0.028,0.313-0.171,0.427l-4.581,3.984l5.264,7.769c0.057,0.085,0.085,0.199,0.085,0.284
					c0,0.256-0.199,0.512-0.484,0.512c-0.142,0-0.285-0.085-0.399-0.256l-5.235-7.655l-2.988,2.618v4.781
					c0,0.256-0.228,0.512-0.512,0.512c-0.285,0-0.484-0.256-0.484-0.512V66.871c0-0.284,0.198-0.484,0.484-0.484
					C144.245,66.388,144.473,66.587,144.473,66.871z"/>
				<path fill="#010101" d="M157.134,66.871V87.73c0,0.256-0.228,0.512-0.512,0.512s-0.484-0.256-0.484-0.512V66.871
					c0-0.284,0.2-0.484,0.484-0.484S157.134,66.587,157.134,66.871z"/>
				<path fill="#010101" d="M161.144,83.291v-7.968c0-0.256,0.228-0.512,0.513-0.512c0.255,0,0.483,0.256,0.483,0.512v7.968
					c0,2.106,1.793,4.127,4.07,4.127c2.248,0,4.041-1.993,4.041-4.127v-7.996c0-0.256,0.228-0.484,0.512-0.484
					c0.284,0,0.484,0.228,0.484,0.484v7.996c0,2.732-2.305,5.122-5.037,5.122C163.421,88.413,161.144,85.994,161.144,83.291z"/>
				<path fill="#010101" d="M175.996,87.73c0,0.256-0.228,0.512-0.512,0.512c-0.285,0-0.484-0.256-0.484-0.512V75.295
					c0-0.284,0.198-0.484,0.484-0.484c0.284,0,0.512,0.199,0.512,0.484v1.508c0.626-1.11,1.907-2.163,3.813-2.163
					c2.788,0,5.122,2.305,5.122,5.122v7.968c0,0.341-0.256,0.512-0.512,0.512c-0.228,0-0.484-0.171-0.484-0.512v-7.968
					c0-2.077-1.821-4.126-4.041-4.126c-1.935,0-3.898,1.537-3.898,4.126V87.73z"/>
				<path fill="#010101" d="M196.908,76.689c0.484,0.683,0.711,1.651,0.711,2.618v1.281c0,2.703-1.907,4.723-4.638,4.723
					c-0.854,0-1.651-0.199-2.333-0.597c-0.569,0.256-1.138,0.626-1.138,1.366c0,2.874,8.992-0.057,8.992,5.065
					c0,2.447-2.049,3.842-5.321,3.842c-3.301,0-5.52-1.423-5.52-3.671c0-1.736,1.309-2.704,2.59-3.159
					c-1.025-0.284-1.736-0.796-1.736-2.02c0-1.053,0.54-1.565,1.394-1.963c-0.939-0.826-1.48-2.106-1.48-3.586v-1.281
					c0-2.731,1.822-4.666,4.582-4.666c1.395,0,2.561,0.512,3.386,1.365c0.512-0.967,1.423-1.736,2.134-1.736
					c0.427,0,0.597,0.284,0.597,0.57c0,0.341-0.256,0.54-0.512,0.54C198.132,75.38,197.449,75.636,196.908,76.689z M191.644,88.441
					c-1.508,0.427-2.988,1.195-2.988,2.789c0,1.679,1.651,2.845,4.525,2.845c2.817,0,4.325-1.138,4.325-2.902
					C197.506,88.47,193.465,88.697,191.644,88.441z M196.624,79.307c0-2.077-1.338-3.671-3.614-3.671
					c-2.277,0-3.586,1.594-3.586,3.671v1.252c0,2.134,1.338,3.756,3.614,3.756c2.219,0,3.586-1.594,3.586-3.728V79.307z"/>
				<path fill="#010101" d="M207.975,85.055c0-4.41-7.17-2.02-7.17-6.715c0-1.707,1.252-3.699,4.211-3.699
					c1.679,0,3.472,0.654,3.472,1.195c0,0.199-0.228,0.57-0.484,0.57c-0.37,0-1.252-0.769-2.96-0.769
					c-2.419,0-3.244,1.565-3.244,2.675c0,3.785,7.171,1.422,7.171,6.687c0,2.106-1.593,3.415-4.297,3.415
					c-2.561,0-4.155-1.167-4.155-1.85c0-0.256,0.2-0.484,0.399-0.484c0.512,0,1.053,1.338,3.728,1.338
					C207.036,87.417,207.975,86.336,207.975,85.055z"/>
				<path fill="#010101" d="M211.53,83.234v-3.415c0-2.902,1.651-5.178,5.208-5.178c2.277,0,3.728,1.081,3.728,1.678
					c0,0.257-0.256,0.484-0.512,0.484c-0.484,0-0.968-1.167-3.216-1.167c-2.732,0-4.211,1.594-4.211,4.183v3.415
					c0,2.59,1.451,4.184,4.24,4.184c2.39,0,2.874-1.167,3.386-1.167c0.256,0,0.484,0.228,0.484,0.484
					c0,0.598-1.481,1.679-3.899,1.679C213.209,88.413,211.53,86.193,211.53,83.234z"/>
				<path fill="#010101" d="M232.814,79.762v3.472c0,2.704-2.362,5.179-5.066,5.179c-2.703,0-5.036-2.447-5.036-5.179v-3.472
					c0-2.731,2.276-5.122,5.036-5.122C230.452,74.64,232.814,76.945,232.814,79.762z M231.818,79.762
					c0-2.077-1.793-4.126-4.07-4.126c-2.276,0-4.041,2.049-4.041,4.126v3.472c0,2.134,1.793,4.184,4.041,4.184
					c2.249,0,4.07-2.049,4.07-4.184V79.762z"/>
				<path fill="#010101" d="M244.449,80.104v7.626c0,0.284-0.198,0.512-0.483,0.512c-0.285,0-0.513-0.228-0.513-0.512v-1.48
					c-0.968,1.11-2.39,2.163-4.269,2.163c-2.219,0-3.955-1.195-3.955-3.756c0-3.017,2.675-3.756,6.63-3.756h1.594v-0.796
					c0-2.135-1.053-4.468-3.756-4.468c-1.764,0-2.618,0.769-2.959,0.769c-0.314,0-0.513-0.37-0.513-0.57
					c0-0.54,1.793-1.195,3.529-1.195C243.255,74.64,244.449,77.286,244.449,80.104z M243.454,81.897h-1.565
					c-2.931,0-5.663,0.284-5.663,2.76c0,1.907,1.281,2.761,2.931,2.761c2.134,0,4.297-1.907,4.297-3.13V81.897z"/>
				<path fill="#010101" d="M247.748,83.234v-3.415c0-2.902,1.651-5.178,5.207-5.178c2.277,0,3.728,1.081,3.728,1.678
					c0,0.257-0.257,0.484-0.512,0.484c-0.484,0-0.968-1.167-3.216-1.167c-2.731,0-4.211,1.594-4.211,4.183v3.415
					c0,2.59,1.451,4.184,4.24,4.184c2.39,0,2.874-1.167,3.386-1.167c0.257,0,0.484,0.228,0.484,0.484
					c0,0.598-1.48,1.679-3.899,1.679C249.427,88.413,247.748,86.193,247.748,83.234z"/>
				<path fill="#010101" d="M260.665,87.73c0,0.256-0.228,0.512-0.512,0.512s-0.484-0.256-0.484-0.512V66.871
					c0-0.284,0.199-0.484,0.484-0.484s0.512,0.199,0.512,0.484v9.932c0.626-1.11,1.907-2.163,3.813-2.163
					c2.789,0,5.123,2.305,5.123,5.122v7.968c0,0.341-0.257,0.512-0.513,0.512c-0.228,0-0.484-0.171-0.484-0.512v-7.968
					c0-2.077-1.821-4.126-4.041-4.126c-1.936,0-3.899,1.537-3.899,4.126V87.73z"/>
				<path fill="#010101" d="M274.72,69.461c0,0.484-0.398,0.91-0.882,0.91c-0.513,0-0.911-0.427-0.911-0.91
					c0-0.484,0.398-0.882,0.911-0.882C274.322,68.579,274.72,68.977,274.72,69.461z M274.35,75.295V87.73
					c0,0.256-0.228,0.512-0.512,0.512c-0.256,0-0.484-0.256-0.484-0.512V75.295c0-0.284,0.228-0.484,0.484-0.484
					C274.122,74.811,274.35,75.01,274.35,75.295z"/>
				<path fill="#010101" d="M279.215,87.73c0,0.256-0.228,0.512-0.512,0.512c-0.285,0-0.484-0.256-0.484-0.512V75.295
					c0-0.284,0.198-0.484,0.484-0.484c0.284,0,0.512,0.199,0.512,0.484v1.508c0.626-1.11,1.907-2.163,3.813-2.163
					c2.788,0,5.122,2.305,5.122,5.122v7.968c0,0.341-0.256,0.512-0.512,0.512c-0.228,0-0.484-0.171-0.484-0.512v-7.968
					c0-2.077-1.821-4.126-4.041-4.126c-1.935,0-3.898,1.537-3.898,4.126V87.73z"/>
				<path fill="#010101" d="M300.127,76.689c0.484,0.683,0.711,1.651,0.711,2.618v1.281c0,2.703-1.907,4.723-4.638,4.723
					c-0.854,0-1.651-0.199-2.333-0.597c-0.569,0.256-1.138,0.626-1.138,1.366c0,2.874,8.992-0.057,8.992,5.065
					c0,2.447-2.049,3.842-5.321,3.842c-3.301,0-5.521-1.423-5.521-3.671c0-1.736,1.309-2.704,2.59-3.159
					c-1.025-0.284-1.736-0.796-1.736-2.02c0-1.053,0.54-1.565,1.394-1.963c-0.939-0.826-1.48-2.106-1.48-3.586v-1.281
					c0-2.731,1.822-4.666,4.582-4.666c1.395,0,2.561,0.512,3.386,1.365c0.512-0.967,1.423-1.736,2.134-1.736
					c0.427,0,0.597,0.284,0.597,0.57c0,0.341-0.256,0.54-0.512,0.54C301.351,75.38,300.668,75.636,300.127,76.689z M294.863,88.441
					c-1.508,0.427-2.988,1.195-2.988,2.789c0,1.679,1.651,2.845,4.525,2.845c2.817,0,4.325-1.138,4.325-2.902
					C300.725,88.47,296.684,88.697,294.863,88.441z M299.843,79.307c0-2.077-1.338-3.671-3.614-3.671
					c-2.277,0-3.586,1.594-3.586,3.671v1.252c0,2.134,1.338,3.756,3.614,3.756c2.219,0,3.586-1.594,3.586-3.728V79.307z"/>
			</g>
		</g>
	</g>
	<line fill="none" stroke="#4E4E4E" stroke-miterlimit="10" x1="74" y1="104.5" x2="323" y2="104.5"/>
</g>
</svg>
