<?xml version="1.0" encoding="utf-8"?>
<!-- Generator: Adobe Illustrator 17.0.0, SVG Export Plug-In . SVG Version: 6.00 Build 0)  -->
<!DOCTYPE svg PUBLIC "-//W3C//DTD SVG 1.1//EN" "http://www.w3.org/Graphics/SVG/1.1/DTD/svg11.dtd">
<svg version="1.1" id="Layer_1" xmlns="http://www.w3.org/2000/svg" xmlns:xlink="http://www.w3.org/1999/xlink" x="0px" y="0px"
	 width="397px" height="112px" viewBox="0 0 397 112" enable-background="new 0 0 397 112" xml:space="preserve">
<g>
	<g>
		<g>
			<linearGradient id="SVGID_1_" gradientUnits="userSpaceOnUse" x1="5.4947" y1="11.3985" x2="533.9795" y2="138.6775">
				<stop  offset="0.0112" style="stop-color:#E92327"/>
				<stop  offset="0.2571" style="stop-color:#E92030"/>
				<stop  offset="0.2736" style="stop-color:#E9252F"/>
				<stop  offset="0.4909" style="stop-color:#EC4F2B"/>
				<stop  offset="0.6088" style="stop-color:#EE5B29"/>
				<stop  offset="0.6177" style="stop-color:#ED5A29"/>
				<stop  offset="0.8311" style="stop-color:#EC4B2A"/>
				<stop  offset="1" style="stop-color:#EC462A"/>
			</linearGradient>
			<path fill="url(#SVGID_1_)" d="M59.662,23.51l1.525,0c0.614,0,1.123-0.085,1.527-0.255c0.404-0.17,0.751-0.441,1.041-0.814
				l9.663-12.263c0.404-0.518,0.828-0.878,1.272-1.081c0.443-0.203,1.005-0.304,1.683-0.304l5.621-0.002L70.199,23.386
				c-0.371,0.454-0.727,0.835-1.066,1.141c-0.339,0.308-0.702,0.559-1.09,0.753c0.533,0.194,1.014,0.469,1.442,0.824
				c0.428,0.356,0.844,0.81,1.248,1.36l12.166,16.434l-5.766,0.002c-0.774,0-1.353-0.109-1.732-0.328
				c-0.38-0.218-0.699-0.538-0.958-0.959l-9.911-12.962c-0.323-0.421-0.686-0.725-1.09-0.911c-0.404-0.186-0.978-0.279-1.721-0.279
				l-2.058,0.001l0.004,15.442l-6.517,0.002L53.142,8.774l6.517-0.002L59.662,23.51z"/>
			<linearGradient id="SVGID_2_" gradientUnits="userSpaceOnUse" x1="5.8956" y1="9.7339" x2="534.3804" y2="137.0129">
				<stop  offset="0.0112" style="stop-color:#E92327"/>
				<stop  offset="0.2571" style="stop-color:#E92030"/>
				<stop  offset="0.2736" style="stop-color:#E9252F"/>
				<stop  offset="0.4909" style="stop-color:#EC4F2B"/>
				<stop  offset="0.6088" style="stop-color:#EE5B29"/>
				<stop  offset="0.6177" style="stop-color:#ED5A29"/>
				<stop  offset="0.8311" style="stop-color:#EC4B2A"/>
				<stop  offset="1" style="stop-color:#EC462A"/>
			</linearGradient>
			<path fill="url(#SVGID_2_)" d="M95.974,18.596c1.858,0,3.541,0.299,5.052,0.897c1.51,0.598,2.798,1.448,3.865,2.548
				c1.066,1.101,1.89,2.443,2.471,4.03c0.582,1.586,0.873,3.358,0.874,5.317c0.001,1.975-0.289,3.755-0.871,5.341
				c-0.58,1.587-1.403,2.939-2.469,4.056c-1.066,1.117-2.354,1.975-3.863,2.575c-1.511,0.599-3.194,0.899-5.051,0.9
				c-1.856,0-3.546-0.299-5.063-0.897c-1.519-0.599-2.814-1.457-3.888-2.573c-1.074-1.116-1.907-2.468-2.496-4.054
				c-0.59-1.586-0.886-3.366-0.886-5.341c-0.001-1.959,0.294-3.731,0.883-5.318c0.588-1.587,1.42-2.93,2.494-4.031
				c1.074-1.101,2.368-1.952,3.887-2.551C92.428,18.897,94.117,18.597,95.974,18.596z M95.979,39.647
				c2.068-0.001,3.597-0.696,4.591-2.089c0.993-1.392,1.49-3.432,1.489-6.119c-0.001-2.687-0.498-4.735-1.492-6.143
				c-0.994-1.407-2.524-2.111-4.592-2.111c-2.099,0.001-3.649,0.709-4.65,2.126c-1.001,1.417-1.501,3.46-1.5,6.131
				c0.001,2.671,0.501,4.706,1.503,6.106C92.33,38.948,93.88,39.648,95.979,39.647z"/>
			<linearGradient id="SVGID_3_" gradientUnits="userSpaceOnUse" x1="7.265" y1="4.0477" x2="535.7498" y2="131.3268">
				<stop  offset="0.0112" style="stop-color:#E92327"/>
				<stop  offset="0.2571" style="stop-color:#E92030"/>
				<stop  offset="0.2736" style="stop-color:#E9252F"/>
				<stop  offset="0.4909" style="stop-color:#EC4F2B"/>
				<stop  offset="0.6088" style="stop-color:#EE5B29"/>
				<stop  offset="0.6177" style="stop-color:#ED5A29"/>
				<stop  offset="0.8311" style="stop-color:#EC4B2A"/>
				<stop  offset="1" style="stop-color:#EC462A"/>
			</linearGradient>
			<path fill="url(#SVGID_3_)" d="M112.915,43.891l-0.007-24.911l3.657-0.001c0.774,0,1.284,0.364,1.527,1.093l0.412,1.967
				c0.5-0.518,1.028-0.988,1.586-1.409c0.557-0.421,1.146-0.785,1.768-1.093c0.621-0.307,1.288-0.542,1.998-0.704
				c0.711-0.162,1.486-0.243,2.326-0.244c1.356,0,2.56,0.23,3.609,0.691c1.051,0.461,1.928,1.108,2.63,1.942
				c0.702,0.834,1.235,1.829,1.6,2.986c0.363,1.158,0.545,2.433,0.545,3.824l0.004,15.854l-5.984,0.002l-0.004-15.854
				c0-1.522-0.351-2.699-1.054-3.533c-0.702-0.833-1.756-1.25-3.161-1.25c-1.035,0-2.003,0.236-2.907,0.705
				c-0.905,0.47-1.761,1.109-2.569,1.919l0.005,18.016L112.915,43.891z"/>
			<linearGradient id="SVGID_4_" gradientUnits="userSpaceOnUse" x1="9.9145" y1="-6.9533" x2="538.3993" y2="120.3257">
				<stop  offset="0.0112" style="stop-color:#E92327"/>
				<stop  offset="0.2571" style="stop-color:#E92030"/>
				<stop  offset="0.2736" style="stop-color:#E9252F"/>
				<stop  offset="0.4909" style="stop-color:#EC4F2B"/>
				<stop  offset="0.6088" style="stop-color:#EE5B29"/>
				<stop  offset="0.6177" style="stop-color:#ED5A29"/>
				<stop  offset="0.8311" style="stop-color:#EC4B2A"/>
				<stop  offset="1" style="stop-color:#EC462A"/>
			</linearGradient>
			<path fill="url(#SVGID_4_)" d="M141.523,43.884l-0.005-20.395l-2.156-0.339c-0.468-0.08-0.844-0.243-1.126-0.485
				c-0.282-0.243-0.424-0.583-0.425-1.02l-0.001-2.452l3.706-0.001l0-1.845c0-1.424,0.214-2.703,0.641-3.836
				c0.429-1.133,1.042-2.096,1.841-2.89c0.799-0.794,1.771-1.4,2.919-1.822c1.146-0.421,2.438-0.632,3.875-0.633
				c1.147,0,2.213,0.153,3.199,0.46l-0.121,3.011c-0.033,0.469-0.251,0.761-0.654,0.874c-0.404,0.114-0.872,0.171-1.405,0.171
				c-0.71,0-1.344,0.077-1.9,0.231c-0.558,0.155-1.03,0.421-1.418,0.802c-0.388,0.381-0.683,0.883-0.884,1.506
				c-0.202,0.624-0.302,1.397-0.302,2.319l0,1.651l6.47-0.002l0.001,4.273l-6.276,0.002l0.005,20.42L141.523,43.884z"/>
			<linearGradient id="SVGID_5_" gradientUnits="userSpaceOnUse" x1="9.8371" y1="-6.6321" x2="538.322" y2="120.647">
				<stop  offset="0.0112" style="stop-color:#E92327"/>
				<stop  offset="0.2571" style="stop-color:#E92030"/>
				<stop  offset="0.2736" style="stop-color:#E9252F"/>
				<stop  offset="0.4909" style="stop-color:#EC4F2B"/>
				<stop  offset="0.6088" style="stop-color:#EE5B29"/>
				<stop  offset="0.6177" style="stop-color:#ED5A29"/>
				<stop  offset="0.8311" style="stop-color:#EC4B2A"/>
				<stop  offset="1" style="stop-color:#EC462A"/>
			</linearGradient>
			<path fill="url(#SVGID_5_)" d="M167.705,18.577c1.566,0,3.008,0.25,4.325,0.751c1.315,0.502,2.451,1.234,3.404,2.197
				s1.696,2.144,2.229,3.544c0.533,1.4,0.8,2.998,0.801,4.795c0,0.453-0.02,0.83-0.06,1.128c-0.041,0.3-0.113,0.535-0.219,0.704
				c-0.104,0.17-0.246,0.292-0.423,0.364c-0.178,0.073-0.405,0.11-0.68,0.11l-15.358,0.004c0.179,2.557,0.865,4.435,2.061,5.632
				s2.778,1.796,4.748,1.795c0.97,0,1.806-0.113,2.508-0.341c0.703-0.227,1.317-0.477,1.842-0.753
				c0.524-0.275,0.984-0.526,1.38-0.753c0.396-0.226,0.779-0.34,1.151-0.34c0.241,0,0.451,0.049,0.629,0.146
				c0.178,0.097,0.331,0.235,0.461,0.412l1.745,2.185c-0.662,0.778-1.405,1.429-2.228,1.955c-0.825,0.526-1.684,0.948-2.58,1.263
				c-0.897,0.316-1.809,0.538-2.738,0.669c-0.929,0.13-1.829,0.194-2.702,0.195c-1.727,0-3.334-0.287-4.82-0.861
				c-1.486-0.574-2.779-1.423-3.877-2.548c-1.098-1.124-1.963-2.517-2.592-4.176c-0.631-1.659-0.946-3.581-0.946-5.766
				c0-1.699,0.274-3.298,0.822-4.796c0.548-1.497,1.335-2.801,2.362-3.91c1.025-1.109,2.275-1.988,3.753-2.636
				S165.847,18.578,167.705,18.577z M167.828,22.874c-1.744,0-3.108,0.495-4.094,1.482c-0.985,0.988-1.614,2.388-1.888,4.201
				l11.24-0.003c0-0.777-0.106-1.509-0.316-2.197c-0.21-0.688-0.533-1.291-0.969-1.809c-0.435-0.518-0.986-0.926-1.647-1.226
				C169.491,23.024,168.715,22.874,167.828,22.874z"/>
			<linearGradient id="SVGID_6_" gradientUnits="userSpaceOnUse" x1="11.1133" y1="-11.9311" x2="539.5981" y2="115.348">
				<stop  offset="0.0112" style="stop-color:#E92327"/>
				<stop  offset="0.2571" style="stop-color:#E92030"/>
				<stop  offset="0.2736" style="stop-color:#E9252F"/>
				<stop  offset="0.4909" style="stop-color:#EC4F2B"/>
				<stop  offset="0.6088" style="stop-color:#EE5B29"/>
				<stop  offset="0.6177" style="stop-color:#ED5A29"/>
				<stop  offset="0.8311" style="stop-color:#EC4B2A"/>
				<stop  offset="1" style="stop-color:#EC462A"/>
			</linearGradient>
			<path fill="url(#SVGID_6_)" d="M183.337,43.873l-0.007-24.911l3.512-0.001c0.614,0,1.041,0.113,1.284,0.34
				c0.241,0.227,0.404,0.616,0.485,1.165l0.364,3.011c0.888-1.538,1.93-2.752,3.125-3.643s2.534-1.337,4.021-1.337
				c1.227,0,2.244,0.283,3.052,0.849l-0.775,4.492c-0.047,0.291-0.153,0.498-0.314,0.619c-0.162,0.121-0.38,0.182-0.654,0.182
				c-0.243,0-0.574-0.057-0.994-0.17c-0.42-0.113-0.976-0.169-1.672-0.169c-1.243,0-2.309,0.344-3.197,1.032
				c-0.888,0.689-1.64,1.697-2.253,3.024l0.004,15.515L183.337,43.873z"/>
			<linearGradient id="SVGID_7_" gradientUnits="userSpaceOnUse" x1="12.3446" y1="-17.0436" x2="540.8294" y2="110.2354">
				<stop  offset="0.0112" style="stop-color:#E92327"/>
				<stop  offset="0.2571" style="stop-color:#E92030"/>
				<stop  offset="0.2736" style="stop-color:#E9252F"/>
				<stop  offset="0.4909" style="stop-color:#EC4F2B"/>
				<stop  offset="0.6088" style="stop-color:#EE5B29"/>
				<stop  offset="0.6177" style="stop-color:#ED5A29"/>
				<stop  offset="0.8311" style="stop-color:#EC4B2A"/>
				<stop  offset="1" style="stop-color:#EC462A"/>
			</linearGradient>
			<path fill="url(#SVGID_7_)" d="M213.392,18.565c1.566,0,3.008,0.25,4.325,0.751c1.316,0.502,2.451,1.234,3.404,2.197
				c0.953,0.963,1.696,2.144,2.229,3.544c0.533,1.4,0.8,2.998,0.801,4.795c0,0.453-0.02,0.83-0.06,1.128
				c-0.041,0.3-0.113,0.535-0.219,0.704c-0.104,0.17-0.246,0.292-0.423,0.364c-0.178,0.073-0.405,0.11-0.68,0.11l-15.358,0.004
				c0.179,2.557,0.865,4.435,2.061,5.632s2.778,1.796,4.748,1.795c0.97,0,1.806-0.113,2.508-0.341
				c0.703-0.227,1.317-0.477,1.842-0.753c0.524-0.275,0.984-0.526,1.38-0.753c0.396-0.226,0.779-0.34,1.151-0.34
				c0.241,0,0.451,0.049,0.629,0.146c0.178,0.097,0.331,0.235,0.461,0.412l1.745,2.185c-0.662,0.778-1.405,1.429-2.228,1.955
				c-0.825,0.526-1.684,0.948-2.58,1.263c-0.897,0.316-1.809,0.538-2.738,0.669c-0.929,0.13-1.829,0.194-2.702,0.195
				c-1.727,0-3.334-0.287-4.82-0.861c-1.486-0.574-2.779-1.423-3.877-2.548c-1.098-1.124-1.963-2.517-2.592-4.176
				c-0.631-1.659-0.946-3.581-0.946-5.766c0-1.699,0.274-3.298,0.822-4.796c0.548-1.497,1.335-2.801,2.362-3.91
				c1.025-1.109,2.275-1.988,3.753-2.636C209.867,18.889,211.534,18.566,213.392,18.565z M213.515,22.862
				c-1.744,0-3.108,0.495-4.094,1.482c-0.985,0.988-1.614,2.388-1.888,4.201l11.24-0.003c0-0.777-0.106-1.509-0.316-2.197
				c-0.21-0.688-0.533-1.291-0.969-1.809c-0.435-0.518-0.986-0.926-1.647-1.226C215.179,23.011,214.403,22.862,213.515,22.862z"/>
			<linearGradient id="SVGID_8_" gradientUnits="userSpaceOnUse" x1="13.6375" y1="-22.4121" x2="542.1223" y2="104.867">
				<stop  offset="0.0112" style="stop-color:#E92327"/>
				<stop  offset="0.2571" style="stop-color:#E92030"/>
				<stop  offset="0.2736" style="stop-color:#E9252F"/>
				<stop  offset="0.4909" style="stop-color:#EC4F2B"/>
				<stop  offset="0.6088" style="stop-color:#EE5B29"/>
				<stop  offset="0.6177" style="stop-color:#ED5A29"/>
				<stop  offset="0.8311" style="stop-color:#EC4B2A"/>
				<stop  offset="1" style="stop-color:#EC462A"/>
			</linearGradient>
			<path fill="url(#SVGID_8_)" d="M229.024,43.86l-0.007-24.911l3.657-0.001c0.774,0,1.284,0.364,1.527,1.093l0.412,1.967
				c0.5-0.518,1.028-0.988,1.586-1.409c0.557-0.421,1.146-0.785,1.768-1.093c0.621-0.307,1.288-0.542,1.998-0.704
				c0.711-0.162,1.486-0.243,2.326-0.244c1.356,0,2.56,0.23,3.609,0.691c1.051,0.461,1.928,1.108,2.63,1.942
				c0.702,0.834,1.235,1.829,1.6,2.986c0.363,1.158,0.545,2.433,0.545,3.824l0.004,15.854l-5.984,0.002l-0.004-15.854
				c0-1.522-0.351-2.699-1.054-3.533c-0.702-0.833-1.756-1.25-3.161-1.25c-1.035,0-2.003,0.236-2.907,0.705
				c-0.905,0.47-1.761,1.109-2.569,1.919l0.005,18.016L229.024,43.86z"/>
			<linearGradient id="SVGID_9_" gradientUnits="userSpaceOnUse" x1="15.1567" y1="-28.7198" x2="543.6415" y2="98.5593">
				<stop  offset="0.0112" style="stop-color:#E92327"/>
				<stop  offset="0.2571" style="stop-color:#E92030"/>
				<stop  offset="0.2736" style="stop-color:#E9252F"/>
				<stop  offset="0.4909" style="stop-color:#EC4F2B"/>
				<stop  offset="0.6088" style="stop-color:#EE5B29"/>
				<stop  offset="0.6177" style="stop-color:#ED5A29"/>
				<stop  offset="0.8311" style="stop-color:#EC4B2A"/>
				<stop  offset="1" style="stop-color:#EC462A"/>
			</linearGradient>
			<path fill="url(#SVGID_9_)" d="M274.537,21.414c0,0.421-0.077,0.83-0.23,1.226c-0.154,0.397-0.336,0.733-0.545,1.007
				l-11.818,15.591l12.259-0.003l0.001,4.613l-19.211,0.005l-0.001-2.501c0-0.275,0.065-0.603,0.194-0.983
				c0.129-0.38,0.331-0.741,0.605-1.081l11.914-15.761l-12.015,0.003l-0.001-4.589l18.847-0.005L274.537,21.414z"/>
			<linearGradient id="SVGID_10_" gradientUnits="userSpaceOnUse" x1="16.526" y1="-34.4056" x2="545.0108" y2="92.8735">
				<stop  offset="0.0112" style="stop-color:#E92327"/>
				<stop  offset="0.2571" style="stop-color:#E92030"/>
				<stop  offset="0.2736" style="stop-color:#E9252F"/>
				<stop  offset="0.4909" style="stop-color:#EC4F2B"/>
				<stop  offset="0.6088" style="stop-color:#EE5B29"/>
				<stop  offset="0.6177" style="stop-color:#ED5A29"/>
				<stop  offset="0.8311" style="stop-color:#EC4B2A"/>
				<stop  offset="1" style="stop-color:#EC462A"/>
			</linearGradient>
			<path fill="url(#SVGID_10_)" d="M289.579,18.545c1.566,0,3.008,0.25,4.325,0.751c1.315,0.502,2.451,1.234,3.404,2.197
				c0.953,0.963,1.696,2.144,2.229,3.544c0.533,1.4,0.8,2.998,0.801,4.795c0,0.453-0.02,0.83-0.06,1.128
				c-0.041,0.3-0.113,0.535-0.219,0.704c-0.104,0.17-0.246,0.292-0.423,0.364c-0.178,0.073-0.405,0.11-0.68,0.11l-15.358,0.004
				c0.179,2.557,0.865,4.435,2.061,5.632c1.196,1.198,2.778,1.796,4.748,1.795c0.97,0,1.806-0.113,2.508-0.341
				c0.703-0.227,1.317-0.477,1.842-0.753c0.524-0.275,0.984-0.526,1.38-0.753c0.396-0.226,0.779-0.34,1.151-0.34
				c0.241,0,0.451,0.049,0.629,0.146c0.178,0.097,0.331,0.235,0.461,0.412l1.745,2.185c-0.662,0.778-1.405,1.429-2.228,1.955
				c-0.825,0.526-1.684,0.948-2.58,1.263c-0.897,0.316-1.809,0.538-2.738,0.669c-0.929,0.13-1.829,0.194-2.702,0.195
				c-1.727,0-3.334-0.287-4.82-0.861c-1.486-0.574-2.779-1.423-3.877-2.548c-1.098-1.124-1.963-2.517-2.592-4.176
				c-0.631-1.659-0.946-3.581-0.946-5.766c0-1.699,0.274-3.298,0.822-4.796c0.548-1.497,1.335-2.801,2.362-3.91
				c1.025-1.109,2.275-1.988,3.753-2.636C286.054,18.869,287.721,18.545,289.579,18.545z M289.702,22.842
				c-1.744,0-3.108,0.495-4.094,1.482c-0.985,0.988-1.614,2.388-1.888,4.201l11.24-0.003c0-0.777-0.106-1.509-0.316-2.197
				c-0.21-0.688-0.533-1.291-0.969-1.809c-0.435-0.518-0.986-0.926-1.647-1.226C291.366,22.991,290.59,22.842,289.702,22.842z"/>
			<linearGradient id="SVGID_11_" gradientUnits="userSpaceOnUse" x1="17.819" y1="-39.7743" x2="546.3038" y2="87.5047">
				<stop  offset="0.0112" style="stop-color:#E92327"/>
				<stop  offset="0.2571" style="stop-color:#E92030"/>
				<stop  offset="0.2736" style="stop-color:#E9252F"/>
				<stop  offset="0.4909" style="stop-color:#EC4F2B"/>
				<stop  offset="0.6088" style="stop-color:#EE5B29"/>
				<stop  offset="0.6177" style="stop-color:#ED5A29"/>
				<stop  offset="0.8311" style="stop-color:#EC4B2A"/>
				<stop  offset="1" style="stop-color:#EC462A"/>
			</linearGradient>
			<path fill="url(#SVGID_11_)" d="M305.212,43.84l-0.007-24.911l3.657-0.001c0.774,0,1.284,0.364,1.527,1.093l0.412,1.967
				c0.5-0.518,1.028-0.988,1.586-1.409c0.557-0.421,1.146-0.785,1.768-1.093c0.621-0.307,1.288-0.542,1.998-0.704
				c0.711-0.162,1.486-0.243,2.326-0.244c1.356,0,2.56,0.23,3.609,0.691c1.051,0.461,1.928,1.108,2.63,1.942
				c0.702,0.834,1.235,1.829,1.6,2.986c0.363,1.158,0.545,2.433,0.545,3.824l0.004,15.854l-5.984,0.002l-0.004-15.854
				c0-1.522-0.351-2.699-1.055-3.533c-0.702-0.833-1.756-1.25-3.161-1.25c-1.035,0-2.003,0.236-2.907,0.705
				c-0.905,0.47-1.761,1.109-2.569,1.919l0.005,18.016L305.212,43.84z"/>
		</g>
		<linearGradient id="SVGID_12_" gradientUnits="userSpaceOnUse" x1="17.5814" y1="-38.7875" x2="546.0662" y2="88.4916">
			<stop  offset="0.0112" style="stop-color:#E92327"/>
			<stop  offset="0.2571" style="stop-color:#E92030"/>
			<stop  offset="0.2736" style="stop-color:#E9252F"/>
			<stop  offset="0.4909" style="stop-color:#EC4F2B"/>
			<stop  offset="0.6088" style="stop-color:#EE5B29"/>
			<stop  offset="0.6177" style="stop-color:#ED5A29"/>
			<stop  offset="0.8311" style="stop-color:#EC4B2A"/>
			<stop  offset="1" style="stop-color:#EC462A"/>
		</linearGradient>
		<rect x="335.916" y="34.865" fill="url(#SVGID_12_)" width="7.941" height="7.941"/>
	</g>
	<g>
		<linearGradient id="SVGID_13_" gradientUnits="userSpaceOnUse" x1="55.3982" y1="68.3407" x2="583.883" y2="195.6198">
			<stop  offset="0.0112" style="stop-color:#E92327"/>
			<stop  offset="0.2571" style="stop-color:#E92030"/>
			<stop  offset="0.2736" style="stop-color:#E9252F"/>
			<stop  offset="0.4909" style="stop-color:#EC4F2B"/>
			<stop  offset="0.6088" style="stop-color:#EE5B29"/>
			<stop  offset="0.6177" style="stop-color:#ED5A29"/>
			<stop  offset="0.8311" style="stop-color:#EC4B2A"/>
			<stop  offset="1" style="stop-color:#EC462A"/>
		</linearGradient>
		<path opacity="0.8" fill="url(#SVGID_13_)" d="M204.173,103.832l-10.357,0.003c0-1.615-0.105-3.067-0.292-4.386l10.686,2.86
			C204.188,102.802,204.173,103.306,204.173,103.832z"/>
		<linearGradient id="SVGID_14_" gradientUnits="userSpaceOnUse" x1="55.6529" y1="67.2832" x2="584.1377" y2="194.5623">
			<stop  offset="0.0112" style="stop-color:#E92327"/>
			<stop  offset="0.2571" style="stop-color:#E92030"/>
			<stop  offset="0.2736" style="stop-color:#E9252F"/>
			<stop  offset="0.4909" style="stop-color:#EC4F2B"/>
			<stop  offset="0.6088" style="stop-color:#EE5B29"/>
			<stop  offset="0.6177" style="stop-color:#ED5A29"/>
			<stop  offset="0.8311" style="stop-color:#EC4B2A"/>
			<stop  offset="1" style="stop-color:#EC462A"/>
		</linearGradient>
		<path opacity="0.8" fill="url(#SVGID_14_)" d="M144.87,90.647c-10.271,0.003-17.283-3.745-21.523-9.982l33.672,9.013
			C152.974,90.22,148.975,90.646,144.87,90.647z"/>
		<linearGradient id="SVGID_15_" gradientUnits="userSpaceOnUse" x1="59.3615" y1="51.8846" x2="587.8463" y2="179.1636">
			<stop  offset="0.0112" style="stop-color:#E92327"/>
			<stop  offset="0.2571" style="stop-color:#E92030"/>
			<stop  offset="0.2736" style="stop-color:#E9252F"/>
			<stop  offset="0.4909" style="stop-color:#EC4F2B"/>
			<stop  offset="0.6088" style="stop-color:#EE5B29"/>
			<stop  offset="0.6177" style="stop-color:#ED5A29"/>
			<stop  offset="0.8311" style="stop-color:#EC4B2A"/>
			<stop  offset="1" style="stop-color:#EC462A"/>
		</linearGradient>
		<path opacity="0.8" fill="url(#SVGID_15_)" d="M129.428,60.596c0.065,3.738,0.749,6.714,1.996,9.042l-9.2,9.205
			c-2.698-4.855-3.963-10.957-3.965-17.838l-0.001-4.062l11.169-0.003L129.428,60.596z"/>
		<linearGradient id="SVGID_16_" gradientUnits="userSpaceOnUse" x1="60.3512" y1="47.7751" x2="588.836" y2="175.0542">
			<stop  offset="0.0112" style="stop-color:#E92327"/>
			<stop  offset="0.2571" style="stop-color:#E92030"/>
			<stop  offset="0.2736" style="stop-color:#E9252F"/>
			<stop  offset="0.4909" style="stop-color:#EC4F2B"/>
			<stop  offset="0.6088" style="stop-color:#EE5B29"/>
			<stop  offset="0.6177" style="stop-color:#ED5A29"/>
			<stop  offset="0.8311" style="stop-color:#EC4B2A"/>
			<stop  offset="1" style="stop-color:#EC462A"/>
		</linearGradient>
		<path opacity="0.8" fill="url(#SVGID_16_)" d="M229.516,88.148c-2.157-0.275-4.314-0.509-6.471-0.64l-0.315-1.176L229.516,88.148z
			"/>
		<linearGradient id="SVGID_17_" gradientUnits="userSpaceOnUse" x1="58.2954" y1="56.3112" x2="586.7802" y2="183.5902">
			<stop  offset="0.0112" style="stop-color:#E92327"/>
			<stop  offset="0.2571" style="stop-color:#E92030"/>
			<stop  offset="0.2736" style="stop-color:#E9252F"/>
			<stop  offset="0.4909" style="stop-color:#EC4F2B"/>
			<stop  offset="0.6088" style="stop-color:#EE5B29"/>
			<stop  offset="0.6177" style="stop-color:#ED5A29"/>
			<stop  offset="0.8311" style="stop-color:#EC4B2A"/>
			<stop  offset="1" style="stop-color:#EC462A"/>
		</linearGradient>
		<path opacity="0.8" fill="url(#SVGID_17_)" d="M146.897,76.634c4.671-0.001,9.544-0.815,14.418-1.425
			c4.591-0.736,9.02-1.465,13.88-1.6l17.409,4.66c3.014,2.489,4.973,5.868,6.082,9.928l0.406,0c0.689-2.757,1.825-5.202,3.445-7.269
			l20.193,5.405l0.315,1.176c-1.283-0.078-2.565-0.13-3.848-0.13c-6.066,0.002-14.391,1.894-14.986,14.931l-10.686-2.86
			c-1.481-10.454-8.429-12.062-14.74-12.06c-5.686,0.002-11.372,0.815-17.059,1.629c-1.582,0.226-3.147,0.451-4.706,0.66
			l-33.672-9.013c-0.398-0.586-0.774-1.193-1.124-1.822l9.2-9.205C134.106,74.645,139.411,76.636,146.897,76.634z"/>
		<linearGradient id="SVGID_18_" gradientUnits="userSpaceOnUse" x1="58.2954" y1="56.3112" x2="586.7802" y2="183.5902">
			<stop  offset="0.0112" style="stop-color:#E92327"/>
			<stop  offset="0.2571" style="stop-color:#E92030"/>
			<stop  offset="0.2736" style="stop-color:#E9252F"/>
			<stop  offset="0.4909" style="stop-color:#EC4F2B"/>
			<stop  offset="0.6088" style="stop-color:#EE5B29"/>
			<stop  offset="0.6177" style="stop-color:#ED5A29"/>
			<stop  offset="0.8311" style="stop-color:#EC4B2A"/>
			<stop  offset="1" style="stop-color:#EC462A"/>
		</linearGradient>
		<path opacity="0.8" fill="url(#SVGID_18_)" d="M146.897,76.634c4.671-0.001,9.544-0.815,14.418-1.425
			c4.591-0.736,9.02-1.465,13.88-1.6l17.409,4.66c3.014,2.489,4.973,5.868,6.082,9.928l0.406,0c0.689-2.757,1.825-5.202,3.445-7.269
			l20.193,5.405l0.315,1.176c-1.283-0.078-2.565-0.13-3.848-0.13c-6.066,0.002-14.391,1.894-14.986,14.931l-10.686-2.86
			c-1.481-10.454-8.429-12.062-14.74-12.06c-5.686,0.002-11.372,0.815-17.059,1.629c-1.582,0.226-3.147,0.451-4.706,0.66
			l-33.672-9.013c-0.398-0.586-0.774-1.193-1.124-1.822l9.2-9.205C134.106,74.645,139.411,76.636,146.897,76.634z"/>
		<linearGradient id="SVGID_19_" gradientUnits="userSpaceOnUse" x1="65.9535" y1="24.5132" x2="594.4383" y2="151.7923">
			<stop  offset="0.0112" style="stop-color:#E92327"/>
			<stop  offset="0.2571" style="stop-color:#E92030"/>
			<stop  offset="0.2736" style="stop-color:#E9252F"/>
			<stop  offset="0.4909" style="stop-color:#EC4F2B"/>
			<stop  offset="0.6088" style="stop-color:#EE5B29"/>
			<stop  offset="0.6177" style="stop-color:#ED5A29"/>
			<stop  offset="0.8311" style="stop-color:#EC4B2A"/>
			<stop  offset="1" style="stop-color:#EC462A"/>
		</linearGradient>
		<path opacity="0.8" fill="url(#SVGID_19_)" d="M268.944,60.355l-0.001-3.452l11.17-0.003l0.001,4.265
			c0.004,14.775-5.756,26.505-21.378,28.969l-3.685-13.738C263.992,75.366,268.768,70.396,268.944,60.355z"/>
		<linearGradient id="SVGID_20_" gradientUnits="userSpaceOnUse" x1="62.4725" y1="38.9669" x2="590.9573" y2="166.2459">
			<stop  offset="0.0112" style="stop-color:#E92327"/>
			<stop  offset="0.2571" style="stop-color:#E92030"/>
			<stop  offset="0.2736" style="stop-color:#E9252F"/>
			<stop  offset="0.4909" style="stop-color:#EC4F2B"/>
			<stop  offset="0.6088" style="stop-color:#EE5B29"/>
			<stop  offset="0.6177" style="stop-color:#ED5A29"/>
			<stop  offset="0.8311" style="stop-color:#EC4B2A"/>
			<stop  offset="1" style="stop-color:#EC462A"/>
		</linearGradient>
		<path opacity="0.8" fill="url(#SVGID_20_)" d="M219.32,73.622c0.623-0.029,1.25-0.054,1.904-0.054
			c5.483-0.001,10.56,0.809,15.435,1.62c5.077,0.608,9.748,1.419,14.622,1.418c1.332,0,2.584-0.074,3.77-0.211l3.685,13.738
			c-1.986,0.313-4.123,0.485-6.436,0.485c-5.483,0.001-11.169-0.809-16.653-1.62c-2.044-0.302-4.087-0.59-6.131-0.85l-6.787-1.817
			L219.32,73.622z"/>
		<linearGradient id="SVGID_21_" gradientUnits="userSpaceOnUse" x1="62.4725" y1="38.9669" x2="590.9573" y2="166.2459">
			<stop  offset="0.0112" style="stop-color:#E92327"/>
			<stop  offset="0.2571" style="stop-color:#E92030"/>
			<stop  offset="0.2736" style="stop-color:#E9252F"/>
			<stop  offset="0.4909" style="stop-color:#EC4F2B"/>
			<stop  offset="0.6088" style="stop-color:#EE5B29"/>
			<stop  offset="0.6177" style="stop-color:#ED5A29"/>
			<stop  offset="0.8311" style="stop-color:#EC4B2A"/>
			<stop  offset="1" style="stop-color:#EC462A"/>
		</linearGradient>
		<path opacity="0.8" fill="url(#SVGID_21_)" d="M219.32,73.622c0.623-0.029,1.25-0.054,1.904-0.054
			c5.483-0.001,10.56,0.809,15.435,1.62c5.077,0.608,9.748,1.419,14.622,1.418c1.332,0,2.584-0.074,3.77-0.211l3.685,13.738
			c-1.986,0.313-4.123,0.485-6.436,0.485c-5.483,0.001-11.169-0.809-16.653-1.62c-2.044-0.302-4.087-0.59-6.131-0.85l-6.787-1.817
			L219.32,73.622z"/>
		<linearGradient id="SVGID_22_" gradientUnits="userSpaceOnUse" x1="60.8781" y1="45.5873" x2="589.3629" y2="172.8663">
			<stop  offset="0.0112" style="stop-color:#E92327"/>
			<stop  offset="0.2571" style="stop-color:#E92030"/>
			<stop  offset="0.2736" style="stop-color:#E9252F"/>
			<stop  offset="0.4909" style="stop-color:#EC4F2B"/>
			<stop  offset="0.6088" style="stop-color:#EE5B29"/>
			<stop  offset="0.6177" style="stop-color:#ED5A29"/>
			<stop  offset="0.8311" style="stop-color:#EC4B2A"/>
			<stop  offset="1" style="stop-color:#EC462A"/>
		</linearGradient>
		<path opacity="0.8" fill="url(#SVGID_22_)" d="M176.749,73.58c7.091-0.002,12.237,1.7,15.855,4.688l-17.409-4.66
			C175.709,73.594,176.224,73.58,176.749,73.58z"/>
		<linearGradient id="SVGID_23_" gradientUnits="userSpaceOnUse" x1="60.8781" y1="45.5873" x2="589.3629" y2="172.8663">
			<stop  offset="0.0112" style="stop-color:#E92327"/>
			<stop  offset="0.2571" style="stop-color:#E92030"/>
			<stop  offset="0.2736" style="stop-color:#E9252F"/>
			<stop  offset="0.4909" style="stop-color:#EC4F2B"/>
			<stop  offset="0.6088" style="stop-color:#EE5B29"/>
			<stop  offset="0.6177" style="stop-color:#ED5A29"/>
			<stop  offset="0.8311" style="stop-color:#EC4B2A"/>
			<stop  offset="1" style="stop-color:#EC462A"/>
		</linearGradient>
		<path opacity="0.8" fill="url(#SVGID_23_)" d="M176.749,73.58c7.091-0.002,12.237,1.7,15.855,4.688l-17.409-4.66
			C175.709,73.594,176.224,73.58,176.749,73.58z"/>
		<linearGradient id="SVGID_24_" gradientUnits="userSpaceOnUse" x1="60.8781" y1="45.5873" x2="589.3629" y2="172.8663">
			<stop  offset="0.0112" style="stop-color:#E92327"/>
			<stop  offset="0.2571" style="stop-color:#E92030"/>
			<stop  offset="0.2736" style="stop-color:#E9252F"/>
			<stop  offset="0.4909" style="stop-color:#EC4F2B"/>
			<stop  offset="0.6088" style="stop-color:#EE5B29"/>
			<stop  offset="0.6177" style="stop-color:#ED5A29"/>
			<stop  offset="0.8311" style="stop-color:#EC4B2A"/>
			<stop  offset="1" style="stop-color:#EC462A"/>
		</linearGradient>
		<path opacity="0.8" fill="url(#SVGID_24_)" d="M176.749,73.58c7.091-0.002,12.237,1.7,15.855,4.688l-17.409-4.66
			C175.709,73.594,176.224,73.58,176.749,73.58z"/>
		<linearGradient id="SVGID_25_" gradientUnits="userSpaceOnUse" x1="61.8295" y1="41.6367" x2="590.3143" y2="168.9158">
			<stop  offset="0.0112" style="stop-color:#E92327"/>
			<stop  offset="0.2571" style="stop-color:#E92030"/>
			<stop  offset="0.2736" style="stop-color:#E9252F"/>
			<stop  offset="0.4909" style="stop-color:#EC4F2B"/>
			<stop  offset="0.6088" style="stop-color:#EE5B29"/>
			<stop  offset="0.6177" style="stop-color:#ED5A29"/>
			<stop  offset="0.8311" style="stop-color:#EC4B2A"/>
			<stop  offset="1" style="stop-color:#EC462A"/>
		</linearGradient>
		<path opacity="0.8" fill="url(#SVGID_25_)" d="M202.536,80.927c3.366-4.296,8.841-6.94,16.784-7.305l3.409,12.71L202.536,80.927z"
			/>
		<linearGradient id="SVGID_26_" gradientUnits="userSpaceOnUse" x1="61.8295" y1="41.6367" x2="590.3143" y2="168.9158">
			<stop  offset="0.0112" style="stop-color:#E92327"/>
			<stop  offset="0.2571" style="stop-color:#E92030"/>
			<stop  offset="0.2736" style="stop-color:#E9252F"/>
			<stop  offset="0.4909" style="stop-color:#EC4F2B"/>
			<stop  offset="0.6088" style="stop-color:#EE5B29"/>
			<stop  offset="0.6177" style="stop-color:#ED5A29"/>
			<stop  offset="0.8311" style="stop-color:#EC4B2A"/>
			<stop  offset="1" style="stop-color:#EC462A"/>
		</linearGradient>
		<path opacity="0.8" fill="url(#SVGID_26_)" d="M202.536,80.927c3.366-4.296,8.841-6.94,16.784-7.305l3.409,12.71L202.536,80.927z"
			/>
		<linearGradient id="SVGID_27_" gradientUnits="userSpaceOnUse" x1="61.8295" y1="41.6367" x2="590.3143" y2="168.9158">
			<stop  offset="0.0112" style="stop-color:#E92327"/>
			<stop  offset="0.2571" style="stop-color:#E92030"/>
			<stop  offset="0.2736" style="stop-color:#E9252F"/>
			<stop  offset="0.4909" style="stop-color:#EC4F2B"/>
			<stop  offset="0.6088" style="stop-color:#EE5B29"/>
			<stop  offset="0.6177" style="stop-color:#ED5A29"/>
			<stop  offset="0.8311" style="stop-color:#EC4B2A"/>
			<stop  offset="1" style="stop-color:#EC462A"/>
		</linearGradient>
		<path opacity="0.8" fill="url(#SVGID_27_)" d="M202.536,80.927c3.366-4.296,8.841-6.94,16.784-7.305l3.409,12.71L202.536,80.927z"
			/>
	</g>
</g>
</svg>
