<?xml version="1.0" encoding="utf-8"?>
<!-- Generator: Adobe Illustrator 17.0.0, SVG Export Plug-In . SVG Version: 6.00 Build 0)  -->
<!DOCTYPE svg PUBLIC "-//W3C//DTD SVG 1.1//EN" "http://www.w3.org/Graphics/SVG/1.1/DTD/svg11.dtd">
<svg version="1.1" id="Layer_1" xmlns="http://www.w3.org/2000/svg" xmlns:xlink="http://www.w3.org/1999/xlink" x="0px" y="0px"
	 width="397px" height="112px" viewBox="0 0 397 112" enable-background="new 0 0 397 112" xml:space="preserve">
<g>
	<g>
		<linearGradient id="SVGID_1_" gradientUnits="userSpaceOnUse" x1="50.7254" y1="39.3996" x2="523.4528" y2="8.2308">
			<stop  offset="0.0112" style="stop-color:#E42227"/>
			<stop  offset="0.2571" style="stop-color:#E41D2F"/>
			<stop  offset="0.289" style="stop-color:#E4272E"/>
			<stop  offset="0.4963" style="stop-color:#E84F2A"/>
			<stop  offset="0.6088" style="stop-color:#E95B28"/>
			<stop  offset="0.6279" style="stop-color:#E95A28"/>
			<stop  offset="0.8356" style="stop-color:#E84B2A"/>
			<stop  offset="1" style="stop-color:#E7452B"/>
		</linearGradient>
		<path fill="url(#SVGID_1_)" d="M48.386,27.75c-0.199,0.398-0.43,0.679-0.691,0.842c-0.263,0.163-0.573,0.244-0.934,0.244
			c-0.361,0-0.767-0.14-1.218-0.42c-0.451-0.28-0.984-0.592-1.597-0.936c-0.615-0.343-1.333-0.654-2.154-0.935
			c-0.821-0.28-1.791-0.42-2.91-0.42c-1.01,0-1.891,0.123-2.638,0.367c-0.749,0.244-1.382,0.584-1.896,1.017
			c-0.513,0.435-0.897,0.955-1.149,1.561c-0.254,0.606-0.379,1.271-0.378,1.994c0,0.922,0.256,1.691,0.771,2.306
			s1.197,1.139,2.045,1.572c0.848,0.434,1.814,0.823,2.898,1.166c1.082,0.344,2.187,0.71,3.315,1.098
			c1.128,0.389,2.233,0.841,3.317,1.356c1.082,0.515,2.048,1.166,2.896,1.953c0.848,0.787,1.53,1.75,2.045,2.889
			c0.515,1.139,0.773,2.523,0.773,4.15c0,1.773-0.302,3.432-0.906,4.979c-0.604,1.547-1.489,2.895-2.651,4.044
			c-1.165,1.149-2.585,2.054-4.263,2.714c-1.679,0.66-3.6,0.991-5.767,0.992c-1.246,0-2.473-0.122-3.682-0.366
			c-1.209-0.244-2.369-0.592-3.479-1.043s-2.147-0.994-3.113-1.628c-0.966-0.632-1.828-1.338-2.586-2.115l2.111-3.501
			c0.199-0.253,0.437-0.465,0.717-0.638c0.28-0.172,0.59-0.257,0.934-0.258c0.451,0,0.938,0.186,1.461,0.556
			c0.524,0.371,1.142,0.782,1.856,1.234c0.712,0.452,1.551,0.863,2.517,1.234c0.966,0.371,2.126,0.555,3.479,0.555
			c2.074-0.001,3.682-0.494,4.818-1.48s1.705-2.402,1.705-4.247c0-1.031-0.258-1.872-0.773-2.523
			c-0.515-0.651-1.197-1.197-2.045-1.641c-0.848-0.442-1.814-0.817-2.896-1.125c-1.084-0.307-2.184-0.642-3.303-1.004
			c-1.119-0.361-2.221-0.795-3.303-1.302c-1.084-0.506-2.05-1.165-2.898-1.979c-0.848-0.814-1.53-1.831-2.044-3.052
			c-0.515-1.22-0.773-2.726-0.773-4.517c0-1.429,0.283-2.822,0.852-4.179c0.567-1.356,1.397-2.559,2.489-3.609
			c1.091-1.049,2.432-1.891,4.02-2.524c1.588-0.634,3.401-0.951,5.44-0.951c2.311-0.001,4.44,0.361,6.389,1.084
			s3.61,1.735,4.982,3.037L48.386,27.75z"/>
		<linearGradient id="SVGID_2_" gradientUnits="userSpaceOnUse" x1="51.2242" y1="46.9643" x2="523.9515" y2="15.7955">
			<stop  offset="0.0112" style="stop-color:#E42227"/>
			<stop  offset="0.2571" style="stop-color:#E41D2F"/>
			<stop  offset="0.289" style="stop-color:#E4272E"/>
			<stop  offset="0.4963" style="stop-color:#E84F2A"/>
			<stop  offset="0.6088" style="stop-color:#E95B28"/>
			<stop  offset="0.6279" style="stop-color:#E95A28"/>
			<stop  offset="0.8356" style="stop-color:#E84B2A"/>
			<stop  offset="1" style="stop-color:#E7452B"/>
		</linearGradient>
		<path fill="url(#SVGID_2_)" d="M75.594,37.891c-0.199,0.253-0.393,0.452-0.581,0.597c-0.19,0.145-0.465,0.217-0.827,0.217
			c-0.342,0-0.677-0.104-1.001-0.312c-0.324-0.208-0.714-0.443-1.163-0.705c-0.453-0.262-0.989-0.498-1.611-0.705
			c-0.624-0.208-1.394-0.312-2.316-0.311c-1.172,0-2.201,0.213-3.086,0.639c-0.885,0.425-1.619,1.036-2.206,1.832
			c-0.585,0.796-1.024,1.759-1.311,2.89c-0.289,1.131-0.433,2.41-0.433,3.84c0,1.483,0.158,2.803,0.475,3.961
			c0.316,1.158,0.771,2.13,1.367,2.917c0.596,0.787,1.319,1.383,2.167,1.79c0.848,0.407,1.805,0.609,2.869,0.609
			c1.065,0,1.926-0.131,2.585-0.394c0.659-0.262,1.214-0.552,1.665-0.868c0.451-0.316,0.842-0.607,1.177-0.868
			c0.333-0.263,0.708-0.394,1.123-0.394c0.543,0,0.948,0.208,1.22,0.624l1.922,2.441c-0.74,0.869-1.542,1.597-2.409,2.185
			c-0.865,0.588-1.764,1.059-2.693,1.412c-0.93,0.353-1.891,0.602-2.883,0.747c-0.992,0.145-1.976,0.217-2.95,0.218
			c-1.715,0-3.331-0.321-4.847-0.962c-1.516-0.642-2.838-1.578-3.966-2.807c-1.128-1.229-2.022-2.735-2.682-4.516
			c-0.66-1.782-0.988-3.812-0.989-6.091c-0.001-2.044,0.292-3.939,0.878-5.685c0.586-1.745,1.448-3.257,2.584-4.532
			c1.136-1.275,2.544-2.275,4.222-2.999c1.678-0.724,3.609-1.086,5.793-1.086c2.074-0.001,3.893,0.334,5.455,1.002
			c1.562,0.668,2.965,1.627,4.21,2.874L75.594,37.891z"/>
		<linearGradient id="SVGID_3_" gradientUnits="userSpaceOnUse" x1="50.9309" y1="42.5161" x2="523.6582" y2="11.3472">
			<stop  offset="0.0112" style="stop-color:#E42227"/>
			<stop  offset="0.2571" style="stop-color:#E41D2F"/>
			<stop  offset="0.289" style="stop-color:#E4272E"/>
			<stop  offset="0.4963" style="stop-color:#E84F2A"/>
			<stop  offset="0.6088" style="stop-color:#E95B28"/>
			<stop  offset="0.6279" style="stop-color:#E95A28"/>
			<stop  offset="0.8356" style="stop-color:#E84B2A"/>
			<stop  offset="1" style="stop-color:#E7452B"/>
		</linearGradient>
		<path fill="url(#SVGID_3_)" d="M81.908,59.839L81.897,19.52l6.685-0.002l0.004,15.493c1.084-1.031,2.275-1.864,3.574-2.497
			c1.299-0.633,2.823-0.95,4.575-0.95c1.516,0,2.861,0.257,4.033,0.772c1.174,0.515,2.154,1.238,2.939,2.17
			c0.785,0.932,1.381,2.044,1.788,3.337c0.406,1.294,0.609,2.718,0.609,4.274l0.005,17.717l-6.687,0.002l-0.005-17.717
			c0-1.701-0.392-3.016-1.178-3.948c-0.785-0.931-1.962-1.397-3.532-1.397c-1.156,0-2.238,0.263-3.248,0.788
			c-1.012,0.525-1.968,1.24-2.87,2.144l0.005,20.133L81.908,59.839z"/>
		<linearGradient id="SVGID_4_" gradientUnits="userSpaceOnUse" x1="51.477" y1="50.7979" x2="524.2043" y2="19.6291">
			<stop  offset="0.0112" style="stop-color:#E42227"/>
			<stop  offset="0.2571" style="stop-color:#E41D2F"/>
			<stop  offset="0.289" style="stop-color:#E4272E"/>
			<stop  offset="0.4963" style="stop-color:#E84F2A"/>
			<stop  offset="0.6088" style="stop-color:#E95B28"/>
			<stop  offset="0.6279" style="stop-color:#E95A28"/>
			<stop  offset="0.8356" style="stop-color:#E84B2A"/>
			<stop  offset="1" style="stop-color:#E7452B"/>
		</linearGradient>
		<path fill="url(#SVGID_4_)" d="M108.809,31.994l5.305-0.001c0.506,0,0.929,0.118,1.273,0.352c0.342,0.235,0.559,0.534,0.651,0.896
			l3.984,14.867c0.215,0.814,0.392,1.61,0.528,2.388c0.136,0.777,0.267,1.555,0.394,2.333c0.197-0.777,0.41-1.555,0.636-2.333
			c0.225-0.778,0.463-1.574,0.717-2.388l4.598-14.924c0.107-0.361,0.324-0.66,0.65-0.896c0.324-0.235,0.703-0.353,1.137-0.353
			l2.95-0.001c0.486,0,0.894,0.117,1.218,0.352c0.326,0.235,0.541,0.534,0.651,0.895l4.551,15.193
			c0.235,0.778,0.448,1.533,0.637,2.265c0.191,0.732,0.376,1.47,0.556,2.211c0.127-0.777,0.266-1.555,0.419-2.334
			c0.153-0.777,0.347-1.583,0.581-2.415l4.111-14.869c0.09-0.362,0.307-0.661,0.65-0.896c0.342-0.235,0.74-0.353,1.191-0.353
			l5.062-0.001l-8.791,27.841l-5.388,0.001c-0.576,0-0.992-0.397-1.245-1.194l-5.013-16.088c-0.162-0.524-0.31-1.053-0.446-1.587
			c-0.136-0.533-0.249-1.063-0.339-1.587c-0.109,0.543-0.225,1.081-0.352,1.615c-0.127,0.534-0.271,1.072-0.433,1.615l-5.058,16.036
			c-0.254,0.797-0.74,1.194-1.461,1.194l-5.116,0.001L108.809,31.994z"/>
		<linearGradient id="SVGID_5_" gradientUnits="userSpaceOnUse" x1="51.6532" y1="53.4704" x2="524.3805" y2="22.3016">
			<stop  offset="0.0112" style="stop-color:#E42227"/>
			<stop  offset="0.2571" style="stop-color:#E41D2F"/>
			<stop  offset="0.289" style="stop-color:#E4272E"/>
			<stop  offset="0.4963" style="stop-color:#E84F2A"/>
			<stop  offset="0.6088" style="stop-color:#E95B28"/>
			<stop  offset="0.6279" style="stop-color:#E95A28"/>
			<stop  offset="0.8356" style="stop-color:#E84B2A"/>
			<stop  offset="1" style="stop-color:#E7452B"/>
		</linearGradient>
		<path fill="url(#SVGID_5_)" d="M166.497,31.545c1.75,0,3.361,0.279,4.833,0.839c1.47,0.561,2.739,1.379,3.804,2.455
			c1.065,1.076,1.895,2.396,2.491,3.96c0.596,1.564,0.894,3.35,0.895,5.359c0,0.507-0.023,0.927-0.067,1.261
			c-0.046,0.335-0.127,0.598-0.245,0.787c-0.116,0.19-0.275,0.326-0.472,0.407c-0.199,0.081-0.453,0.123-0.76,0.123l-17.163,0.005
			c0.2,2.858,0.967,4.956,2.303,6.294s3.104,2.007,5.306,2.006c1.084,0,2.018-0.127,2.802-0.381
			c0.786-0.253,1.472-0.534,2.058-0.841c0.585-0.308,1.1-0.588,1.542-0.842c0.442-0.253,0.871-0.38,1.287-0.38
			c0.27,0,0.504,0.055,0.703,0.163c0.199,0.108,0.37,0.263,0.515,0.461l1.95,2.441c-0.74,0.869-1.57,1.597-2.49,2.185
			c-0.922,0.588-1.882,1.059-2.883,1.412c-1.003,0.353-2.021,0.602-3.059,0.747c-1.038,0.145-2.044,0.217-3.019,0.218
			c-1.93,0.001-3.726-0.321-5.386-0.962c-1.66-0.642-3.106-1.591-4.333-2.848c-1.227-1.256-2.193-2.812-2.897-4.666
			c-0.705-1.854-1.057-4.001-1.057-6.443c-0.001-1.899,0.306-3.685,0.919-5.359c0.613-1.673,1.492-3.13,2.639-4.369
			c1.145-1.239,2.543-2.221,4.194-2.945C162.558,31.907,164.421,31.545,166.497,31.545z M166.634,36.346
			c-1.949,0.001-3.474,0.553-4.575,1.656c-1.101,1.104-1.804,2.669-2.11,4.695l12.561-0.003c0-0.868-0.119-1.687-0.353-2.455
			c-0.235-0.769-0.596-1.442-1.083-2.021c-0.487-0.579-1.102-1.035-1.84-1.37C168.493,36.513,167.626,36.346,166.634,36.346z"/>
		<linearGradient id="SVGID_6_" gradientUnits="userSpaceOnUse" x1="51.7428" y1="54.8299" x2="524.4702" y2="23.6611">
			<stop  offset="0.0112" style="stop-color:#E42227"/>
			<stop  offset="0.2571" style="stop-color:#E41D2F"/>
			<stop  offset="0.289" style="stop-color:#E4272E"/>
			<stop  offset="0.4963" style="stop-color:#E84F2A"/>
			<stop  offset="0.6088" style="stop-color:#E95B28"/>
			<stop  offset="0.6279" style="stop-color:#E95A28"/>
			<stop  offset="0.8356" style="stop-color:#E84B2A"/>
			<stop  offset="1" style="stop-color:#E7452B"/>
		</linearGradient>
		<path fill="url(#SVGID_6_)" d="M183.967,59.812l-0.007-27.838l3.925-0.001c0.686,0,1.163,0.127,1.435,0.379
			c0.27,0.254,0.451,0.688,0.541,1.302l0.406,3.364c0.992-1.719,2.156-3.075,3.492-4.07c1.336-0.995,2.832-1.494,4.494-1.494
			c1.371,0,2.508,0.317,3.411,0.949l-0.866,5.02c-0.053,0.325-0.171,0.556-0.351,0.692c-0.182,0.136-0.425,0.204-0.731,0.204
			c-0.271,0-0.642-0.063-1.11-0.19c-0.469-0.126-1.091-0.189-1.868-0.189c-1.389,0-2.58,0.385-3.572,1.154
			c-0.992,0.77-1.832,1.896-2.518,3.379l0.005,17.337L183.967,59.812z"/>
		<linearGradient id="SVGID_7_" gradientUnits="userSpaceOnUse" x1="52.1365" y1="60.801" x2="524.8638" y2="29.6321">
			<stop  offset="0.0112" style="stop-color:#E42227"/>
			<stop  offset="0.2571" style="stop-color:#E41D2F"/>
			<stop  offset="0.289" style="stop-color:#E4272E"/>
			<stop  offset="0.4963" style="stop-color:#E84F2A"/>
			<stop  offset="0.6088" style="stop-color:#E95B28"/>
			<stop  offset="0.6279" style="stop-color:#E95A28"/>
			<stop  offset="0.8356" style="stop-color:#E84B2A"/>
			<stop  offset="1" style="stop-color:#E7452B"/>
		</linearGradient>
		<path fill="url(#SVGID_7_)" d="M206.086,68.895l-0.01-36.927l4.087-0.001c0.434,0,0.802,0.099,1.11,0.298
			c0.307,0.199,0.504,0.507,0.596,0.922l0.542,2.577c1.119-1.284,2.403-2.325,3.857-3.121c1.452-0.796,3.153-1.195,5.102-1.195
			c1.516,0,2.901,0.316,4.156,0.949c1.253,0.633,2.337,1.55,3.249,2.753s1.615,2.686,2.113,4.449
			c0.496,1.764,0.745,3.786,0.745,6.064c0.001,2.08-0.279,4.007-0.837,5.779c-0.558,1.773-1.356,3.31-2.394,4.613
			c-1.038,1.303-2.292,2.321-3.762,3.054c-1.471,0.733-3.118,1.1-4.94,1.1c-1.57,0-2.903-0.239-3.994-0.718
			c-1.093-0.479-2.071-1.143-2.939-1.993l0.003,11.395L206.086,68.895z M219.071,36.74c-1.389,0-2.577,0.295-3.56,0.883
			c-0.983,0.588-1.898,1.416-2.747,2.483l0.003,12.481c0.76,0.941,1.585,1.596,2.479,1.966c0.894,0.371,1.854,0.556,2.884,0.555
			c1.01,0,1.926-0.19,2.748-0.57c0.821-0.38,1.515-0.959,2.083-1.737c0.569-0.777,1.006-1.759,1.312-2.944
			c0.306-1.184,0.461-2.582,0.461-4.192c0-1.629-0.133-3.008-0.394-4.138c-0.263-1.13-0.637-2.048-1.125-2.754
			c-0.487-0.705-1.079-1.22-1.773-1.546C220.745,36.902,219.955,36.739,219.071,36.74z"/>
		<linearGradient id="SVGID_8_" gradientUnits="userSpaceOnUse" x1="52.0054" y1="58.8133" x2="524.7328" y2="27.6445">
			<stop  offset="0.0112" style="stop-color:#E42227"/>
			<stop  offset="0.2571" style="stop-color:#E41D2F"/>
			<stop  offset="0.289" style="stop-color:#E4272E"/>
			<stop  offset="0.4963" style="stop-color:#E84F2A"/>
			<stop  offset="0.6088" style="stop-color:#E95B28"/>
			<stop  offset="0.6279" style="stop-color:#E95A28"/>
			<stop  offset="0.8356" style="stop-color:#E84B2A"/>
			<stop  offset="1" style="stop-color:#E7452B"/>
		</linearGradient>
		<path fill="url(#SVGID_8_)" d="M242.812,31.958l0.005,17.691c0,1.7,0.394,3.016,1.178,3.948s1.964,1.396,3.534,1.396
			c1.154,0,2.237-0.258,3.248-0.774c1.01-0.516,1.967-1.226,2.869-2.131l-0.005-20.133l6.687-0.002l0.007,27.838l-4.089,0.001
			c-0.865,0-1.435-0.407-1.705-1.221l-0.461-2.224c-0.578,0.579-1.174,1.108-1.787,1.588c-0.613,0.48-1.269,0.887-1.963,1.221
			c-0.694,0.336-1.443,0.598-2.247,0.788c-0.802,0.191-1.664,0.286-2.584,0.286c-1.517,0-2.857-0.257-4.02-0.773
			c-1.165-0.515-2.145-1.243-2.939-2.183c-0.795-0.94-1.395-2.057-1.8-3.351c-0.407-1.293-0.611-2.718-0.611-4.273l-0.005-17.691
			L242.812,31.958z"/>
		<linearGradient id="SVGID_9_" gradientUnits="userSpaceOnUse" x1="52.1406" y1="60.863" x2="524.8679" y2="29.6941">
			<stop  offset="0.0112" style="stop-color:#E42227"/>
			<stop  offset="0.2571" style="stop-color:#E41D2F"/>
			<stop  offset="0.289" style="stop-color:#E4272E"/>
			<stop  offset="0.4963" style="stop-color:#E84F2A"/>
			<stop  offset="0.6088" style="stop-color:#E95B28"/>
			<stop  offset="0.6279" style="stop-color:#E95A28"/>
			<stop  offset="0.8356" style="stop-color:#E84B2A"/>
			<stop  offset="1" style="stop-color:#E7452B"/>
		</linearGradient>
		<path fill="url(#SVGID_9_)" d="M267.481,59.789l-0.007-27.838l4.087-0.001c0.865,0,1.435,0.407,1.706,1.221l0.461,2.198
			c0.559-0.579,1.149-1.104,1.773-1.574c0.622-0.471,1.281-0.877,1.975-1.222c0.694-0.343,1.44-0.606,2.233-0.787
			c0.795-0.181,1.66-0.272,2.6-0.272c1.516,0,2.861,0.257,4.033,0.772c1.174,0.515,2.154,1.238,2.939,2.17
			c0.785,0.932,1.381,2.044,1.788,3.337c0.406,1.294,0.609,2.718,0.609,4.274l0.005,17.717l-6.687,0.002l-0.005-17.717
			c0-1.701-0.392-3.016-1.178-3.948c-0.785-0.931-1.962-1.397-3.532-1.397c-1.156,0-2.238,0.263-3.248,0.788
			c-1.012,0.525-1.968,1.24-2.87,2.144l0.005,20.133L267.481,59.789z"/>
		<linearGradient id="SVGID_10_" gradientUnits="userSpaceOnUse" x1="51.867" y1="56.7141" x2="524.5944" y2="25.5453">
			<stop  offset="0.0112" style="stop-color:#E42227"/>
			<stop  offset="0.2571" style="stop-color:#E41D2F"/>
			<stop  offset="0.289" style="stop-color:#E4272E"/>
			<stop  offset="0.4963" style="stop-color:#E84F2A"/>
			<stop  offset="0.6088" style="stop-color:#E95B28"/>
			<stop  offset="0.6279" style="stop-color:#E95A28"/>
			<stop  offset="0.8356" style="stop-color:#E84B2A"/>
			<stop  offset="1" style="stop-color:#E7452B"/>
		</linearGradient>
		<path fill="url(#SVGID_10_)" d="M305.018,19.46l0.006,23.09l1.244,0c0.451,0,0.804-0.064,1.056-0.191
			c0.252-0.126,0.523-0.361,0.812-0.705l6.901-8.549c0.307-0.361,0.631-0.646,0.974-0.855c0.342-0.207,0.793-0.312,1.353-0.312
			l6.118-0.002l-8.633,10.34c-0.307,0.38-0.622,0.728-0.946,1.045c-0.326,0.317-0.677,0.593-1.055,0.828
			c0.379,0.271,0.712,0.588,1.001,0.95c0.289,0.362,0.577,0.751,0.866,1.167l9.264,13.509l-6.038,0.002
			c-0.523,0-0.966-0.09-1.325-0.271c-0.361-0.181-0.688-0.488-0.975-0.922l-7.069-10.553c-0.272-0.416-0.543-0.687-0.813-0.813
			c-0.271-0.127-0.677-0.19-1.218-0.19l-1.516,0l0.003,12.752l-6.687,0.002l-0.011-40.319L305.018,19.46z"/>
		<linearGradient id="SVGID_11_" gradientUnits="userSpaceOnUse" x1="52.1153" y1="60.4795" x2="524.8427" y2="29.3107">
			<stop  offset="0.0112" style="stop-color:#E42227"/>
			<stop  offset="0.2571" style="stop-color:#E41D2F"/>
			<stop  offset="0.289" style="stop-color:#E4272E"/>
			<stop  offset="0.4963" style="stop-color:#E84F2A"/>
			<stop  offset="0.6088" style="stop-color:#E95B28"/>
			<stop  offset="0.6279" style="stop-color:#E95A28"/>
			<stop  offset="0.8356" style="stop-color:#E84B2A"/>
			<stop  offset="1" style="stop-color:#E7452B"/>
		</linearGradient>
		<path fill="url(#SVGID_11_)" d="M337.243,60.205c-2.4,0.001-4.251-0.682-5.551-2.047c-1.299-1.366-1.95-3.25-1.951-5.657
			l-0.004-15.547l-2.815,0.001c-0.361,0-0.673-0.117-0.934-0.352c-0.263-0.235-0.393-0.588-0.393-1.058l-0.001-2.659l4.466-0.733
			l1.406-7.597c0.072-0.362,0.24-0.642,0.5-0.842c0.263-0.199,0.592-0.299,0.989-0.299l3.465-0.001l0.002,8.764l7.309-0.002
			l0.001,4.775l-7.309,0.002l0.004,15.086c0,0.868,0.217,1.547,0.651,2.035c0.432,0.488,1.01,0.733,1.733,0.733
			c0.414,0,0.761-0.05,1.042-0.15c0.28-0.099,0.523-0.204,0.731-0.312c0.206-0.108,0.393-0.212,0.555-0.312
			c0.162-0.099,0.324-0.149,0.486-0.149c0.199,0,0.361,0.05,0.488,0.149c0.125,0.1,0.261,0.248,0.405,0.448l2.005,3.256
			c-0.974,0.814-2.093,1.43-3.357,1.845C339.905,59.996,338.597,60.205,337.243,60.205z"/>
		<linearGradient id="SVGID_12_" gradientUnits="userSpaceOnUse" x1="52.4897" y1="66.1577" x2="525.217" y2="34.9888">
			<stop  offset="0.0112" style="stop-color:#E42227"/>
			<stop  offset="0.2571" style="stop-color:#E41D2F"/>
			<stop  offset="0.289" style="stop-color:#E4272E"/>
			<stop  offset="0.4963" style="stop-color:#E84F2A"/>
			<stop  offset="0.6088" style="stop-color:#E95B28"/>
			<stop  offset="0.6279" style="stop-color:#E95A28"/>
			<stop  offset="0.8356" style="stop-color:#E84B2A"/>
			<stop  offset="1" style="stop-color:#E7452B"/>
		</linearGradient>
		<path fill="url(#SVGID_12_)" d="M360.543,31.493c1.75,0,3.361,0.279,4.833,0.839c1.47,0.561,2.739,1.379,3.804,2.455
			c1.065,1.076,1.895,2.396,2.491,3.96c0.596,1.564,0.894,3.35,0.895,5.359c0,0.507-0.023,0.927-0.067,1.261
			c-0.046,0.335-0.127,0.598-0.245,0.787c-0.116,0.19-0.275,0.326-0.472,0.407c-0.199,0.081-0.453,0.123-0.76,0.123l-17.163,0.005
			c0.2,2.858,0.967,4.956,2.303,6.294s3.104,2.007,5.306,2.006c1.084,0,2.018-0.127,2.802-0.381
			c0.786-0.253,1.471-0.534,2.058-0.841c0.585-0.308,1.1-0.588,1.542-0.842c0.442-0.253,0.871-0.38,1.286-0.38
			c0.27,0,0.504,0.055,0.703,0.163c0.199,0.108,0.37,0.263,0.515,0.461l1.95,2.441c-0.74,0.869-1.57,1.597-2.49,2.185
			c-0.922,0.588-1.882,1.059-2.883,1.412c-1.003,0.353-2.021,0.602-3.059,0.747c-1.038,0.145-2.044,0.217-3.019,0.218
			c-1.93,0.001-3.726-0.321-5.386-0.962c-1.66-0.642-3.106-1.591-4.333-2.848c-1.227-1.256-2.193-2.812-2.897-4.666
			c-0.705-1.854-1.057-4.001-1.057-6.443c0-1.899,0.306-3.685,0.919-5.359c0.613-1.673,1.492-3.13,2.639-4.369
			c1.145-1.239,2.543-2.221,4.194-2.945C356.604,31.855,358.466,31.493,360.543,31.493z M360.68,36.295
			c-1.949,0.001-3.474,0.553-4.575,1.656c-1.101,1.104-1.804,2.669-2.11,4.695l12.561-0.003c0-0.868-0.119-1.687-0.353-2.455
			c-0.235-0.769-0.596-1.442-1.083-2.021s-1.102-1.035-1.84-1.37C362.539,36.462,361.672,36.294,360.68,36.295z"/>
	</g>
	<g>
		<linearGradient id="SVGID_13_" gradientUnits="userSpaceOnUse" x1="54.7282" y1="100.1079" x2="527.4555" y2="68.9391">
			<stop  offset="0.0112" style="stop-color:#E42227"/>
			<stop  offset="0.2571" style="stop-color:#E41D2F"/>
			<stop  offset="0.289" style="stop-color:#E4272E"/>
			<stop  offset="0.4963" style="stop-color:#E84F2A"/>
			<stop  offset="0.6088" style="stop-color:#E95B28"/>
			<stop  offset="0.6279" style="stop-color:#E95A28"/>
			<stop  offset="0.8356" style="stop-color:#E84B2A"/>
			<stop  offset="1" style="stop-color:#E7452B"/>
		</linearGradient>
		<path fill="url(#SVGID_13_)" d="M368.536,92.514l-98.025,0.026l-0.005-19.755l3.767-0.001c0.788,0,1.408,0.241,1.855,0.725
			c0.452,0.483,0.673,1.119,0.673,1.907l0.002,9.074l85.383-0.023l-0.002-9.074c0-0.788,0.226-1.424,0.672-1.907
			s1.082-0.725,1.912-0.726l3.762-0.001L368.536,92.514z"/>
	</g>
</g>
</svg>
