<?xml version="1.0" encoding="utf-8"?>
<!-- Generator: Adobe Illustrator 17.0.0, SVG Export Plug-In . SVG Version: 6.00 Build 0)  -->
<!DOCTYPE svg PUBLIC "-//W3C//DTD SVG 1.1//EN" "http://www.w3.org/Graphics/SVG/1.1/DTD/svg11.dtd">
<svg version="1.1" id="Layer_1" xmlns="http://www.w3.org/2000/svg" xmlns:xlink="http://www.w3.org/1999/xlink" x="0px" y="0px"
	 width="397px" height="112px" viewBox="0 0 397 112" enable-background="new 0 0 397 112" xml:space="preserve">
<g>
	<g>
		<linearGradient id="SVGID_1_" gradientUnits="userSpaceOnUse" x1="64.3774" y1="23.9147" x2="598.5238" y2="125.1342">
			<stop  offset="0.0112" style="stop-color:#E92327"/>
			<stop  offset="0.2571" style="stop-color:#E92030"/>
			<stop  offset="0.2736" style="stop-color:#E9252F"/>
			<stop  offset="0.4909" style="stop-color:#EC4F2B"/>
			<stop  offset="0.6088" style="stop-color:#EE5B29"/>
			<stop  offset="0.6177" style="stop-color:#ED5A29"/>
			<stop  offset="0.8311" style="stop-color:#EC4B2A"/>
			<stop  offset="1" style="stop-color:#EC462A"/>
		</linearGradient>
		<path fill="url(#SVGID_1_)" d="M45.83,6.332h5.701c0.612,0,1.112,0.149,1.496,0.447c0.385,0.298,0.674,0.685,0.867,1.159
			l8.93,23.219c0.298,0.755,0.583,1.584,0.855,2.488c0.27,0.904,0.528,1.855,0.775,2.856c0.402-2.018,0.901-3.8,1.496-5.344
			l8.904-23.219c0.157-0.404,0.438-0.772,0.841-1.106c0.402-0.333,0.901-0.5,1.496-0.5h5.7L67.553,44.398h-6.382L45.83,6.332z"/>
		<linearGradient id="SVGID_2_" gradientUnits="userSpaceOnUse" x1="64.1565" y1="25.0806" x2="598.3029" y2="126.3001">
			<stop  offset="0.0112" style="stop-color:#E92327"/>
			<stop  offset="0.2571" style="stop-color:#E92030"/>
			<stop  offset="0.2736" style="stop-color:#E9252F"/>
			<stop  offset="0.4909" style="stop-color:#EC4F2B"/>
			<stop  offset="0.6088" style="stop-color:#EE5B29"/>
			<stop  offset="0.6177" style="stop-color:#ED5A29"/>
			<stop  offset="0.8311" style="stop-color:#EC4B2A"/>
			<stop  offset="1" style="stop-color:#EC462A"/>
		</linearGradient>
		<path fill="url(#SVGID_2_)" d="M94.765,16.968c2.014,0,3.839,0.325,5.477,0.974c1.636,0.649,3.034,1.571,4.19,2.764
			c1.156,1.194,2.049,2.65,2.678,4.37c0.631,1.72,0.946,3.642,0.946,5.765c0,2.141-0.315,4.072-0.946,5.791
			c-0.629,1.72-1.522,3.186-2.678,4.396c-1.156,1.211-2.553,2.141-4.19,2.791c-1.638,0.649-3.463,0.974-5.477,0.974
			c-2.013,0-3.844-0.325-5.489-0.974c-1.647-0.65-3.051-1.58-4.215-2.791c-1.165-1.211-2.067-2.676-2.705-4.396
			c-0.64-1.719-0.959-3.65-0.959-5.791c0-2.124,0.32-4.045,0.959-5.765c0.638-1.72,1.541-3.176,2.705-4.37s2.568-2.115,4.215-2.764
			C90.92,17.293,92.752,16.968,94.765,16.968z M94.765,39.791c2.242,0,3.901-0.754,4.978-2.264c1.077-1.509,1.616-3.72,1.616-6.634
			c0-2.913-0.539-5.134-1.616-6.661c-1.077-1.526-2.736-2.29-4.978-2.29c-2.276,0-3.957,0.768-5.043,2.303
			c-1.086,1.536-1.628,3.751-1.628,6.647s0.542,5.103,1.628,6.621C90.808,39.032,92.489,39.791,94.765,39.791z"/>
		<linearGradient id="SVGID_3_" gradientUnits="userSpaceOnUse" x1="65.0892" y1="20.1585" x2="599.2356" y2="121.378">
			<stop  offset="0.0112" style="stop-color:#E92327"/>
			<stop  offset="0.2571" style="stop-color:#E92030"/>
			<stop  offset="0.2736" style="stop-color:#E9252F"/>
			<stop  offset="0.4909" style="stop-color:#EC4F2B"/>
			<stop  offset="0.6088" style="stop-color:#EE5B29"/>
			<stop  offset="0.6177" style="stop-color:#ED5A29"/>
			<stop  offset="0.8311" style="stop-color:#EC4B2A"/>
			<stop  offset="1" style="stop-color:#EC462A"/>
		</linearGradient>
		<path fill="url(#SVGID_3_)" d="M113.125,44.398v-27.01h3.808c0.665,0,1.129,0.123,1.392,0.369
			c0.262,0.246,0.438,0.668,0.525,1.264l0.393,3.264c0.963-1.667,2.093-2.983,3.389-3.948c1.296-0.965,2.748-1.448,4.361-1.448
			c1.33,0,2.433,0.308,3.309,0.922l-0.841,4.87c-0.051,0.316-0.166,0.54-0.34,0.671c-0.176,0.132-0.412,0.198-0.71,0.198
			c-0.263,0-0.622-0.062-1.077-0.185c-0.455-0.122-1.059-0.184-1.813-0.184c-1.347,0-2.503,0.373-3.466,1.118
			c-0.963,0.746-1.778,1.839-2.444,3.278v16.822H113.125z"/>
		<linearGradient id="SVGID_4_" gradientUnits="userSpaceOnUse" x1="66.5277" y1="12.5674" x2="600.6741" y2="113.7869">
			<stop  offset="0.0112" style="stop-color:#E92327"/>
			<stop  offset="0.2571" style="stop-color:#E92030"/>
			<stop  offset="0.2736" style="stop-color:#E9252F"/>
			<stop  offset="0.4909" style="stop-color:#EC4F2B"/>
			<stop  offset="0.6088" style="stop-color:#EE5B29"/>
			<stop  offset="0.6177" style="stop-color:#ED5A29"/>
			<stop  offset="0.8311" style="stop-color:#EC4B2A"/>
			<stop  offset="1" style="stop-color:#EC462A"/>
		</linearGradient>
		<path fill="url(#SVGID_4_)" d="M143.435,44.82c-2.329,0-4.125-0.663-5.385-1.988c-1.26-1.325-1.891-3.154-1.891-5.489V22.258
			h-2.731c-0.351,0-0.653-0.114-0.906-0.342c-0.255-0.228-0.381-0.57-0.381-1.027v-2.58l4.333-0.711l1.366-7.371
			c0.07-0.351,0.233-0.623,0.486-0.817c0.255-0.193,0.575-0.29,0.959-0.29h3.362v8.503h7.091v4.633h-7.091v14.637
			c0,0.842,0.21,1.501,0.631,1.974c0.419,0.474,0.98,0.711,1.681,0.711c0.402,0,0.739-0.049,1.011-0.145
			c0.272-0.096,0.508-0.198,0.71-0.303c0.2-0.105,0.381-0.206,0.539-0.303c0.157-0.096,0.315-0.144,0.472-0.144
			c0.193,0,0.351,0.049,0.474,0.144c0.121,0.097,0.253,0.241,0.393,0.434l1.944,3.159c-0.946,0.789-2.032,1.387-3.258,1.79
			C146.018,44.617,144.749,44.82,143.435,44.82z"/>
		<linearGradient id="SVGID_5_" gradientUnits="userSpaceOnUse" x1="66.5378" y1="12.5142" x2="600.6841" y2="113.7338">
			<stop  offset="0.0112" style="stop-color:#E92327"/>
			<stop  offset="0.2571" style="stop-color:#E92030"/>
			<stop  offset="0.2736" style="stop-color:#E9252F"/>
			<stop  offset="0.4909" style="stop-color:#EC4F2B"/>
			<stop  offset="0.6088" style="stop-color:#EE5B29"/>
			<stop  offset="0.6177" style="stop-color:#ED5A29"/>
			<stop  offset="0.8311" style="stop-color:#EC4B2A"/>
			<stop  offset="1" style="stop-color:#EC462A"/>
		</linearGradient>
		<path fill="url(#SVGID_5_)" d="M154.913,44.398v-27.01h3.808c0.665,0,1.129,0.123,1.392,0.369
			c0.262,0.246,0.438,0.668,0.525,1.264l0.393,3.264c0.963-1.667,2.093-2.983,3.389-3.948c1.296-0.965,2.748-1.448,4.361-1.448
			c1.33,0,2.433,0.308,3.309,0.922l-0.841,4.87c-0.051,0.316-0.166,0.54-0.34,0.671c-0.176,0.132-0.412,0.198-0.71,0.198
			c-0.263,0-0.622-0.062-1.077-0.185c-0.455-0.122-1.059-0.184-1.813-0.184c-1.348,0-2.503,0.373-3.466,1.118
			c-0.963,0.746-1.778,1.839-2.444,3.278v16.822H154.913z"/>
		<linearGradient id="SVGID_6_" gradientUnits="userSpaceOnUse" x1="68.2685" y1="3.3811" x2="602.4149" y2="104.6006">
			<stop  offset="0.0112" style="stop-color:#E92327"/>
			<stop  offset="0.2571" style="stop-color:#E92030"/>
			<stop  offset="0.2736" style="stop-color:#E9252F"/>
			<stop  offset="0.4909" style="stop-color:#EC4F2B"/>
			<stop  offset="0.6088" style="stop-color:#EE5B29"/>
			<stop  offset="0.6177" style="stop-color:#ED5A29"/>
			<stop  offset="0.8311" style="stop-color:#EC4B2A"/>
			<stop  offset="1" style="stop-color:#EC462A"/>
		</linearGradient>
		<path fill="url(#SVGID_6_)" d="M196.728,44.398h-2.916c-0.614,0-1.094-0.092-1.445-0.276c-0.351-0.185-0.612-0.557-0.788-1.119
			l-0.578-1.921c-0.682,0.614-1.353,1.153-2.009,1.619c-0.657,0.465-1.336,0.856-2.035,1.171c-0.701,0.316-1.445,0.553-2.233,0.711
			c-0.787,0.157-1.664,0.237-2.627,0.237c-1.137,0-2.189-0.155-3.152-0.463c-0.963-0.308-1.79-0.77-2.481-1.386
			c-0.693-0.616-1.231-1.383-1.616-2.298c-0.385-0.916-0.578-1.981-0.578-3.196c0-1.022,0.267-2.03,0.802-3.025
			c0.534-0.994,1.421-1.892,2.666-2.693c1.243-0.801,2.897-1.466,4.964-1.994c2.066-0.528,4.631-0.793,7.695-0.793V27.38
			c0-1.821-0.381-3.17-1.142-4.045c-0.761-0.876-1.869-1.313-3.323-1.313c-1.05,0-1.927,0.123-2.627,0.369
			c-0.701,0.246-1.31,0.522-1.826,0.829c-0.516,0.307-0.994,0.584-1.431,0.829c-0.438,0.246-0.918,0.369-1.443,0.369
			c-0.439,0-0.816-0.114-1.13-0.342c-0.315-0.228-0.569-0.509-0.761-0.843l-1.183-2.079c3.1-2.843,6.838-4.265,11.216-4.265
			c1.577,0,2.982,0.259,4.215,0.777c1.235,0.517,2.281,1.237,3.14,2.158c0.858,0.922,1.51,2.023,1.956,3.304
			c0.446,1.282,0.67,2.686,0.67,4.213V44.398z M185.198,10.386c0,0.492-0.096,0.952-0.289,1.383c-0.193,0.43-0.46,0.803-0.802,1.118
			c-0.34,0.316-0.735,0.566-1.182,0.751c-0.446,0.184-0.915,0.276-1.404,0.276c-0.474,0-0.925-0.092-1.354-0.276
			c-0.429-0.185-0.809-0.434-1.142-0.751c-0.332-0.316-0.595-0.688-0.787-1.118c-0.193-0.43-0.289-0.891-0.289-1.383
			c0-0.509,0.096-0.987,0.289-1.435c0.192-0.447,0.455-0.838,0.787-1.171c0.333-0.333,0.713-0.596,1.142-0.79
			c0.429-0.192,0.881-0.289,1.354-0.289c0.489,0,0.958,0.097,1.404,0.289c0.446,0.194,0.841,0.457,1.182,0.79
			c0.342,0.333,0.609,0.724,0.802,1.171C185.102,9.399,185.198,9.877,185.198,10.386z M184.12,40.344
			c0.665,0,1.279-0.06,1.838-0.181c0.561-0.121,1.091-0.302,1.59-0.544c0.498-0.242,0.98-0.54,1.443-0.894
			c0.465-0.354,0.934-0.773,1.406-1.257v-4.52c-1.891,0-3.471,0.119-4.74,0.357c-1.271,0.239-2.29,0.544-3.061,0.915
			c-0.77,0.372-1.317,0.805-1.642,1.3c-0.323,0.495-0.486,1.034-0.486,1.617c0,1.149,0.337,1.971,1.011,2.466
			C182.156,40.097,183.035,40.344,184.12,40.344z M195.022,10.386c0,0.492-0.097,0.952-0.289,1.383
			c-0.193,0.43-0.457,0.803-0.788,1.118c-0.333,0.316-0.723,0.566-1.17,0.751c-0.446,0.184-0.915,0.276-1.404,0.276
			c-0.491,0-0.956-0.092-1.394-0.276c-0.438-0.185-0.817-0.434-1.142-0.751c-0.323-0.316-0.581-0.688-0.775-1.118
			c-0.193-0.43-0.289-0.891-0.289-1.383c0-0.509,0.096-0.987,0.289-1.435c0.193-0.447,0.451-0.838,0.775-1.171
			c0.325-0.333,0.705-0.596,1.142-0.79c0.438-0.192,0.903-0.289,1.394-0.289c0.489,0,0.958,0.097,1.404,0.289
			c0.446,0.194,0.836,0.457,1.17,0.79c0.332,0.333,0.595,0.724,0.788,1.171C194.924,9.399,195.022,9.877,195.022,10.386z"/>
		<linearGradient id="SVGID_7_" gradientUnits="userSpaceOnUse" x1="67.4785" y1="7.5499" x2="601.6249" y2="108.7694">
			<stop  offset="0.0112" style="stop-color:#E92327"/>
			<stop  offset="0.2571" style="stop-color:#E92030"/>
			<stop  offset="0.2736" style="stop-color:#E9252F"/>
			<stop  offset="0.4909" style="stop-color:#EC4F2B"/>
			<stop  offset="0.6088" style="stop-color:#EE5B29"/>
			<stop  offset="0.6177" style="stop-color:#ED5A29"/>
			<stop  offset="0.8311" style="stop-color:#EC4B2A"/>
			<stop  offset="1" style="stop-color:#EC462A"/>
		</linearGradient>
		<path fill="url(#SVGID_7_)" d="M212.435,16.915c1.156,0,2.242,0.119,3.258,0.356s1.944,0.583,2.784,1.04h7.748v2.421
			c0,0.404-0.104,0.72-0.315,0.948c-0.21,0.228-0.569,0.386-1.077,0.474l-2.416,0.448c0.174,0.457,0.311,0.939,0.407,1.448
			s0.145,1.044,0.145,1.606c0,1.334-0.268,2.54-0.802,3.62c-0.534,1.079-1.269,1.996-2.206,2.751
			c-0.937,0.755-2.049,1.338-3.336,1.751c-1.286,0.412-2.683,0.618-4.19,0.618c-1.016,0-2.004-0.096-2.967-0.29
			c-0.841,0.513-1.262,1.088-1.262,1.724c0,0.548,0.25,0.951,0.749,1.207c0.499,0.256,1.156,0.437,1.97,0.543
			c0.814,0.106,1.737,0.159,2.772,0.159c1.033,0,2.091,0.044,3.177,0.133c1.086,0.088,2.144,0.242,3.179,0.462
			c1.033,0.221,1.956,0.568,2.77,1.044c0.814,0.475,1.471,1.123,1.97,1.941c0.499,0.819,0.749,1.871,0.749,3.156
			c0,1.198-0.294,2.36-0.881,3.487c-0.587,1.126-1.435,2.13-2.548,3.011c-1.112,0.88-2.473,1.589-4.084,2.126
			c-1.611,0.537-3.449,0.805-5.517,0.805c-2.049,0-3.825-0.198-5.332-0.593c-1.505-0.395-2.753-0.921-3.742-1.579
			c-0.99-0.658-1.731-1.418-2.22-2.277c-0.491-0.86-0.735-1.755-0.735-2.686c0-1.264,0.385-2.326,1.154-3.185
			c0.771-0.86,1.84-1.544,3.205-2.054c-0.665-0.369-1.199-0.859-1.602-1.474c-0.402-0.614-0.604-1.412-0.604-2.396
			c0-0.404,0.07-0.82,0.21-1.251c0.14-0.429,0.354-0.855,0.643-1.277c0.289-0.421,0.653-0.82,1.091-1.198
			c0.438-0.377,0.954-0.715,1.549-1.013c-1.366-0.737-2.438-1.72-3.218-2.949c-0.778-1.228-1.168-2.667-1.168-4.317
			c0-1.334,0.267-2.54,0.8-3.619c0.535-1.08,1.279-2.001,2.233-2.764c0.954-0.764,2.083-1.347,3.388-1.751
			C209.472,17.116,210.894,16.915,212.435,16.915z M219.554,45.532c0-0.537-0.157-0.976-0.474-1.317
			c-0.315-0.34-0.744-0.604-1.286-0.793c-0.544-0.188-1.178-0.327-1.905-0.416c-0.727-0.09-1.496-0.135-2.312-0.135
			c-0.814,0-1.654,0-2.521,0c-0.867,0-1.703-0.096-2.509-0.289c-0.735,0.404-1.327,0.882-1.773,1.435
			c-0.446,0.552-0.669,1.188-0.669,1.908c0,0.474,0.118,0.917,0.354,1.33c0.236,0.412,0.612,0.767,1.129,1.066
			c0.516,0.298,1.187,0.53,2.009,0.698c0.824,0.166,1.83,0.25,3.022,0.25c1.207,0,2.25-0.094,3.126-0.282s1.597-0.448,2.167-0.78
			c0.569-0.331,0.985-0.726,1.247-1.182C219.422,46.566,219.554,46.07,219.554,45.532z M212.435,30.235
			c0.805,0,1.507-0.109,2.102-0.328c0.595-0.22,1.091-0.522,1.484-0.909c0.393-0.386,0.691-0.851,0.893-1.395
			c0.202-0.544,0.303-1.141,0.303-1.79c0-1.334-0.398-2.391-1.195-3.172s-1.992-1.171-3.586-1.171c-1.594,0-2.787,0.391-3.584,1.171
			s-1.195,1.838-1.195,3.172c0,0.632,0.101,1.22,0.301,1.764c0.202,0.544,0.499,1.013,0.894,1.408
			c0.393,0.395,0.893,0.702,1.496,0.922C210.951,30.125,211.648,30.235,212.435,30.235z"/>
		<linearGradient id="SVGID_8_" gradientUnits="userSpaceOnUse" x1="69.2444" y1="-1.7688" x2="603.3907" y2="99.4508">
			<stop  offset="0.0112" style="stop-color:#E92327"/>
			<stop  offset="0.2571" style="stop-color:#E92030"/>
			<stop  offset="0.2736" style="stop-color:#E9252F"/>
			<stop  offset="0.4909" style="stop-color:#EC4F2B"/>
			<stop  offset="0.6088" style="stop-color:#EE5B29"/>
			<stop  offset="0.6177" style="stop-color:#ED5A29"/>
			<stop  offset="0.8311" style="stop-color:#EC4B2A"/>
			<stop  offset="1" style="stop-color:#EC462A"/>
		</linearGradient>
		<path fill="url(#SVGID_8_)" d="M241.432,16.968c1.698,0,3.261,0.272,4.689,0.816c1.426,0.545,2.657,1.339,3.69,2.383
			s1.838,2.326,2.416,3.843c0.578,1.518,0.867,3.251,0.867,5.199c0,0.492-0.022,0.899-0.065,1.224
			c-0.044,0.325-0.123,0.58-0.238,0.764c-0.113,0.185-0.267,0.316-0.458,0.395c-0.193,0.079-0.439,0.119-0.737,0.119h-16.652
			c0.193,2.773,0.937,4.809,2.233,6.107c1.296,1.299,3.011,1.948,5.147,1.948c1.052,0,1.958-0.122,2.719-0.369
			c0.763-0.245,1.428-0.517,1.997-0.816c0.568-0.298,1.067-0.57,1.496-0.817c0.429-0.245,0.845-0.369,1.248-0.369
			c0.262,0,0.489,0.053,0.682,0.158c0.193,0.105,0.359,0.255,0.499,0.447l1.891,2.369c-0.718,0.843-1.524,1.549-2.416,2.12
			c-0.894,0.57-1.826,1.027-2.798,1.369c-0.973,0.342-1.961,0.583-2.969,0.724c-1.007,0.14-1.984,0.21-2.929,0.21
			c-1.872,0-3.615-0.312-5.226-0.935c-1.611-0.623-3.013-1.544-4.203-2.764c-1.19-1.219-2.127-2.729-2.81-4.528
			c-0.684-1.799-1.024-3.883-1.024-6.252c0-1.843,0.298-3.576,0.893-5.199c0.595-1.623,1.448-3.036,2.562-4.238
			c1.112-1.202,2.468-2.155,4.07-2.857C237.61,17.318,239.418,16.968,241.432,16.968z M241.564,21.627
			c-1.891,0-3.37,0.536-4.439,1.606c-1.069,1.071-1.751,2.589-2.049,4.555h12.187c0-0.842-0.115-1.636-0.342-2.382
			c-0.227-0.746-0.578-1.4-1.05-1.961s-1.069-1.005-1.785-1.33C243.368,21.789,242.526,21.627,241.564,21.627z"/>
		<linearGradient id="SVGID_9_" gradientUnits="userSpaceOnUse" x1="70.6651" y1="-9.2658" x2="604.8114" y2="91.9537">
			<stop  offset="0.0112" style="stop-color:#E92327"/>
			<stop  offset="0.2571" style="stop-color:#E92030"/>
			<stop  offset="0.2736" style="stop-color:#E9252F"/>
			<stop  offset="0.4909" style="stop-color:#EC4F2B"/>
			<stop  offset="0.6088" style="stop-color:#EE5B29"/>
			<stop  offset="0.6177" style="stop-color:#ED5A29"/>
			<stop  offset="0.8311" style="stop-color:#EC4B2A"/>
			<stop  offset="1" style="stop-color:#EC462A"/>
		</linearGradient>
		<path fill="url(#SVGID_9_)" d="M274.447,17.388v17.164c0,1.649,0.381,2.927,1.142,3.83c0.761,0.904,1.905,1.355,3.429,1.355
			c1.12,0,2.17-0.25,3.152-0.75c0.98-0.5,1.908-1.189,2.784-2.067V17.388h6.488v27.01h-3.967c-0.84,0-1.392-0.395-1.654-1.185
			l-0.446-2.158c-0.561,0.562-1.139,1.075-1.734,1.54c-0.595,0.465-1.231,0.86-1.905,1.184c-0.674,0.326-1.401,0.58-2.18,0.764
			c-0.778,0.185-1.614,0.277-2.507,0.277c-1.472,0-2.772-0.251-3.901-0.751c-1.13-0.5-2.081-1.206-2.851-2.119
			c-0.771-0.912-1.353-1.996-1.746-3.252c-0.395-1.254-0.592-2.637-0.592-4.146V17.388H274.447z"/>
		<linearGradient id="SVGID_10_" gradientUnits="userSpaceOnUse" x1="71.5192" y1="-13.7732" x2="605.6656" y2="87.4463">
			<stop  offset="0.0112" style="stop-color:#E92327"/>
			<stop  offset="0.2571" style="stop-color:#E92030"/>
			<stop  offset="0.2736" style="stop-color:#E9252F"/>
			<stop  offset="0.4909" style="stop-color:#EC4F2B"/>
			<stop  offset="0.6088" style="stop-color:#EE5B29"/>
			<stop  offset="0.6177" style="stop-color:#ED5A29"/>
			<stop  offset="0.8311" style="stop-color:#EC4B2A"/>
			<stop  offset="1" style="stop-color:#EC462A"/>
		</linearGradient>
		<path fill="url(#SVGID_10_)" d="M298.376,44.398v-27.01h3.966c0.84,0,1.392,0.395,1.655,1.185l0.446,2.132
			c0.542-0.562,1.115-1.07,1.72-1.527c0.604-0.457,1.243-0.851,1.917-1.185c0.674-0.333,1.397-0.587,2.167-0.763
			c0.771-0.175,1.611-0.263,2.522-0.263c1.471,0,2.775,0.25,3.913,0.75c1.139,0.5,2.09,1.202,2.851,2.106
			c0.761,0.905,1.339,1.984,1.734,3.238c0.393,1.255,0.59,2.638,0.59,4.147v17.19h-6.488v-17.19c0-1.65-0.38-2.927-1.142-3.83
			c-0.761-0.904-1.903-1.356-3.427-1.356c-1.122,0-2.172,0.255-3.152,0.764c-0.982,0.51-1.91,1.202-2.786,2.079v19.534H298.376z"/>
		<linearGradient id="SVGID_11_" gradientUnits="userSpaceOnUse" x1="73.841" y1="-26.0255" x2="607.9874" y2="75.194">
			<stop  offset="0.0112" style="stop-color:#E92327"/>
			<stop  offset="0.2571" style="stop-color:#E92030"/>
			<stop  offset="0.2736" style="stop-color:#E9252F"/>
			<stop  offset="0.4909" style="stop-color:#EC4F2B"/>
			<stop  offset="0.6088" style="stop-color:#EE5B29"/>
			<stop  offset="0.6177" style="stop-color:#ED5A29"/>
			<stop  offset="0.8311" style="stop-color:#EC4B2A"/>
			<stop  offset="1" style="stop-color:#EC462A"/>
		</linearGradient>
		<path fill="url(#SVGID_11_)" d="M347.202,44.398c-0.84,0-1.392-0.395-1.654-1.185l-0.525-2.606
			c-0.561,0.632-1.147,1.203-1.761,1.712c-0.612,0.509-1.274,0.947-1.982,1.316c-0.71,0.369-1.471,0.654-2.286,0.856
			c-0.814,0.201-1.693,0.303-2.639,0.303c-1.471,0-2.82-0.308-4.046-0.922c-1.226-0.614-2.281-1.505-3.165-2.672
			c-0.884-1.167-1.566-2.61-2.049-4.331c-0.48-1.719-0.722-3.685-0.722-5.897c0-2,0.272-3.86,0.814-5.581
			c0.542-1.719,1.322-3.211,2.338-4.475c1.016-1.264,2.233-2.25,3.651-2.962c1.419-0.711,3.011-1.066,4.781-1.066
			c1.505,0,2.792,0.242,3.861,0.724c1.067,0.483,2.021,1.128,2.863,1.935V5.279h6.488v39.119H347.202z M338.562,39.633
			c1.348,0,2.495-0.28,3.441-0.842s1.838-1.36,2.68-2.396v-12.11c-0.735-0.895-1.537-1.527-2.404-1.896
			c-0.865-0.369-1.799-0.552-2.796-0.552c-0.982,0-1.871,0.184-2.666,0.552c-0.799,0.369-1.472,0.926-2.023,1.672
			c-0.552,0.746-0.976,1.694-1.274,2.844c-0.298,1.149-0.446,2.505-0.446,4.066c0,1.58,0.127,2.918,0.38,4.015
			c0.255,1.097,0.617,1.992,1.091,2.685c0.472,0.693,1.05,1.194,1.734,1.501C336.959,39.48,337.72,39.633,338.562,39.633z"/>
	</g>
	<g>
		<linearGradient id="SVGID_12_" gradientUnits="userSpaceOnUse" x1="20.5086" y1="67.8046" x2="554.6549" y2="169.0241">
			<stop  offset="0.0112" style="stop-color:#E92327"/>
			<stop  offset="0.2571" style="stop-color:#E92030"/>
			<stop  offset="0.2736" style="stop-color:#E9252F"/>
			<stop  offset="0.4909" style="stop-color:#EC4F2B"/>
			<stop  offset="0.6088" style="stop-color:#EE5B29"/>
			<stop  offset="0.6177" style="stop-color:#ED5A29"/>
			<stop  offset="0.8311" style="stop-color:#EC4B2A"/>
			<stop  offset="1" style="stop-color:#EC462A"/>
		</linearGradient>
		<path fill="url(#SVGID_12_)" d="M45.83,59.837h5.937c0.612,0,1.125,0.144,1.536,0.434c0.412,0.289,0.687,0.68,0.828,1.171
			l6.462,22.772c0.157,0.562,0.301,1.171,0.433,1.829c0.132,0.658,0.258,1.356,0.381,2.093c0.14-0.737,0.292-1.435,0.46-2.093
			c0.166-0.658,0.345-1.267,0.537-1.829l7.461-22.772c0.14-0.404,0.416-0.772,0.828-1.106c0.41-0.333,0.915-0.5,1.51-0.5h2.074
			c0.614,0,1.12,0.144,1.524,0.434c0.404,0.289,0.682,0.68,0.841,1.171l7.406,22.772c0.385,1.123,0.718,2.369,0.999,3.738
			c0.121-0.685,0.25-1.343,0.38-1.975c0.132-0.631,0.267-1.219,0.409-1.763l6.46-22.772c0.123-0.439,0.395-0.817,0.814-1.132
			c0.421-0.316,0.929-0.474,1.524-0.474h5.542L88.381,97.903h-6.382l-8.3-26.01c-0.104-0.333-0.214-0.693-0.328-1.079
			c-0.113-0.386-0.222-0.799-0.328-1.237c-0.104,0.439-0.214,0.852-0.328,1.237c-0.113,0.386-0.222,0.746-0.328,1.079l-8.379,26.01
			h-6.382L45.83,59.837z"/>
		<linearGradient id="SVGID_13_" gradientUnits="userSpaceOnUse" x1="20.7297" y1="66.6377" x2="554.876" y2="167.8572">
			<stop  offset="0.0112" style="stop-color:#E92327"/>
			<stop  offset="0.2571" style="stop-color:#E92030"/>
			<stop  offset="0.2736" style="stop-color:#E9252F"/>
			<stop  offset="0.4909" style="stop-color:#EC4F2B"/>
			<stop  offset="0.6088" style="stop-color:#EE5B29"/>
			<stop  offset="0.6177" style="stop-color:#ED5A29"/>
			<stop  offset="0.8311" style="stop-color:#EC4B2A"/>
			<stop  offset="1" style="stop-color:#EC462A"/>
		</linearGradient>
		<path fill="url(#SVGID_13_)" d="M114.385,70.472c2.014,0,3.839,0.325,5.477,0.974c1.636,0.649,3.034,1.571,4.19,2.764
			c1.156,1.194,2.049,2.65,2.678,4.37c0.631,1.72,0.946,3.642,0.946,5.765c0,2.141-0.315,4.072-0.946,5.791
			c-0.629,1.72-1.522,3.186-2.678,4.396c-1.156,1.211-2.553,2.141-4.19,2.791c-1.638,0.649-3.463,0.974-5.477,0.974
			c-2.013,0-3.844-0.325-5.489-0.974c-1.647-0.65-3.051-1.58-4.215-2.791c-1.165-1.211-2.067-2.676-2.705-4.396
			c-0.64-1.719-0.959-3.65-0.959-5.791c0-2.124,0.32-4.045,0.959-5.765c0.638-1.72,1.541-3.176,2.705-4.37
			c1.165-1.194,2.568-2.115,4.215-2.764C110.541,70.797,112.373,70.472,114.385,70.472z M114.385,93.296
			c2.242,0,3.901-0.754,4.978-2.264c1.077-1.509,1.616-3.72,1.616-6.634c0-2.913-0.539-5.133-1.616-6.661
			c-1.077-1.526-2.736-2.29-4.978-2.29c-2.276,0-3.957,0.768-5.043,2.303c-1.086,1.536-1.628,3.751-1.628,6.647
			c0,2.896,0.542,5.103,1.628,6.621C110.428,92.537,112.109,93.296,114.385,93.296z"/>
		<linearGradient id="SVGID_14_" gradientUnits="userSpaceOnUse" x1="21.6624" y1="61.7156" x2="555.8088" y2="162.9351">
			<stop  offset="0.0112" style="stop-color:#E92327"/>
			<stop  offset="0.2571" style="stop-color:#E92030"/>
			<stop  offset="0.2736" style="stop-color:#E9252F"/>
			<stop  offset="0.4909" style="stop-color:#EC4F2B"/>
			<stop  offset="0.6088" style="stop-color:#EE5B29"/>
			<stop  offset="0.6177" style="stop-color:#ED5A29"/>
			<stop  offset="0.8311" style="stop-color:#EC4B2A"/>
			<stop  offset="1" style="stop-color:#EC462A"/>
		</linearGradient>
		<path fill="url(#SVGID_14_)" d="M132.746,97.903v-27.01h3.808c0.665,0,1.129,0.123,1.392,0.369
			c0.262,0.246,0.438,0.668,0.525,1.264l0.393,3.264c0.963-1.667,2.093-2.983,3.389-3.948c1.296-0.965,2.748-1.448,4.361-1.448
			c1.33,0,2.433,0.308,3.309,0.922l-0.841,4.87c-0.051,0.316-0.166,0.54-0.34,0.671c-0.176,0.132-0.412,0.198-0.71,0.198
			c-0.263,0-0.622-0.062-1.077-0.185c-0.455-0.122-1.059-0.184-1.813-0.184c-1.348,0-2.503,0.373-3.466,1.118
			c-0.963,0.746-1.778,1.839-2.444,3.278v16.822H132.746z"/>
		<linearGradient id="SVGID_15_" gradientUnits="userSpaceOnUse" x1="23.3305" y1="52.9129" x2="557.4769" y2="154.1324">
			<stop  offset="0.0112" style="stop-color:#E92327"/>
			<stop  offset="0.2571" style="stop-color:#E92030"/>
			<stop  offset="0.2736" style="stop-color:#E9252F"/>
			<stop  offset="0.4909" style="stop-color:#EC4F2B"/>
			<stop  offset="0.6088" style="stop-color:#EE5B29"/>
			<stop  offset="0.6177" style="stop-color:#ED5A29"/>
			<stop  offset="0.8311" style="stop-color:#EC4B2A"/>
			<stop  offset="1" style="stop-color:#EC462A"/>
		</linearGradient>
		<path fill="url(#SVGID_15_)" d="M160.772,58.783v22.403h1.207c0.438,0,0.78-0.062,1.024-0.185
			c0.245-0.122,0.508-0.351,0.788-0.684l6.698-8.293c0.298-0.351,0.612-0.627,0.946-0.829c0.332-0.201,0.77-0.303,1.313-0.303h5.936
			l-8.379,10.03c-0.298,0.369-0.604,0.706-0.918,1.013c-0.316,0.308-0.657,0.575-1.024,0.803c0.368,0.263,0.691,0.571,0.971,0.922
			c0.28,0.351,0.559,0.728,0.84,1.132l8.984,13.11h-5.859c-0.508,0-0.937-0.087-1.286-0.263c-0.351-0.175-0.667-0.474-0.946-0.895
			l-6.855-10.241c-0.263-0.404-0.527-0.667-0.788-0.789c-0.263-0.123-0.657-0.185-1.182-0.185h-1.471v12.373h-6.488V58.783H160.772z
			"/>
		<linearGradient id="SVGID_16_" gradientUnits="userSpaceOnUse" x1="23.3828" y1="52.6371" x2="557.5291" y2="153.8566">
			<stop  offset="0.0112" style="stop-color:#E92327"/>
			<stop  offset="0.2571" style="stop-color:#E92030"/>
			<stop  offset="0.2736" style="stop-color:#E9252F"/>
			<stop  offset="0.4909" style="stop-color:#EC4F2B"/>
			<stop  offset="0.6088" style="stop-color:#EE5B29"/>
			<stop  offset="0.6177" style="stop-color:#ED5A29"/>
			<stop  offset="0.8311" style="stop-color:#EC4B2A"/>
			<stop  offset="1" style="stop-color:#EC462A"/>
		</linearGradient>
		<path fill="url(#SVGID_16_)" d="M199.172,76.158c-0.176,0.281-0.359,0.479-0.552,0.593c-0.193,0.115-0.438,0.171-0.735,0.171
			c-0.315,0-0.652-0.087-1.011-0.263c-0.359-0.175-0.775-0.373-1.248-0.593c-0.472-0.219-1.011-0.416-1.614-0.592
			c-0.605-0.175-1.318-0.263-2.141-0.263c-1.279,0-2.286,0.272-3.022,0.816c-0.735,0.545-1.103,1.255-1.103,2.132
			c0,0.579,0.188,1.066,0.564,1.461c0.376,0.395,0.876,0.741,1.498,1.04c0.621,0.298,1.327,0.566,2.114,0.803
			c0.788,0.237,1.594,0.496,2.418,0.776c0.823,0.281,1.628,0.602,2.416,0.961c0.787,0.36,1.493,0.817,2.114,1.369
			c0.621,0.553,1.12,1.216,1.498,1.988c0.376,0.772,0.564,1.702,0.564,2.79c0,1.3-0.236,2.497-0.71,3.594
			c-0.472,1.097-1.165,2.045-2.074,2.843c-0.911,0.799-2.037,1.422-3.376,1.87c-1.339,0.447-2.876,0.671-4.61,0.671
			c-0.929,0-1.835-0.084-2.717-0.251c-0.886-0.167-1.734-0.399-2.548-0.698c-0.816-0.298-1.568-0.649-2.259-1.053
			c-0.693-0.404-1.301-0.843-1.826-1.317l1.498-2.474c0.192-0.298,0.419-0.527,0.682-0.685c0.263-0.157,0.595-0.237,0.999-0.237
			c0.402,0,0.783,0.115,1.142,0.343c0.359,0.228,0.775,0.474,1.247,0.737c0.474,0.263,1.029,0.509,1.669,0.737
			c0.638,0.228,1.448,0.342,2.43,0.342c0.77,0,1.431-0.092,1.982-0.276c0.552-0.185,1.007-0.426,1.366-0.724s0.621-0.645,0.788-1.04
			c0.166-0.395,0.25-0.803,0.25-1.224c0-0.632-0.188-1.149-0.566-1.553c-0.376-0.404-0.876-0.755-1.496-1.053
			c-0.622-0.298-1.33-0.566-2.127-0.803s-1.611-0.496-2.444-0.776c-0.831-0.28-1.645-0.61-2.442-0.988
			c-0.797-0.377-1.507-0.856-2.127-1.435c-0.622-0.579-1.122-1.29-1.498-2.132c-0.376-0.842-0.564-1.86-0.564-3.053
			c0-1.106,0.219-2.159,0.657-3.159c0.438-1,1.081-1.873,1.931-2.62c0.848-0.746,1.908-1.342,3.177-1.79
			c1.271-0.448,2.736-0.671,4.4-0.671c1.857,0,3.547,0.307,5.07,0.921c1.524,0.615,2.792,1.422,3.808,2.422L199.172,76.158z"/>
		<linearGradient id="SVGID_17_" gradientUnits="userSpaceOnUse" x1="25.1278" y1="43.4282" x2="559.2742" y2="144.6477">
			<stop  offset="0.0112" style="stop-color:#E92327"/>
			<stop  offset="0.2571" style="stop-color:#E92030"/>
			<stop  offset="0.2736" style="stop-color:#E9252F"/>
			<stop  offset="0.4909" style="stop-color:#EC4F2B"/>
			<stop  offset="0.6088" style="stop-color:#EE5B29"/>
			<stop  offset="0.6177" style="stop-color:#ED5A29"/>
			<stop  offset="0.8311" style="stop-color:#EC4B2A"/>
			<stop  offset="1" style="stop-color:#EC462A"/>
		</linearGradient>
		<path fill="url(#SVGID_17_)" d="M206.134,97.903V58.783h6.486v15.032c1.052-1,2.208-1.808,3.468-2.422
			c1.26-0.614,2.739-0.921,4.439-0.921c1.471,0,2.775,0.25,3.913,0.75c1.139,0.5,2.09,1.202,2.851,2.106
			c0.761,0.905,1.339,1.984,1.734,3.238c0.393,1.255,0.59,2.638,0.59,4.147v17.19h-6.488v-17.19c0-1.65-0.38-2.927-1.142-3.83
			c-0.761-0.904-1.903-1.356-3.427-1.356c-1.122,0-2.172,0.255-3.152,0.764c-0.982,0.51-1.91,1.202-2.786,2.079v19.534H206.134z"/>
		<linearGradient id="SVGID_18_" gradientUnits="userSpaceOnUse" x1="25.3441" y1="42.287" x2="559.4904" y2="143.5065">
			<stop  offset="0.0112" style="stop-color:#E92327"/>
			<stop  offset="0.2571" style="stop-color:#E92030"/>
			<stop  offset="0.2736" style="stop-color:#E9252F"/>
			<stop  offset="0.4909" style="stop-color:#EC4F2B"/>
			<stop  offset="0.6088" style="stop-color:#EE5B29"/>
			<stop  offset="0.6177" style="stop-color:#ED5A29"/>
			<stop  offset="0.8311" style="stop-color:#EC4B2A"/>
			<stop  offset="1" style="stop-color:#EC462A"/>
		</linearGradient>
		<path fill="url(#SVGID_18_)" d="M247.501,70.472c2.014,0,3.839,0.325,5.477,0.974c1.636,0.649,3.034,1.571,4.19,2.764
			c1.156,1.194,2.049,2.65,2.678,4.37c0.631,1.72,0.946,3.642,0.946,5.765c0,2.141-0.315,4.072-0.946,5.791
			c-0.629,1.72-1.522,3.186-2.678,4.396c-1.156,1.211-2.553,2.141-4.19,2.791c-1.638,0.649-3.463,0.974-5.477,0.974
			c-2.013,0-3.844-0.325-5.489-0.974c-1.647-0.65-3.051-1.58-4.215-2.791c-1.165-1.211-2.067-2.676-2.705-4.396
			c-0.64-1.719-0.959-3.65-0.959-5.791c0-2.124,0.32-4.045,0.959-5.765c0.638-1.72,1.541-3.176,2.705-4.37
			c1.165-1.194,2.568-2.115,4.215-2.764C243.657,70.797,245.488,70.472,247.501,70.472z M247.501,93.296
			c2.242,0,3.901-0.754,4.978-2.264c1.077-1.509,1.616-3.72,1.616-6.634c0-2.913-0.539-5.133-1.616-6.661
			c-1.077-1.526-2.736-2.29-4.978-2.29c-2.276,0-3.957,0.768-5.043,2.303c-1.086,1.536-1.628,3.751-1.628,6.647
			c0,2.896,0.542,5.103,1.628,6.621C243.544,92.537,245.225,93.296,247.501,93.296z"/>
		<linearGradient id="SVGID_19_" gradientUnits="userSpaceOnUse" x1="25.4907" y1="41.5134" x2="559.637" y2="142.7329">
			<stop  offset="0.0112" style="stop-color:#E92327"/>
			<stop  offset="0.2571" style="stop-color:#E92030"/>
			<stop  offset="0.2736" style="stop-color:#E9252F"/>
			<stop  offset="0.4909" style="stop-color:#EC4F2B"/>
			<stop  offset="0.6088" style="stop-color:#EE5B29"/>
			<stop  offset="0.6177" style="stop-color:#ED5A29"/>
			<stop  offset="0.8311" style="stop-color:#EC4B2A"/>
			<stop  offset="1" style="stop-color:#EC462A"/>
		</linearGradient>
		<path fill="url(#SVGID_19_)" d="M265.861,106.721V70.893h3.966c0.421,0,0.778,0.097,1.077,0.29
			c0.298,0.193,0.489,0.492,0.578,0.895l0.525,2.501c1.086-1.246,2.332-2.256,3.743-3.028c1.409-0.772,3.059-1.159,4.951-1.159
			c1.471,0,2.815,0.308,4.032,0.922c1.216,0.615,2.267,1.505,3.152,2.672c0.884,1.167,1.566,2.606,2.049,4.317
			c0.481,1.712,0.722,3.673,0.722,5.884c0,2.018-0.272,3.888-0.814,5.607c-0.542,1.72-1.317,3.211-2.324,4.475
			c-1.007,1.264-2.225,2.251-3.651,2.962c-1.428,0.711-3.025,1.066-4.793,1.066c-1.524,0-2.816-0.233-3.875-0.698
			c-1.06-0.465-2.009-1.11-2.851-1.935v11.056H265.861z M278.468,75.526c-1.348,0-2.5,0.286-3.454,0.856s-1.842,1.373-2.666,2.409
			V90.9c0.737,0.913,1.537,1.549,2.404,1.908c0.867,0.36,1.799,0.54,2.798,0.54c0.98,0,1.869-0.184,2.666-0.552
			c0.797-0.369,1.471-0.93,2.021-1.685c0.552-0.754,0.976-1.707,1.274-2.856s0.448-2.505,0.448-4.067
			c0-1.58-0.128-2.918-0.381-4.015c-0.255-1.096-0.617-1.987-1.091-2.672c-0.472-0.684-1.047-1.184-1.72-1.501
			C280.092,75.684,279.326,75.526,278.468,75.526z"/>
		<linearGradient id="SVGID_20_" gradientUnits="userSpaceOnUse" x1="27.2788" y1="32.0775" x2="561.4251" y2="133.297">
			<stop  offset="0.0112" style="stop-color:#E92327"/>
			<stop  offset="0.2571" style="stop-color:#E92030"/>
			<stop  offset="0.2736" style="stop-color:#E9252F"/>
			<stop  offset="0.4909" style="stop-color:#EC4F2B"/>
			<stop  offset="0.6088" style="stop-color:#EE5B29"/>
			<stop  offset="0.6177" style="stop-color:#ED5A29"/>
			<stop  offset="0.8311" style="stop-color:#EC4B2A"/>
			<stop  offset="1" style="stop-color:#EC462A"/>
		</linearGradient>
		<path fill="url(#SVGID_20_)" d="M311.564,76.158c-0.176,0.281-0.359,0.479-0.552,0.593c-0.193,0.115-0.438,0.171-0.735,0.171
			c-0.315,0-0.652-0.087-1.011-0.263c-0.359-0.175-0.775-0.373-1.248-0.593c-0.472-0.219-1.011-0.416-1.614-0.592
			c-0.605-0.175-1.318-0.263-2.141-0.263c-1.279,0-2.286,0.272-3.022,0.816c-0.735,0.545-1.103,1.255-1.103,2.132
			c0,0.579,0.188,1.066,0.564,1.461c0.376,0.395,0.876,0.741,1.498,1.04c0.621,0.298,1.327,0.566,2.114,0.803
			c0.788,0.237,1.594,0.496,2.418,0.776c0.823,0.281,1.628,0.602,2.416,0.961c0.787,0.36,1.493,0.817,2.114,1.369
			c0.621,0.553,1.12,1.216,1.498,1.988c0.376,0.772,0.564,1.702,0.564,2.79c0,1.3-0.236,2.497-0.71,3.594
			c-0.472,1.097-1.165,2.045-2.074,2.843c-0.911,0.799-2.037,1.422-3.376,1.87c-1.339,0.447-2.876,0.671-4.61,0.671
			c-0.929,0-1.835-0.084-2.717-0.251c-0.886-0.167-1.734-0.399-2.548-0.698c-0.816-0.298-1.568-0.649-2.259-1.053
			c-0.693-0.404-1.301-0.843-1.826-1.317l1.498-2.474c0.192-0.298,0.419-0.527,0.682-0.685c0.263-0.157,0.595-0.237,0.999-0.237
			c0.402,0,0.783,0.115,1.142,0.343s0.775,0.474,1.247,0.737c0.474,0.263,1.029,0.509,1.669,0.737
			c0.638,0.228,1.448,0.342,2.43,0.342c0.77,0,1.431-0.092,1.982-0.276c0.552-0.185,1.007-0.426,1.366-0.724s0.621-0.645,0.788-1.04
			c0.166-0.395,0.25-0.803,0.25-1.224c0-0.632-0.188-1.149-0.566-1.553c-0.376-0.404-0.876-0.755-1.496-1.053
			c-0.622-0.298-1.33-0.566-2.127-0.803s-1.611-0.496-2.444-0.776c-0.831-0.28-1.645-0.61-2.442-0.988
			c-0.797-0.377-1.507-0.856-2.127-1.435c-0.622-0.579-1.122-1.29-1.498-2.132c-0.376-0.842-0.564-1.86-0.564-3.053
			c0-1.106,0.219-2.159,0.657-3.159c0.438-1,1.081-1.873,1.931-2.62c0.848-0.746,1.908-1.342,3.177-1.79
			c1.271-0.448,2.736-0.671,4.4-0.671c1.857,0,3.547,0.307,5.07,0.921c1.524,0.615,2.792,1.422,3.808,2.422L311.564,76.158z"/>
	</g>
	<g>
		<linearGradient id="SVGID_21_" gradientUnits="userSpaceOnUse" x1="25.5261" y1="22.2996" x2="559.6724" y2="123.5191">
			<stop  offset="0.0112" style="stop-color:#E92327"/>
			<stop  offset="0.2571" style="stop-color:#E92030"/>
			<stop  offset="0.2736" style="stop-color:#E9252F"/>
			<stop  offset="0.4909" style="stop-color:#EC4F2B"/>
			<stop  offset="0.6088" style="stop-color:#EE5B29"/>
			<stop  offset="0.6177" style="stop-color:#ED5A29"/>
			<stop  offset="0.8311" style="stop-color:#EC4B2A"/>
			<stop  offset="1" style="stop-color:#EC462A"/>
		</linearGradient>
		<path fill="url(#SVGID_21_)" d="M322.125,96.617c-0.225,0.561-0.557,0.977-0.999,1.249c-0.441,0.272-0.895,0.41-1.36,0.41h-1.804
			l14.462-36.021c0.208-0.514,0.505-0.906,0.89-1.182c0.386-0.272,0.843-0.406,1.371-0.406h1.806L322.125,96.617z"/>
		<linearGradient id="SVGID_22_" gradientUnits="userSpaceOnUse" x1="26.0349" y1="19.6144" x2="560.1813" y2="120.8339">
			<stop  offset="0.0112" style="stop-color:#E92327"/>
			<stop  offset="0.2571" style="stop-color:#E92030"/>
			<stop  offset="0.2736" style="stop-color:#E9252F"/>
			<stop  offset="0.4909" style="stop-color:#EC4F2B"/>
			<stop  offset="0.6088" style="stop-color:#EE5B29"/>
			<stop  offset="0.6177" style="stop-color:#ED5A29"/>
			<stop  offset="0.8311" style="stop-color:#EC4B2A"/>
			<stop  offset="1" style="stop-color:#EC462A"/>
		</linearGradient>
		<path fill="url(#SVGID_22_)" d="M336.803,96.617c-0.225,0.561-0.557,0.977-0.999,1.249c-0.441,0.272-0.895,0.41-1.36,0.41h-1.804
			l14.462-36.021c0.208-0.514,0.505-0.906,0.89-1.182c0.386-0.272,0.843-0.406,1.371-0.406h1.806L336.803,96.617z"/>
	</g>
</g>
</svg>
