<?xml version="1.0" encoding="utf-8"?>
<!-- Generator: Adobe Illustrator 17.0.0, SVG Export Plug-In . SVG Version: 6.00 Build 0)  -->
<!DOCTYPE svg PUBLIC "-//W3C//DTD SVG 1.1//EN" "http://www.w3.org/Graphics/SVG/1.1/DTD/svg11.dtd">
<svg version="1.1" id="Layer_1" xmlns="http://www.w3.org/2000/svg" xmlns:xlink="http://www.w3.org/1999/xlink" x="0px" y="0px"
	 width="1280px" height="800px" viewBox="0 0 1280 800" enable-background="new 0 0 1280 800" xml:space="preserve">
<g>
	<linearGradient id="SVGID_1_" gradientUnits="userSpaceOnUse" x1="891.3179" y1="346.3758" x2="1060.2509" y2="204.6242">
		<stop  offset="0.0112" style="stop-color:#EA1C24"/>
		<stop  offset="0.2571" style="stop-color:#EA1B2E"/>
		<stop  offset="0.3317" style="stop-color:#EB2B2C"/>
		<stop  offset="0.5113" style="stop-color:#ED4D29"/>
		<stop  offset="0.6088" style="stop-color:#EE5A28"/>
		<stop  offset="0.6187" style="stop-color:#EE5928"/>
		<stop  offset="0.8315" style="stop-color:#EC492A"/>
		<stop  offset="1" style="stop-color:#EC442B"/>
	</linearGradient>
	<polygon fill="url(#SVGID_1_)" points="990.183,352 896.037,352 961.386,199 1055.532,199 	"/>
	<linearGradient id="SVGID_2_" gradientUnits="userSpaceOnUse" x1="977.7108" y1="396.3758" x2="1146.6437" y2="254.6242">
		<stop  offset="0.0112" style="stop-color:#EA1C24"/>
		<stop  offset="0.2571" style="stop-color:#EA1B2E"/>
		<stop  offset="0.3317" style="stop-color:#EB2B2C"/>
		<stop  offset="0.5113" style="stop-color:#ED4D29"/>
		<stop  offset="0.6088" style="stop-color:#EE5A28"/>
		<stop  offset="0.6187" style="stop-color:#EE5928"/>
		<stop  offset="0.8315" style="stop-color:#EC492A"/>
		<stop  offset="1" style="stop-color:#EC442B"/>
	</linearGradient>
	<polygon fill="url(#SVGID_2_)" points="1076.576,402 982.43,402 1047.778,249 1141.924,249 	"/>
	<g>
		<defs>
			<polygon id="SVGID_3_" points="1076.576,402 982.43,402 1047.778,249 1141.924,249 			"/>
		</defs>
		<clipPath id="SVGID_4_">
			<use xlink:href="#SVGID_3_"  overflow="visible"/>
		</clipPath>
		<g clip-path="url(#SVGID_4_)">
			<path opacity="0.8" fill="#FFFFFF" d="M1071.015,331.366v-8.626c-1.345,0-2.554-0.087-3.653-0.242l2.385,8.899
				C1070.158,331.378,1070.578,331.366,1071.015,331.366z"/>
			<path opacity="0.8" fill="#FFFFFF" d="M1060.021,281.978c0-8.554-3.123-14.393-8.318-17.923l7.514,28.041
				C1059.667,288.728,1060.021,285.397,1060.021,281.978z"/>
			<path opacity="0.8" fill="#FFFFFF" d="M1034.99,269.124c3.113,0.054,5.592,0.622,7.531,1.66l7.664-7.664
				c-4.044-2.246-9.126-3.298-14.857-3.298l-3.383,0v9.302H1034.99z"/>
			<path opacity="0.8" fill="#FFFFFF" d="M1057.959,352.475c-0.229-1.796-0.425-3.593-0.535-5.389l-0.98-0.262L1057.959,352.475z"/>
			<path opacity="0.8" fill="#FFFFFF" d="M1048.351,283.67c0,3.89-0.677,7.949-1.184,12.009c-0.612,3.824-1.218,7.513-1.33,11.56
				l3.885,14.498c2.074,2.51,4.888,4.14,8.269,5.063v0.338c-2.296,0.574-4.332,1.521-6.053,2.871l4.506,16.816l0.98,0.262
				c-0.065-1.068-0.109-2.136-0.109-3.205c0-5.052,1.574-11.986,12.432-12.485l-2.385-8.899
				c-8.707-1.231-10.047-7.017-10.047-12.274c0-4.736,0.676-9.472,1.353-14.207c0.188-1.317,0.375-2.621,0.548-3.919l-7.514-28.041
				c-0.488-0.332-0.994-0.644-1.518-0.936l-7.664,7.664C1046.692,273.017,1048.351,277.435,1048.351,283.67z"/>
			<path opacity="0.8" fill="#FFFFFF" d="M1048.351,283.67c0,3.89-0.677,7.949-1.184,12.009c-0.612,3.824-1.218,7.513-1.33,11.56
				l3.885,14.498c2.074,2.51,4.888,4.14,8.269,5.063v0.338c-2.296,0.574-4.332,1.521-6.053,2.871l4.506,16.816l0.98,0.262
				c-0.065-1.068-0.109-2.136-0.109-3.205c0-5.052,1.574-11.986,12.432-12.485l-2.385-8.899
				c-8.707-1.231-10.047-7.017-10.047-12.274c0-4.736,0.676-9.472,1.353-14.207c0.188-1.317,0.375-2.621,0.548-3.919l-7.514-28.041
				c-0.488-0.332-0.994-0.644-1.518-0.936l-7.664,7.664C1046.692,273.017,1048.351,277.435,1048.351,283.67z"/>
			<path opacity="0.8" fill="#FFFFFF" d="M1034.821,385.319h-2.875v9.303l3.552,0c12.305,0,22.073-4.8,24.122-17.811l-11.442-3.066
				C1047.321,381.191,1043.183,385.17,1034.821,385.319z"/>
			<path opacity="0.8" fill="#FFFFFF" d="M1045.859,343.987c-0.024,0.519-0.044,1.041-0.044,1.586c0,4.567,0.677,8.795,1.353,12.854
				c0.508,4.228,1.184,8.118,1.184,12.177c0,1.109-0.061,2.152-0.175,3.14l11.442,3.066c0.26-1.654,0.403-3.434,0.403-5.36
				c0-4.567-0.676-9.302-1.353-13.869c-0.252-1.702-0.493-3.404-0.71-5.106l-1.514-5.652L1045.859,343.987z"/>
			<path opacity="0.8" fill="#FFFFFF" d="M1045.859,343.987c-0.024,0.519-0.044,1.041-0.044,1.586c0,4.567,0.677,8.795,1.353,12.854
				c0.508,4.228,1.184,8.118,1.184,12.177c0,1.109-0.061,2.152-0.175,3.14l11.442,3.066c0.26-1.654,0.403-3.434,0.403-5.36
				c0-4.567-0.676-9.302-1.353-13.869c-0.252-1.702-0.493-3.404-0.71-5.106l-1.514-5.652L1045.859,343.987z"/>
			<path opacity="0.8" fill="#FFFFFF" d="M1045.814,308.532c0,5.906,1.418,10.191,3.908,13.204l-3.885-14.498
				C1045.826,307.666,1045.814,308.095,1045.814,308.532z"/>
			<path opacity="0.8" fill="#FFFFFF" d="M1045.814,308.532c0,5.906,1.418,10.191,3.908,13.204l-3.885-14.498
				C1045.826,307.666,1045.814,308.095,1045.814,308.532z"/>
			<path opacity="0.8" fill="#FFFFFF" d="M1045.814,308.532c0,5.906,1.418,10.191,3.908,13.204l-3.885-14.498
				C1045.826,307.666,1045.814,308.095,1045.814,308.532z"/>
			<path opacity="0.8" fill="#FFFFFF" d="M1051.939,330.008c-3.577,2.804-5.778,7.364-6.08,13.98l10.586,2.836L1051.939,330.008z"/>
			<path opacity="0.8" fill="#FFFFFF" d="M1051.939,330.008c-3.577,2.804-5.778,7.364-6.08,13.98l10.586,2.836L1051.939,330.008z"/>
			<path opacity="0.8" fill="#FFFFFF" d="M1051.939,330.008c-3.577,2.804-5.778,7.364-6.08,13.98l10.586,2.836L1051.939,330.008z"/>
		</g>
	</g>
	<g>
		<defs>
			<polygon id="SVGID_5_" points="990.183,352 896.037,352 961.386,199 1055.532,199 			"/>
		</defs>
		<clipPath id="SVGID_6_">
			<use xlink:href="#SVGID_5_"  overflow="visible"/>
		</clipPath>
		<g clip-path="url(#SVGID_6_)">
			<path opacity="0.8" fill="#FFFFFF" d="M967.027,281.524v-8.626c1.345,0,2.554-0.087,3.653-0.242l-2.385,8.899
				C967.884,281.536,967.464,281.524,967.027,281.524z"/>
			<path opacity="0.8" fill="#FFFFFF" d="M978.021,232.136c0-8.554,3.123-14.393,8.318-17.923l-7.514,28.041
				C978.375,238.886,978.021,235.555,978.021,232.136z"/>
			<path opacity="0.8" fill="#FFFFFF" d="M1003.052,219.282c-3.113,0.054-5.592,0.622-7.531,1.66l-7.664-7.664
				c4.044-2.246,9.126-3.298,14.857-3.298l3.383,0l0,9.302H1003.052z"/>
			<path opacity="0.8" fill="#FFFFFF" d="M980.083,302.633c0.229-1.796,0.425-3.593,0.535-5.389l0.98-0.262L980.083,302.633z"/>
			<path opacity="0.8" fill="#FFFFFF" d="M989.691,233.828c0,3.89,0.676,7.949,1.184,12.009c0.612,3.824,1.218,7.513,1.33,11.56
				l-3.885,14.498c-2.074,2.51-4.888,4.14-8.269,5.063v0.338c2.296,0.574,4.332,1.521,6.053,2.871l-4.506,16.816l-0.98,0.262
				c0.065-1.068,0.109-2.136,0.109-3.205c0-5.052-1.574-11.986-12.432-12.485l2.385-8.899c8.707-1.231,10.047-7.017,10.047-12.274
				c0-4.736-0.676-9.472-1.353-14.207c-0.188-1.317-0.375-2.621-0.548-3.919l7.514-28.041c0.488-0.332,0.994-0.644,1.518-0.936
				l7.664,7.664C991.35,223.175,989.691,227.593,989.691,233.828z"/>
			<path opacity="0.8" fill="#FFFFFF" d="M989.691,233.828c0,3.89,0.676,7.949,1.184,12.009c0.612,3.824,1.218,7.513,1.33,11.56
				l-3.885,14.498c-2.074,2.51-4.888,4.14-8.269,5.063v0.338c2.296,0.574,4.332,1.521,6.053,2.871l-4.506,16.816l-0.98,0.262
				c0.065-1.068,0.109-2.136,0.109-3.205c0-5.052-1.574-11.986-12.432-12.485l2.385-8.899c8.707-1.231,10.047-7.017,10.047-12.274
				c0-4.736-0.676-9.472-1.353-14.207c-0.188-1.317-0.375-2.621-0.548-3.919l7.514-28.041c0.488-0.332,0.994-0.644,1.518-0.936
				l7.664,7.664C991.35,223.175,989.691,227.593,989.691,233.828z"/>
			<path opacity="0.8" fill="#FFFFFF" d="M1003.221,335.477h2.875l0,9.303l-3.552,0c-12.305,0-22.073-4.8-24.122-17.811
				l11.442-3.066C990.721,331.349,994.859,335.328,1003.221,335.477z"/>
			<path opacity="0.8" fill="#FFFFFF" d="M992.183,294.145c0.024,0.519,0.044,1.041,0.044,1.586c0,4.567-0.676,8.795-1.353,12.854
				c-0.508,4.228-1.184,8.118-1.184,12.177c0,1.109,0.061,2.152,0.175,3.14l-11.442,3.066c-0.26-1.654-0.403-3.434-0.403-5.36
				c0-4.567,0.676-9.302,1.353-13.869c0.252-1.702,0.492-3.404,0.71-5.106l1.514-5.652L992.183,294.145z"/>
			<path opacity="0.8" fill="#FFFFFF" d="M992.183,294.145c0.024,0.519,0.044,1.041,0.044,1.586c0,4.567-0.676,8.795-1.353,12.854
				c-0.508,4.228-1.184,8.118-1.184,12.177c0,1.109,0.061,2.152,0.175,3.14l-11.442,3.066c-0.26-1.654-0.403-3.434-0.403-5.36
				c0-4.567,0.676-9.302,1.353-13.869c0.252-1.702,0.492-3.404,0.71-5.106l1.514-5.652L992.183,294.145z"/>
			<path opacity="0.8" fill="#FFFFFF" d="M992.228,258.69c0,5.906-1.418,10.191-3.908,13.204l3.885-14.498
				C992.216,257.824,992.228,258.253,992.228,258.69z"/>
			<path opacity="0.8" fill="#FFFFFF" d="M992.228,258.69c0,5.906-1.418,10.191-3.908,13.204l3.885-14.498
				C992.216,257.824,992.228,258.253,992.228,258.69z"/>
			<path opacity="0.8" fill="#FFFFFF" d="M992.228,258.69c0,5.906-1.418,10.191-3.908,13.204l3.885-14.498
				C992.216,257.824,992.228,258.253,992.228,258.69z"/>
			<path opacity="0.8" fill="#FFFFFF" d="M986.103,280.166c3.577,2.804,5.778,7.364,6.08,13.98l-10.586,2.836L986.103,280.166z"/>
			<path opacity="0.8" fill="#FFFFFF" d="M986.103,280.166c3.577,2.804,5.778,7.364,6.08,13.98l-10.586,2.836L986.103,280.166z"/>
			<path opacity="0.8" fill="#FFFFFF" d="M986.103,280.166c3.577,2.804,5.778,7.364,6.08,13.98l-10.586,2.836L986.103,280.166z"/>
		</g>
	</g>
</g>
<text transform="matrix(1 0 0 1 741.8032 458.3877)" fill="#FF1D25" font-family="'NexaLight'" font-size="55.8078" letter-spacing="-3">NICOLE RAUCH</text>
<text transform="matrix(1 0 0 1 750.6144 499.8731)"><tspan x="0" y="0" font-family="'Dosis-ExtraLight'" font-size="42">softwareentwicklung &amp;</tspan><tspan x="15.917" y="42" font-family="'Dosis-ExtraLight'" font-size="42">entwicklungscoaching</tspan></text>
<g>
	<g>
		<linearGradient id="SVGID_7_" gradientUnits="userSpaceOnUse" x1="255.9904" y1="364.877" x2="408.2417" y2="237.123">
			<stop  offset="0.0112" style="stop-color:#EA1C24"/>
			<stop  offset="0.2571" style="stop-color:#EA1B2E"/>
			<stop  offset="0.3317" style="stop-color:#EB2B2C"/>
			<stop  offset="0.5113" style="stop-color:#ED4D29"/>
			<stop  offset="0.6088" style="stop-color:#EE5A28"/>
			<stop  offset="0.6187" style="stop-color:#EE5928"/>
			<stop  offset="0.8315" style="stop-color:#EC492A"/>
			<stop  offset="1" style="stop-color:#EC442B"/>
		</linearGradient>
		<polygon fill="url(#SVGID_7_)" points="345.085,370 260.289,370 319.147,232 403.943,232 		"/>
		<linearGradient id="SVGID_8_" gradientUnits="userSpaceOnUse" x1="333.8029" y1="409.877" x2="486.0542" y2="282.123">
			<stop  offset="0.0112" style="stop-color:#EA1C24"/>
			<stop  offset="0.2571" style="stop-color:#EA1B2E"/>
			<stop  offset="0.3317" style="stop-color:#EB2B2C"/>
			<stop  offset="0.5113" style="stop-color:#ED4D29"/>
			<stop  offset="0.6088" style="stop-color:#EE5A28"/>
			<stop  offset="0.6187" style="stop-color:#EE5928"/>
			<stop  offset="0.8315" style="stop-color:#EC492A"/>
			<stop  offset="1" style="stop-color:#EC442B"/>
		</linearGradient>
		<polygon fill="url(#SVGID_8_)" points="422.897,415 338.102,415 396.96,277 481.756,277 		"/>
		<g>
			<defs>
				<polygon id="SVGID_9_" points="422.897,415 338.102,415 396.96,277 481.756,277 				"/>
			</defs>
			<clipPath id="SVGID_10_">
				<use xlink:href="#SVGID_9_"  overflow="visible"/>
			</clipPath>
			<g clip-path="url(#SVGID_10_)">
				<path opacity="0.8" fill="#FFFFFF" d="M417.889,351.646l0-7.769c-1.212,0-2.301-0.078-3.29-0.218l2.148,8.016
					C417.117,351.657,417.495,351.646,417.889,351.646z"/>
				<path opacity="0.8" fill="#FFFFFF" d="M407.987,307.163c0-7.704-2.812-12.964-7.492-16.143l6.767,25.256
					C407.668,313.242,407.987,310.242,407.987,307.163z"/>
				<path opacity="0.8" fill="#FFFFFF" d="M385.441,295.586c2.804,0.048,5.036,0.561,6.783,1.495l6.903-6.903
					c-3.643-2.023-8.22-2.971-13.381-2.971l-3.047,0l0,8.379H385.441z"/>
				<path opacity="0.8" fill="#FFFFFF" d="M406.129,370.659c-0.206-1.618-0.383-3.236-0.482-4.854l-0.882-0.236L406.129,370.659z"/>
				<path opacity="0.8" fill="#FFFFFF" d="M397.476,308.687c0,3.504-0.609,7.16-1.066,10.816c-0.551,3.444-1.097,6.767-1.198,10.412
					l3.499,13.058c1.868,2.26,4.402,3.729,7.448,4.56v0.304c-2.068,0.517-3.902,1.37-5.452,2.586l4.058,15.146l0.882,0.236
					c-0.059-0.962-0.098-1.924-0.098-2.886c0-4.551,1.418-10.795,11.197-11.245l-2.148-8.016c-7.842-1.109-9.049-6.32-9.049-11.055
					c0-4.265,0.609-8.531,1.219-12.796c0.17-1.186,0.337-2.361,0.494-3.53l-6.767-25.256c-0.44-0.299-0.895-0.58-1.367-0.843
					l-6.903,6.903C395.981,299.092,397.476,303.071,397.476,308.687z"/>
				<path opacity="0.8" fill="#FFFFFF" d="M397.476,308.687c0,3.504-0.609,7.16-1.066,10.816c-0.551,3.444-1.097,6.767-1.198,10.412
					l3.499,13.058c1.868,2.26,4.402,3.729,7.448,4.56v0.304c-2.068,0.517-3.902,1.37-5.452,2.586l4.058,15.146l0.882,0.236
					c-0.059-0.962-0.098-1.924-0.098-2.886c0-4.551,1.418-10.795,11.197-11.245l-2.148-8.016c-7.842-1.109-9.049-6.32-9.049-11.055
					c0-4.265,0.609-8.531,1.219-12.796c0.17-1.186,0.337-2.361,0.494-3.53l-6.767-25.256c-0.44-0.299-0.895-0.58-1.367-0.843
					l-6.903,6.903C395.981,299.092,397.476,303.071,397.476,308.687z"/>
				<path opacity="0.8" fill="#FFFFFF" d="M385.289,400.24h-2.59l0,8.379l3.199,0c11.083,0,19.881-4.323,21.726-16.042
					l-10.306-2.761C396.548,396.523,392.821,400.106,385.289,400.24z"/>
				<path opacity="0.8" fill="#FFFFFF" d="M395.231,363.014c-0.021,0.467-0.04,0.938-0.04,1.428c0,4.113,0.609,7.921,1.219,11.578
					c0.457,3.808,1.066,7.312,1.066,10.968c0,0.999-0.055,1.939-0.157,2.828l10.306,2.761c0.235-1.49,0.363-3.093,0.363-4.828
					c0-4.113-0.609-8.378-1.219-12.491c-0.227-1.533-0.444-3.066-0.639-4.599l-1.364-5.09L395.231,363.014z"/>
				<path opacity="0.8" fill="#FFFFFF" d="M395.231,363.014c-0.021,0.467-0.04,0.938-0.04,1.428c0,4.113,0.609,7.921,1.219,11.578
					c0.457,3.808,1.066,7.312,1.066,10.968c0,0.999-0.055,1.939-0.157,2.828l10.306,2.761c0.235-1.49,0.363-3.093,0.363-4.828
					c0-4.113-0.609-8.378-1.219-12.491c-0.227-1.533-0.444-3.066-0.639-4.599l-1.364-5.09L395.231,363.014z"/>
				<path opacity="0.8" fill="#FFFFFF" d="M395.191,331.08c0,5.319,1.277,9.179,3.52,11.893l-3.499-13.058
					C395.201,330.3,395.191,330.686,395.191,331.08z"/>
				<path opacity="0.8" fill="#FFFFFF" d="M395.191,331.08c0,5.319,1.277,9.179,3.52,11.893l-3.499-13.058
					C395.201,330.3,395.191,330.686,395.191,331.08z"/>
				<path opacity="0.8" fill="#FFFFFF" d="M395.191,331.08c0,5.319,1.277,9.179,3.52,11.893l-3.499-13.058
					C395.201,330.3,395.191,330.686,395.191,331.08z"/>
				<path opacity="0.8" fill="#FFFFFF" d="M400.707,350.423c-3.222,2.526-5.204,6.633-5.476,12.591l9.535,2.555L400.707,350.423z"/>
				<path opacity="0.8" fill="#FFFFFF" d="M400.707,350.423c-3.222,2.526-5.204,6.633-5.476,12.591l9.535,2.555L400.707,350.423z"/>
				<path opacity="0.8" fill="#FFFFFF" d="M400.707,350.423c-3.222,2.526-5.204,6.633-5.476,12.591l9.535,2.555L400.707,350.423z"/>
			</g>
		</g>
		<g>
			<defs>
				<polygon id="SVGID_11_" points="345.085,370 260.289,370 319.147,232 403.943,232 				"/>
			</defs>
			<clipPath id="SVGID_12_">
				<use xlink:href="#SVGID_11_"  overflow="visible"/>
			</clipPath>
			<g clip-path="url(#SVGID_12_)">
				<path opacity="0.8" fill="#FFFFFF" d="M324.228,306.754l0-7.769c1.212,0,2.301-0.078,3.29-0.218l-2.148,8.016
					C325.001,306.765,324.622,306.754,324.228,306.754z"/>
				<path opacity="0.8" fill="#FFFFFF" d="M334.13,262.272c0-7.704,2.812-12.964,7.492-16.143l-6.767,25.256
					C334.449,268.351,334.13,265.351,334.13,262.272z"/>
				<path opacity="0.8" fill="#FFFFFF" d="M356.676,250.694c-2.804,0.048-5.036,0.561-6.783,1.495l-6.903-6.903
					c3.643-2.023,8.22-2.971,13.381-2.971l3.047,0l0,8.379H356.676z"/>
				<path opacity="0.8" fill="#FFFFFF" d="M335.988,325.767c0.206-1.618,0.383-3.236,0.482-4.854l0.882-0.236L335.988,325.767z"/>
				<path opacity="0.8" fill="#FFFFFF" d="M344.641,263.795c0,3.504,0.609,7.16,1.066,10.816c0.551,3.444,1.097,6.767,1.198,10.412
					l-3.499,13.058c-1.868,2.26-4.402,3.729-7.448,4.56v0.304c2.068,0.517,3.902,1.37,5.452,2.586l-4.058,15.146l-0.882,0.236
					c0.059-0.962,0.098-1.924,0.098-2.886c0-4.551-1.418-10.795-11.197-11.245l2.148-8.016c7.842-1.109,9.049-6.32,9.049-11.055
					c0-4.265-0.609-8.531-1.219-12.796c-0.17-1.186-0.337-2.361-0.494-3.53l6.767-25.256c0.44-0.299,0.895-0.58,1.367-0.843
					l6.903,6.903C346.136,254.2,344.641,258.18,344.641,263.795z"/>
				<path opacity="0.8" fill="#FFFFFF" d="M344.641,263.795c0,3.504,0.609,7.16,1.066,10.816c0.551,3.444,1.097,6.767,1.198,10.412
					l-3.499,13.058c-1.868,2.26-4.402,3.729-7.448,4.56v0.304c2.068,0.517,3.902,1.37,5.452,2.586l-4.058,15.146l-0.882,0.236
					c0.059-0.962,0.098-1.924,0.098-2.886c0-4.551-1.418-10.795-11.197-11.245l2.148-8.016c7.842-1.109,9.049-6.32,9.049-11.055
					c0-4.265-0.609-8.531-1.219-12.796c-0.17-1.186-0.337-2.361-0.494-3.53l6.767-25.256c0.44-0.299,0.895-0.58,1.367-0.843
					l6.903,6.903C346.136,254.2,344.641,258.18,344.641,263.795z"/>
				<path opacity="0.8" fill="#FFFFFF" d="M356.828,355.349h2.59l0,8.379l-3.199,0c-11.083,0-19.881-4.323-21.726-16.042
					l10.306-2.761C345.569,351.631,349.296,355.214,356.828,355.349z"/>
				<path opacity="0.8" fill="#FFFFFF" d="M346.886,318.122c0.021,0.467,0.04,0.938,0.04,1.428c0,4.113-0.609,7.921-1.219,11.578
					c-0.457,3.808-1.066,7.312-1.066,10.968c0,0.999,0.055,1.939,0.157,2.828l-10.306,2.761c-0.235-1.49-0.363-3.093-0.363-4.828
					c0-4.113,0.609-8.378,1.219-12.491c0.227-1.533,0.444-3.066,0.639-4.599l1.364-5.09L346.886,318.122z"/>
				<path opacity="0.8" fill="#FFFFFF" d="M346.886,318.122c0.021,0.467,0.04,0.938,0.04,1.428c0,4.113-0.609,7.921-1.219,11.578
					c-0.457,3.808-1.066,7.312-1.066,10.968c0,0.999,0.055,1.939,0.157,2.828l-10.306,2.761c-0.235-1.49-0.363-3.093-0.363-4.828
					c0-4.113,0.609-8.378,1.219-12.491c0.227-1.533,0.444-3.066,0.639-4.599l1.364-5.09L346.886,318.122z"/>
				<path opacity="0.8" fill="#FFFFFF" d="M346.926,286.188c0,5.319-1.277,9.179-3.52,11.893l3.499-13.058
					C346.916,285.408,346.926,285.795,346.926,286.188z"/>
				<path opacity="0.8" fill="#FFFFFF" d="M346.926,286.188c0,5.319-1.277,9.179-3.52,11.893l3.499-13.058
					C346.916,285.408,346.926,285.795,346.926,286.188z"/>
				<path opacity="0.8" fill="#FFFFFF" d="M346.926,286.188c0,5.319-1.277,9.179-3.52,11.893l3.499-13.058
					C346.916,285.408,346.926,285.795,346.926,286.188z"/>
				<path opacity="0.8" fill="#FFFFFF" d="M341.41,305.531c3.222,2.526,5.204,6.633,5.476,12.591l-9.535,2.555L341.41,305.531z"/>
				<path opacity="0.8" fill="#FFFFFF" d="M341.41,305.531c3.222,2.526,5.204,6.633,5.476,12.591l-9.535,2.555L341.41,305.531z"/>
				<path opacity="0.8" fill="#FFFFFF" d="M341.41,305.531c3.222,2.526,5.204,6.633,5.476,12.591l-9.535,2.555L341.41,305.531z"/>
			</g>
		</g>
	</g>
	<g>
		<path fill="#FF1D25" d="M125.797,430.865l23.677,29.106v-29.106h2.664v35.188h-1.056l-23.727-29.055v29.055h-2.715v-35.188
			H125.797z"/>
		<path fill="#FF1D25" d="M157.011,466.053v-35.188h2.664v35.188H157.011z"/>
		<path fill="#FF1D25" d="M193.455,461.176c-3.519,3.519-8.194,5.278-12.818,5.278c-11.863,0-18.047-8.294-18.097-17.795
			c-0.101-9.4,6.032-18.197,18.097-18.197c4.625,0,9.3,1.759,12.818,5.278l-1.86,1.609c-3.016-3.016-6.987-4.474-10.958-4.474
			c-10.255,0-15.533,7.238-15.483,15.684c0.101,8.244,5.328,15.382,15.483,15.382c3.971,0,7.993-1.508,11.009-4.474L193.455,461.176
			z"/>
		<path fill="#FF1D25" d="M230.751,448.509c-0.05,9.249-5.932,18.147-17.745,18.147c-11.813,0-17.745-8.948-17.745-18.248
			c0-9.45,5.882-18.097,17.745-18.097S230.802,439.008,230.751,448.509z M197.926,448.459c0.05,7.942,5.077,15.684,15.081,15.684
			c10.054,0,15.131-7.741,15.131-15.684c0-8.144-5.027-15.633-15.131-15.633C202.902,432.825,197.876,440.164,197.926,448.459z"/>
		<path fill="#FF1D25" d="M236.881,430.865v32.625h19.806v2.563h-22.52v-35.188H236.881z"/>
		<path fill="#FF1D25" d="M261.46,447.101h20.61v2.463h-20.61v13.875h22.219v2.614h-24.883v-35.188h24.28v2.563H261.46V447.101z"/>
		<path fill="#FF1D25" d="M325.55,466.053h-3.569l-12.165-13.321h-9.601v13.321H297.5v-35.188c5.178,0,10.305,0,15.483,0
			c7.641,0,11.512,5.479,11.562,10.958c0.05,5.731-3.72,10.757-11.411,10.757L325.55,466.053z M300.214,450.168h12.467
			c6.133,0,8.847-3.469,8.897-8.395c0.05-4.122-2.765-8.395-8.596-8.395h-12.768V450.168z"/>
		<path fill="#FF1D25" d="M355.054,466.053l-3.871-8.646h-21.012l-3.821,8.646h-2.915l15.784-35.188h2.966l15.784,35.188H355.054z
			 M350.128,454.893l-9.45-21.415l-9.451,21.415H350.128z"/>
		<path fill="#FF1D25" d="M383.755,430.865v21.867c0,18.399-26.944,18.449-26.944,0v-21.867h2.664v21.867
			c0,15.131,21.616,15.081,21.616,0v-21.867H383.755z"/>
		<path fill="#FF1D25" d="M417.182,461.176c-3.519,3.519-8.194,5.278-12.819,5.278c-11.864,0-18.047-8.294-18.097-17.795
			c-0.101-9.4,6.032-18.197,18.097-18.197c4.625,0,9.3,1.759,12.819,5.278l-1.86,1.609c-3.016-3.016-6.988-4.474-10.958-4.474
			c-10.255,0-15.533,7.238-15.483,15.684c0.1,8.244,5.328,15.382,15.483,15.382c3.971,0,7.993-1.508,11.009-4.474L417.182,461.176z"
			/>
		<path fill="#FF1D25" d="M445.68,466.053v-15.985h-22.42v15.985h-2.714v-35.188h2.714v16.739h22.42v-16.739h2.715v35.188H445.68z"
			/>
	</g>
	<g>
		<path d="M116.783,499.086c0-5.861-9.53-2.685-9.53-8.924c0-2.269,1.664-4.916,5.597-4.916c2.231,0,4.614,0.869,4.614,1.588
			c0,0.265-0.303,0.756-0.643,0.756c-0.492,0-1.664-1.021-3.933-1.021c-3.214,0-4.311,2.08-4.311,3.555
			c0,5.029,9.529,1.891,9.529,8.886c0,2.799-2.118,4.538-5.71,4.538c-3.403,0-5.521-1.551-5.521-2.458
			c0-0.341,0.265-0.643,0.529-0.643c0.681,0,1.399,1.777,4.954,1.777C115.535,502.225,116.783,500.788,116.783,499.086z"/>
		<path d="M134.858,492.053v4.613c0,3.592-3.139,6.883-6.731,6.883c-3.593,0-6.693-3.252-6.693-6.883v-4.613
			c0-3.63,3.025-6.807,6.693-6.807C131.72,485.246,134.858,488.309,134.858,492.053z M133.535,492.053
			c0-2.761-2.382-5.483-5.408-5.483c-3.025,0-5.37,2.722-5.37,5.483v4.613c0,2.836,2.382,5.559,5.37,5.559
			c2.987,0,5.408-2.723,5.408-5.559V492.053z"/>
		<path d="M140.681,485.473h5.786c0.378,0,0.681,0.303,0.681,0.643c0,0.378-0.303,0.681-0.681,0.681h-5.786v15.883
			c0,0.378-0.34,0.643-0.719,0.643c-0.34,0-0.605-0.265-0.605-0.643v-21.668c0-3.63,3.101-6.731,6.731-6.731h0.378
			c0.378,0,0.681,0.302,0.681,0.681c0,0.378-0.303,0.643-0.681,0.643h-0.378c-3.063,0-5.37,2.609-5.408,5.408V485.473z"/>
		<path d="M150.173,477.38c0-0.378,0.34-0.643,0.643-0.643c0.34,0,0.68,0.264,0.68,0.643v8.092h5.105
			c0.34,0,0.643,0.303,0.643,0.681c0,0.341-0.303,0.643-0.643,0.643h-5.105v11.269c0,2.874,1.097,3.933,4.198,3.933h0.87
			c0.34,0,0.643,0.265,0.643,0.643c0,0.378-0.302,0.681-0.643,0.681h-0.87c-3.593,0-5.521-1.588-5.521-5.256V477.38z"/>
		<path d="M181.975,486.115c0,0.151-0.114,0.454-0.151,0.53l-5.937,16.449c-0.114,0.341-0.303,0.454-0.567,0.454
			c-0.303,0-0.378-0.114-0.53-0.416l-4.424-14.181l-4.349,13.954c-0.151,0.454-0.34,0.643-0.643,0.643
			c-0.34,0-0.454-0.114-0.643-0.643l-5.899-16.261c-0.038-0.076-0.151-0.378-0.151-0.492c0-0.378,0.303-0.681,0.68-0.681
			c0.265,0,0.53,0.151,0.643,0.416l5.332,14.786l4.349-13.689c0.114-0.303,0.34-0.492,0.681-0.492s0.567,0.189,0.681,0.492
			l4.197,13.878l5.445-14.975c0.076-0.265,0.34-0.416,0.605-0.416C181.673,485.473,181.975,485.7,181.975,486.115z"/>
		<path d="M196.269,492.507v10.134c0,0.378-0.265,0.681-0.643,0.681c-0.378,0-0.681-0.302-0.681-0.681v-1.967
			c-1.286,1.475-3.176,2.874-5.672,2.874c-2.95,0-5.256-1.589-5.256-4.992c0-4.008,3.555-4.992,8.811-4.992h2.117v-1.059
			c0-2.836-1.399-5.937-4.992-5.937c-2.344,0-3.479,1.021-3.933,1.021c-0.416,0-0.681-0.491-0.681-0.756
			c0-0.719,2.382-1.588,4.689-1.588C194.681,485.246,196.269,488.763,196.269,492.507z M194.946,494.889h-2.08
			c-3.895,0-7.525,0.378-7.525,3.668c0,2.534,1.702,3.668,3.895,3.668c2.836,0,5.71-2.534,5.71-4.16V494.889z"/>
		<path d="M207.841,486.57c-2.647,0-5.256,2.042-5.256,5.483v10.588c0,0.341-0.303,0.681-0.681,0.681
			c-0.378,0-0.643-0.34-0.643-0.681v-16.526c0-0.378,0.265-0.643,0.643-0.643c0.378,0,0.681,0.265,0.681,0.643v2.004
			c0.87-1.475,2.609-2.874,5.256-2.874h1.399c0.34,0,0.643,0.302,0.643,0.681c0,0.34-0.303,0.643-0.643,0.643H207.841z"/>
		<path d="M224.707,492.053c0,2.76-1.513,2.836-3.139,2.836h-8.962v1.777c0,3.441,2.685,5.559,6.391,5.559
			c3.177,0,3.744-1.551,4.462-1.551c0.34,0,0.681,0.379,0.681,0.681c0,0.719-1.966,2.194-5.219,2.194
			c-4.462,0-7.639-2.761-7.639-6.883v-4.727c0-3.63,3.063-6.693,6.731-6.693C221.568,485.246,224.707,488.12,224.707,492.053z
			 M221.114,493.565c1.853,0,2.269-0.227,2.269-1.399c0-2.722-2.118-5.596-5.37-5.596c-3.063,0-5.408,2.533-5.408,5.37v1.626
			H221.114z"/>
		<path d="M248.833,474.922v27.719c0,0.341-0.265,0.681-0.643,0.681c-0.378,0-0.681-0.34-0.681-0.681v-1.967
			c-0.832,1.551-2.836,2.874-5.143,2.874c-3.593,0-6.731-3.29-6.731-6.883v-4.613c0-3.744,3.101-6.807,6.807-6.807
			c2.534,0,4.235,1.399,5.067,2.874v-13.198c0-0.378,0.303-0.643,0.681-0.643C248.568,474.279,248.833,474.544,248.833,474.922z
			 M236.959,496.666c0,2.836,2.458,5.559,5.332,5.559c2.987,0,5.218-2.874,5.218-4.16v-6.013c0-3.442-2.609-5.483-5.18-5.483
			c-2.95,0-5.37,2.722-5.37,5.483V496.666z"/>
		<path d="M266.795,492.053c0,2.76-1.513,2.836-3.139,2.836h-8.962v1.777c0,3.441,2.685,5.559,6.391,5.559
			c3.177,0,3.744-1.551,4.462-1.551c0.34,0,0.681,0.379,0.681,0.681c0,0.719-1.966,2.194-5.219,2.194
			c-4.462,0-7.639-2.761-7.639-6.883v-4.727c0-3.63,3.063-6.693,6.731-6.693C263.656,485.246,266.795,488.12,266.795,492.053z
			 M263.202,493.565c1.853,0,2.269-0.227,2.269-1.399c0-2.722-2.118-5.596-5.37-5.596c-3.063,0-5.408,2.533-5.408,5.37v1.626
			H263.202z"/>
		<path d="M282.374,486.115c0,0.189-0.113,0.454-0.151,0.567l-5.899,16.412c-0.113,0.265-0.34,0.454-0.643,0.454
			c-0.34,0-0.529-0.151-0.643-0.454l-5.899-16.412c-0.038-0.113-0.151-0.378-0.151-0.529c0-0.378,0.303-0.681,0.68-0.681
			c0.265,0,0.53,0.151,0.643,0.416l5.37,14.861l5.332-14.635c0.113-0.302,0.151-0.643,0.643-0.643
			C281.996,485.473,282.374,485.737,282.374,486.115z"/>
		<path d="M298.446,492.053c0,2.76-1.513,2.836-3.139,2.836h-8.962v1.777c0,3.441,2.685,5.559,6.391,5.559
			c3.177,0,3.744-1.551,4.462-1.551c0.34,0,0.681,0.379,0.681,0.681c0,0.719-1.967,2.194-5.219,2.194
			c-4.462,0-7.639-2.761-7.639-6.883v-4.727c0-3.63,3.063-6.693,6.731-6.693C295.308,485.246,298.446,488.12,298.446,492.053z
			 M294.854,493.565c1.853,0,2.269-0.227,2.269-1.399c0-2.722-2.118-5.596-5.37-5.596c-3.063,0-5.408,2.533-5.408,5.37v1.626
			H294.854z"/>
		<path d="M304.156,474.922v27.719c0,0.341-0.302,0.681-0.681,0.681c-0.378,0-0.643-0.34-0.643-0.681v-27.719
			c0-0.378,0.265-0.643,0.643-0.643C303.854,474.279,304.156,474.544,304.156,474.922z"/>
		<path d="M322.383,492.053v4.613c0,3.592-3.139,6.883-6.731,6.883s-6.693-3.252-6.693-6.883v-4.613c0-3.63,3.025-6.807,6.693-6.807
			C319.245,485.246,322.383,488.309,322.383,492.053z M321.06,492.053c0-2.761-2.382-5.483-5.408-5.483s-5.37,2.722-5.37,5.483
			v4.613c0,2.836,2.382,5.559,5.37,5.559s5.408-2.723,5.408-5.559V492.053z"/>
		<path d="M328.206,486.115v2.004c0.832-1.475,2.534-2.874,5.067-2.874c3.706,0,6.807,3.063,6.807,6.807v4.613
			c0,3.592-3.139,6.883-6.731,6.883c-2.307,0-4.311-1.324-5.143-2.874v10.929c0,0.341-0.302,0.681-0.68,0.681
			c-0.379,0-0.643-0.34-0.643-0.681v-25.488c0-0.378,0.264-0.643,0.643-0.643C327.904,485.473,328.206,485.737,328.206,486.115z
			 M338.757,492.053c0-2.761-2.42-5.483-5.37-5.483c-2.572,0-5.181,2.042-5.181,5.483v6.013c0,1.286,2.231,4.16,5.219,4.16
			c2.874,0,5.332-2.723,5.332-5.559V492.053z"/>
		<path d="M355.887,491.864c0-2.987-2.193-5.294-4.878-5.294c-2.534,0-5.143,2.042-5.143,5.483v10.588
			c0,0.341-0.303,0.681-0.681,0.681c-0.379,0-0.643-0.34-0.643-0.681v-16.526c0-0.378,0.264-0.643,0.643-0.643
			c0.378,0,0.681,0.265,0.681,0.643v2.004c0.832-1.475,2.533-2.874,5.067-2.874c2.609,0,4.689,1.55,5.673,3.782
			c1.324-2.572,3.555-3.782,5.748-3.782c3.177,0,6.202,2.458,6.202,6.807v10.588c0,0.341-0.302,0.681-0.681,0.681
			c-0.34,0-0.643-0.34-0.643-0.681v-10.588c0-3.63-2.571-5.483-4.916-5.483c-2.533,0-5.105,2.117-5.105,5.256v10.853
			c0,0.454-0.341,0.643-0.681,0.643c-0.303,0-0.643-0.189-0.643-0.643V491.864z"/>
		<path d="M386.329,492.053c0,2.76-1.513,2.836-3.139,2.836h-8.962v1.777c0,3.441,2.685,5.559,6.391,5.559
			c3.177,0,3.744-1.551,4.462-1.551c0.34,0,0.681,0.379,0.681,0.681c0,0.719-1.967,2.194-5.219,2.194
			c-4.462,0-7.639-2.761-7.639-6.883v-4.727c0-3.63,3.063-6.693,6.731-6.693C383.19,485.246,386.329,488.12,386.329,492.053z
			 M382.736,493.565c1.852,0,2.269-0.227,2.269-1.399c0-2.722-2.118-5.596-5.37-5.596c-3.063,0-5.408,2.533-5.408,5.37v1.626
			H382.736z"/>
		<path d="M391.699,502.641c0,0.341-0.303,0.681-0.681,0.681c-0.379,0-0.643-0.34-0.643-0.681v-16.526
			c0-0.378,0.264-0.643,0.643-0.643c0.378,0,0.681,0.265,0.681,0.643v2.004c0.832-1.475,2.533-2.874,5.067-2.874
			c3.706,0,6.807,3.063,6.807,6.807v10.588c0,0.454-0.34,0.681-0.681,0.681c-0.302,0-0.643-0.227-0.643-0.681v-10.588
			c0-2.761-2.42-5.483-5.37-5.483c-2.572,0-5.18,2.042-5.18,5.483V502.641z"/>
		<path d="M408.488,477.38c0-0.378,0.34-0.643,0.643-0.643c0.34,0,0.681,0.264,0.681,0.643v8.092h5.105
			c0.341,0,0.643,0.303,0.643,0.681c0,0.341-0.302,0.643-0.643,0.643h-5.105v11.269c0,2.874,1.097,3.933,4.198,3.933h0.869
			c0.341,0,0.643,0.265,0.643,0.643c0,0.378-0.302,0.681-0.643,0.681h-0.869c-3.592,0-5.521-1.588-5.521-5.256V477.38z"/>
		<path d="M439.383,478.325c0,0.379-0.227,0.605-0.643,0.605c-0.718,0-1.134-2.685-4.803-2.685c-3.063,0-4.878,2.08-4.878,5.143
			c0,2.799,1.513,4.727,3.366,6.769l8.433,9.341c1.172-2.685,1.437-5.824,1.475-7.753c0-0.605,0.189-0.794,0.643-0.794
			c0.379,0,0.567,0.227,0.567,0.869c0,1.361-0.151,5.37-1.777,8.698l3.668,4.008c0.114,0.151,0.189,0.303,0.189,0.416
			c0,0.34-0.303,0.605-0.605,0.605c-0.151,0-0.302-0.076-0.454-0.227l-3.404-3.668c-1.475,2.307-3.819,4.046-7.487,4.046
			c-5.332,0-8.282-3.668-8.282-7.903c0-4.046,2.723-6.391,5.332-7.487c-1.551-1.853-3.252-3.971-3.252-7.034
			c0-4.008,2.912-6.239,6.315-6.239C437.719,475.036,439.383,477.57,439.383,478.325z M440.253,498.708l-8.736-9.416
			c-1.891,1.021-4.727,2.609-4.727,6.353c0,3.517,2.534,6.731,7.109,6.731C437.114,502.377,439.043,500.826,440.253,498.708z"/>
		<path d="M148.244,512.751v27.719c0,0.341-0.265,0.681-0.643,0.681c-0.378,0-0.681-0.34-0.681-0.681v-1.967
			c-0.832,1.551-2.836,2.874-5.143,2.874c-3.593,0-6.731-3.29-6.731-6.883v-4.613c0-3.744,3.101-6.807,6.807-6.807
			c2.534,0,4.235,1.399,5.067,2.874v-13.198c0-0.378,0.303-0.643,0.681-0.643C147.98,512.108,148.244,512.373,148.244,512.751z
			 M136.37,534.495c0,2.836,2.458,5.559,5.332,5.559c2.987,0,5.218-2.874,5.218-4.16v-6.013c0-3.442-2.609-5.483-5.18-5.483
			c-2.95,0-5.37,2.722-5.37,5.483V534.495z"/>
		<path d="M166.206,529.882c0,2.76-1.513,2.836-3.139,2.836h-8.962v1.777c0,3.441,2.685,5.559,6.391,5.559
			c3.177,0,3.744-1.551,4.462-1.551c0.34,0,0.681,0.379,0.681,0.681c0,0.719-1.966,2.194-5.219,2.194
			c-4.462,0-7.639-2.761-7.639-6.883v-4.727c0-3.63,3.063-6.693,6.731-6.693C163.068,523.075,166.206,525.949,166.206,529.882z
			 M162.614,531.394c1.853,0,2.269-0.227,2.269-1.399c0-2.722-2.118-5.596-5.37-5.596c-3.063,0-5.408,2.533-5.408,5.37v1.626
			H162.614z"/>
		<path d="M181.786,523.944c0,0.189-0.113,0.454-0.151,0.567l-5.899,16.412c-0.113,0.265-0.34,0.454-0.643,0.454
			c-0.34,0-0.53-0.151-0.643-0.454l-5.899-16.412c-0.038-0.113-0.151-0.378-0.151-0.529c0-0.378,0.303-0.681,0.68-0.681
			c0.265,0,0.53,0.151,0.643,0.416l5.37,14.861l5.332-14.635c0.114-0.302,0.151-0.643,0.643-0.643
			C181.408,523.301,181.786,523.566,181.786,523.944z"/>
		<path d="M197.858,529.882c0,2.76-1.513,2.836-3.139,2.836h-8.962v1.777c0,3.441,2.685,5.559,6.391,5.559
			c3.177,0,3.744-1.551,4.462-1.551c0.34,0,0.681,0.379,0.681,0.681c0,0.719-1.966,2.194-5.219,2.194
			c-4.462,0-7.639-2.761-7.639-6.883v-4.727c0-3.63,3.063-6.693,6.731-6.693C194.719,523.075,197.858,525.949,197.858,529.882z
			 M194.265,531.394c1.853,0,2.269-0.227,2.269-1.399c0-2.722-2.118-5.596-5.37-5.596c-3.063,0-5.408,2.533-5.408,5.37v1.626
			H194.265z"/>
		<path d="M203.568,512.751v27.719c0,0.341-0.303,0.681-0.681,0.681c-0.378,0-0.643-0.34-0.643-0.681v-27.719
			c0-0.378,0.265-0.643,0.643-0.643C203.265,512.108,203.568,512.373,203.568,512.751z"/>
		<path d="M221.795,529.882v4.613c0,3.592-3.139,6.883-6.731,6.883c-3.592,0-6.693-3.252-6.693-6.883v-4.613
			c0-3.63,3.025-6.807,6.693-6.807C218.656,523.075,221.795,526.138,221.795,529.882z M220.471,529.882
			c0-2.761-2.382-5.483-5.408-5.483c-3.025,0-5.37,2.722-5.37,5.483v4.613c0,2.836,2.383,5.559,5.37,5.559s5.408-2.723,5.408-5.559
			V529.882z"/>
		<path d="M227.618,523.944v2.004c0.832-1.474,2.534-2.874,5.067-2.874c3.706,0,6.807,3.063,6.807,6.807v4.613
			c0,3.592-3.139,6.883-6.731,6.883c-2.307,0-4.311-1.324-5.143-2.874v10.929c0,0.341-0.303,0.681-0.681,0.681
			c-0.378,0-0.643-0.34-0.643-0.681v-25.488c0-0.378,0.265-0.643,0.643-0.643C227.316,523.301,227.618,523.566,227.618,523.944z
			 M238.169,529.882c0-2.761-2.42-5.483-5.37-5.483c-2.572,0-5.181,2.042-5.181,5.483v6.013c0,1.286,2.231,4.16,5.219,4.16
			c2.874,0,5.332-2.723,5.332-5.559V529.882z"/>
		<path d="M255.299,529.692c0-2.987-2.193-5.294-4.878-5.294c-2.534,0-5.143,2.042-5.143,5.483v10.588
			c0,0.341-0.303,0.681-0.681,0.681c-0.378,0-0.643-0.34-0.643-0.681v-16.526c0-0.378,0.265-0.643,0.643-0.643
			c0.378,0,0.681,0.265,0.681,0.643v2.004c0.832-1.474,2.534-2.874,5.067-2.874c2.609,0,4.689,1.55,5.673,3.782
			c1.323-2.572,3.555-3.782,5.748-3.782c3.176,0,6.202,2.458,6.202,6.807v10.588c0,0.341-0.303,0.681-0.681,0.681
			c-0.34,0-0.643-0.34-0.643-0.681v-10.588c0-3.63-2.571-5.483-4.916-5.483c-2.534,0-5.105,2.117-5.105,5.256v10.853
			c0,0.454-0.34,0.643-0.681,0.643c-0.303,0-0.643-0.189-0.643-0.643V529.692z"/>
		<path d="M285.74,529.882c0,2.76-1.513,2.836-3.139,2.836h-8.962v1.777c0,3.441,2.685,5.559,6.391,5.559
			c3.177,0,3.744-1.551,4.462-1.551c0.34,0,0.681,0.379,0.681,0.681c0,0.719-1.966,2.194-5.219,2.194
			c-4.462,0-7.639-2.761-7.639-6.883v-4.727c0-3.63,3.063-6.693,6.731-6.693C282.602,523.075,285.74,525.949,285.74,529.882z
			 M282.148,531.394c1.853,0,2.269-0.227,2.269-1.399c0-2.722-2.118-5.596-5.37-5.596c-3.063,0-5.408,2.533-5.408,5.37v1.626
			H282.148z"/>
		<path d="M291.11,540.47c0,0.341-0.303,0.681-0.681,0.681c-0.378,0-0.643-0.34-0.643-0.681v-16.526
			c0-0.378,0.265-0.643,0.643-0.643c0.378,0,0.681,0.265,0.681,0.643v2.004c0.832-1.474,2.534-2.874,5.067-2.874
			c3.706,0,6.807,3.063,6.807,6.807v10.588c0,0.454-0.34,0.681-0.681,0.681c-0.302,0-0.643-0.227-0.643-0.681v-10.588
			c0-2.761-2.42-5.483-5.37-5.483c-2.572,0-5.181,2.042-5.181,5.483V540.47z"/>
		<path d="M307.9,515.209c0-0.378,0.34-0.643,0.643-0.643c0.34,0,0.681,0.264,0.681,0.643v8.092h5.105
			c0.341,0,0.643,0.303,0.643,0.681c0,0.341-0.302,0.643-0.643,0.643h-5.105v11.269c0,2.874,1.097,3.933,4.198,3.933h0.869
			c0.341,0,0.643,0.265,0.643,0.643c0,0.378-0.302,0.681-0.643,0.681h-0.869c-3.592,0-5.521-1.588-5.521-5.256V515.209z"/>
		<path d="M325.219,534.495v-4.538c0-3.857,2.193-6.883,6.92-6.883c3.025,0,4.954,1.437,4.954,2.231c0,0.341-0.34,0.643-0.681,0.643
			c-0.643,0-1.286-1.55-4.273-1.55c-3.63,0-5.596,2.117-5.596,5.559v4.538c0,3.441,1.928,5.559,5.634,5.559
			c3.177,0,3.82-1.551,4.5-1.551c0.34,0,0.643,0.303,0.643,0.643c0,0.794-1.967,2.231-5.181,2.231
			C327.45,541.378,325.219,538.428,325.219,534.495z"/>
		<path d="M353.505,529.882v4.613c0,3.592-3.139,6.883-6.731,6.883s-6.693-3.252-6.693-6.883v-4.613c0-3.63,3.025-6.807,6.693-6.807
			C350.366,523.075,353.505,526.138,353.505,529.882z M352.182,529.882c0-2.761-2.382-5.483-5.408-5.483s-5.37,2.722-5.37,5.483
			v4.613c0,2.836,2.382,5.559,5.37,5.559s5.408-2.723,5.408-5.559V529.882z"/>
		<path d="M368.972,530.335v10.134c0,0.378-0.265,0.681-0.643,0.681c-0.378,0-0.681-0.302-0.681-0.681v-1.967
			c-1.286,1.475-3.177,2.874-5.673,2.874c-2.95,0-5.256-1.589-5.256-4.992c0-4.008,3.555-4.992,8.811-4.992h2.118v-1.059
			c0-2.836-1.399-5.937-4.992-5.937c-2.345,0-3.479,1.021-3.933,1.021c-0.416,0-0.681-0.491-0.681-0.756
			c0-0.719,2.382-1.588,4.689-1.588C367.383,523.075,368.972,526.591,368.972,530.335z M367.648,532.718h-2.08
			c-3.895,0-7.525,0.378-7.525,3.668c0,2.534,1.702,3.668,3.895,3.668c2.837,0,5.71-2.534,5.71-4.16V532.718z"/>
		<path d="M373.358,534.495v-4.538c0-3.857,2.193-6.883,6.92-6.883c3.025,0,4.954,1.437,4.954,2.231c0,0.341-0.34,0.643-0.681,0.643
			c-0.643,0-1.286-1.55-4.273-1.55c-3.63,0-5.596,2.117-5.596,5.559v4.538c0,3.441,1.928,5.559,5.634,5.559
			c3.177,0,3.82-1.551,4.5-1.551c0.34,0,0.643,0.303,0.643,0.643c0,0.794-1.967,2.231-5.181,2.231
			C375.589,541.378,373.358,538.428,373.358,534.495z"/>
		<path d="M390.526,540.47c0,0.341-0.303,0.681-0.681,0.681c-0.379,0-0.643-0.34-0.643-0.681v-27.719
			c0-0.378,0.264-0.643,0.643-0.643c0.378,0,0.681,0.265,0.681,0.643v13.198c0.832-1.474,2.533-2.874,5.067-2.874
			c3.706,0,6.807,3.063,6.807,6.807v10.588c0,0.454-0.341,0.681-0.681,0.681c-0.302,0-0.643-0.227-0.643-0.681v-10.588
			c0-2.761-2.42-5.483-5.37-5.483c-2.572,0-5.18,2.042-5.18,5.483V540.47z"/>
		<path d="M409.207,516.192c0,0.643-0.529,1.21-1.172,1.21c-0.681,0-1.21-0.567-1.21-1.21s0.529-1.172,1.21-1.172
			C408.677,515.02,409.207,515.549,409.207,516.192z M408.715,523.944v16.526c0,0.341-0.303,0.681-0.681,0.681
			c-0.341,0-0.643-0.34-0.643-0.681v-16.526c0-0.378,0.302-0.643,0.643-0.643C408.412,523.301,408.715,523.566,408.715,523.944z"/>
		<path d="M415.181,540.47c0,0.341-0.303,0.681-0.681,0.681c-0.378,0-0.643-0.34-0.643-0.681v-16.526
			c0-0.378,0.264-0.643,0.643-0.643c0.378,0,0.681,0.265,0.681,0.643v2.004c0.832-1.474,2.533-2.874,5.067-2.874
			c3.706,0,6.807,3.063,6.807,6.807v10.588c0,0.454-0.341,0.681-0.681,0.681c-0.302,0-0.643-0.227-0.643-0.681v-10.588
			c0-2.761-2.42-5.483-5.37-5.483c-2.572,0-5.181,2.042-5.181,5.483V540.47z"/>
		<path d="M442.975,525.797c0.643,0.908,0.945,2.194,0.945,3.479v1.702c0,3.592-2.534,6.277-6.164,6.277
			c-1.134,0-2.193-0.264-3.101-0.794c-0.756,0.34-1.512,0.832-1.512,1.815c0,3.819,11.95-0.076,11.95,6.731
			c0,3.252-2.722,5.105-7.071,5.105c-4.387,0-7.336-1.891-7.336-4.878c0-2.307,1.739-3.592,3.441-4.198
			c-1.361-0.378-2.307-1.059-2.307-2.685c0-1.399,0.719-2.08,1.853-2.609c-1.248-1.097-1.967-2.798-1.967-4.765v-1.702
			c0-3.63,2.42-6.202,6.088-6.202c1.853,0,3.404,0.681,4.5,1.815c0.681-1.286,1.891-2.307,2.836-2.307
			c0.567,0,0.794,0.378,0.794,0.756c0,0.454-0.341,0.719-0.681,0.719C444.601,524.058,443.693,524.398,442.975,525.797z
			 M435.979,541.415c-2.004,0.567-3.97,1.588-3.97,3.706c0,2.231,2.193,3.782,6.013,3.782c3.744,0,5.748-1.512,5.748-3.857
			C443.769,541.453,438.399,541.756,435.979,541.415z M442.597,529.277c0-2.761-1.777-4.878-4.803-4.878s-4.765,2.117-4.765,4.878
			v1.664c0,2.836,1.777,4.992,4.803,4.992c2.95,0,4.765-2.118,4.765-4.954V529.277z"/>
	</g>
</g>
</svg>
